<mxfile host="app.diagrams.net" agent="Mozilla/5.0 (Windows NT 10.0; Win64; x64; rv:137.0) Gecko/20100101 Firefox/137.0" version="26.1.3">
  <diagram name="Page-1" id="U5NrzFXAgHeZSVnIE7qF">
    <mxGraphModel dx="352" dy="241" grid="1" gridSize="10" guides="1" tooltips="1" connect="1" arrows="1" fold="1" page="1" pageScale="1" pageWidth="236" pageHeight="236" math="0" shadow="0">
      <root>
        <mxCell id="0" />
        <mxCell id="1" parent="0" />
        <mxCell id="OY9wK7jUDrNuS_OS_JSJ-1" value="" style="group" vertex="1" connectable="0" parent="1">
          <mxGeometry x="-0.10999999999998522" width="236.22" height="236.22" as="geometry" />
        </mxCell>
        <mxCell id="hcz-sWbUcZqXMe1qP15K-1" value="" style="whiteSpace=wrap;html=1;fillColor=none;dashed=1;dashPattern=12 12;strokeWidth=0.7874;strokeColor=none;" parent="OY9wK7jUDrNuS_OS_JSJ-1" vertex="1">
          <mxGeometry width="236.22" height="236.22" as="geometry" />
        </mxCell>
        <mxCell id="AVs13AZFLNNJArJ95App-3" value="La Desayuneria Bitcoinâš¡Lightning" style="text;whiteSpace=wrap;" parent="OY9wK7jUDrNuS_OS_JSJ-1" vertex="1">
          <mxGeometry x="21.109999999999985" y="10" width="194" height="20" as="geometry" />
        </mxCell>
        <UserObject label="la_desayuneria@bitnode.one" link="papeleria_orozco@bitnode.one" id="AVs13AZFLNNJArJ95App-4">
          <mxCell style="text;whiteSpace=wrap;" parent="OY9wK7jUDrNuS_OS_JSJ-1" vertex="1">
            <mxGeometry x="43.66999999999999" y="200" width="153.89" height="20" as="geometry" />
          </mxCell>
        </UserObject>
        <mxCell id="luq0KlF1iXdCz1hs6UsA-1" value="" style="shape=image;verticalLabelPosition=bottom;labelBackgroundColor=default;verticalAlign=top;aspect=fixed;imageAspect=0;image=data:image/png,iVBORw0KGgoAAAANSUhEUgAABHsAAAR7CAIAAACfMz+5AAAABmJLR0QA/wD/AP+gvaeTAAAgAElEQVR4nOzde3hU5bk//DUzOZMhCYEYkpWAhsMkIQGGBAvir7UWT1e1Ft92Szlorc6u0nZbqBQRN2BFSUx2a1twN3nf2nIote3eWmmrNtbLso3VhJxMmQZFC8mEAB6SQM6HWb8/pi+bkpXTzLqfZ91rvp+/cvUi3/XtvZ4ZnyeTzNg0TVMAAAAAAACAgF12AQAAAAAAAMvCiQsAAAAAAIAKTlwAAAAAAABUcOICAAAAAACgghMXAAAAAAAAFZy4AAAAAAAAqODEBQAAAAAAQAUnLgAAAAAAACo4cQEAAAAAAFDBiQsAAAAAAIAKTlwAAAAAAABUcOICAAAAAACgghMXAAAAAAAAFZy4AAAAAAAAqODEBQAAAAAAQAUnLgAAAAAAACo4cQEAAAAAAFDBiQsAAAAAAIAKTlwAAAAAAABUcOICAAAAAACgghMXAAAAAAAAFZy4AAAAAAAAqODEBQAAAAAAQAUnLgAAAAAAACo4cQEAAAAAAFDBiQsAAAAAAIAKTlwAAAAAAABUcOICAAAAAACgghMXAAAAAAAAFZy4AAAAAAAAqODEBQAAAAAAQAUnLgAAAAAAACo4cQEAAAAAAFDBiQsAAAAAAIAKTlwAAAAAAABUcOICAAAAAACgghMXAAAAAAAAFZy4AAAAAAAAqODEBQAAAAAAQAUnLgAAAAAAACo4cQEAAAAAAFDBiQsAAAAAAIAKTlwAAAAAAABUcOICAAAAAACgghMXAAAAAAAAFZy4AAAAAAAAqODEBQAAAAAAQAUnLgAAAAAAACo4cQEAAAAAAFDBiQsAAAAAAIAKTlwAAAAAAABUcOICAAAAAACgghMXAAAAAAAAFZy4AAAAAAAAqODEBQAAAAAAQAUnLgAAAAAAACo4cQEAAAAAAFDBiQsAAAAAAIAKTlwAAAAAAABUcOICAAAAAACgghMXAAAAAAAAlQjZBcLRJ598cvr06XPnzp09e/bDDz88f/78+fPnL1y4cOHCBb/fPzQ01NfXJ7uj8WJiYiIiIux2u9PpdDqdU6dOnTp16owZM6644oorrrhi5syZ06ZNk90RLKK5ubm6utrr9ba0tHR2dvb29sbGxiYkJGRmZubk5BQWFmZkZMjuKAHpWDBz8XBDxcNY2Pn444/b2trCc8flcDji4+Ox4zIJm6ZpsjtY39mzZ//2t7+99957J0+ePHny5IULF2Q3MiOn0zl79uzZs2fPnTs3Ozv7iiuukN0I+GloaDhw4MDx48fH/mcul2vt2rX5+fliWklHOhbMXDzcUPEwFi7OnDnT1NSEHdfYLt1x5eTkpKSkyG5kfThxUfnoo49qa2vr6uq8Xm97e7vsOvwkJSXl5uYuXrzY7XYnJyfLrgNm19raWl5eXltbO/FvcbvdHo8nLS2NrpV0pGPBzMXDDRUPYzE/7LhCNG3atJycHLfbvXjxYuy4iODEZbCTJ09WVla+9dZbp06dkt3FOmbNmvWpT31qxYoVs2bNkt0FzKi+vr64uLirq2uy3xgXF7dp06bCwkKKVtKRjgUzFw83VDyMxcyw46Iwe/bsq6++Gjsuw+HEZYxz58796U9/OnLkSGtrq+wuVqaq6rXXXvu5z31uxowZsruAWVRUVOzdu3d4eDi4b3c4HA888MDKlSuNbSUd6Vgwc/FwQ8XDWMwJOy4xAjuulStXTp8+XXYXK8CJKyTDw8Nvv/32H//4x7q6OkxSGJvNtnjx4htvvPHqq6+22/F+m2Gtvr5+586dQW+JAux2+6OPPrpkyRKjWklHOhbMXDzcUPEwFrPBjksKm83mdrtvuOEG7LhChBNXkHp7e1999dXf/va3586dk90lfKWkpNx888033nhjfHy87C4gQWtr63e+853u7u7Qo+Lj40tLS2fOnBl6lHSkY8HMxcMNFQ9jMRXsuMwgsOO66aabpkyZIrsLS44dO3bI7sDMhQsXnnvuuZKSkrffftuQp2MIWnd3d0NDw0svvdTX13fllVdGR0fLbgRClZaWNjc3GxI1MDDQ1tb2mc98xpA0uUjHgpmLhxsqHsZiEthxmcfFHVd/f/9VV10VFRUluxEzeH1wErq7uw8ePHjffff95je/6enpkV0H/qGnp+dXv/rVfffdd+jQIdyX8NHY2FhXV2dgYE1NTUNDg4GBUpCOBTMXDzdUPIzFDLDjMqeenp7nnnvu3nvvxY5rsnDimhBN01577bWvf/3rzz33HFaYOfX09Bw6dOi+++47fPhwiL95Dyzs27fP8MyDBw8anikY6Vgwc/FwQ8XDWOTCjsv8sOMKQoTsAgw0NDSUlZW1tLTILgLju3DhQnl5+R//+EePx5OXlye7DlBpbm4e96NIg9DU1OTz+VRVNTxZDNKx+P1+zFww3FDx8NwiF3ZcjGDHNSk4cY2lq6vr5z//+R//+Ee8vwgvp06deuSRR6655pr7779/6tSpsuuA8aqrq+mS+e6KSMfi9/vpwvnOnBRuqHh4bpEFOy6msOOaIPxW4aj+53/+5/7773/llVfw4GeqsrJyw4YNb7zxhuwiYDyv10uUfOzYMaJkAUjHgpmLhxsqHsYiBXZc3AV2XJWVlbKLmBde49LR09Pz7LPPvvLKK7KLQKg6OzuLi4sDTwR4B3krofudE5/PR5QsAOlY6F4SYT1zUrih4uG5RTDsuCyjs7OzqKjommuuwY5LF05clzt27FhpaelHH30kuwgYprKy8r333vvOd77jcrlkdwFjdHR0ECW3t7cTJQtAOha6nz2znjkp3FDx8NwiEnZc1oMd12jwW4X/5JVXXtm2bRse/NZz7ty5hx9++L/+679kFwFjDAwMECX39/cTJQtAOhbMXDzcUPEwFmGw47Iq7Lh04TWuf+jr6/vhD3+Iv/mxsOHh4Z///Od///vfv/nNb+KzkrmLiorq6+ujSGa9NkjHomkaZi4Ybqh4eG4RADsuy8OOayS8xqUoitLe3r5161Y8+MPBkSNHNm/ejB+qcZeYmEiUnJSURJQsAOlYMHPxcEPFw1ioYccVPrDjuhROXMqpU6e+853vnDhxQnYREOTvf//7Qw899MEHH8guAsHLzMwkSmb99s2kY8HMxcMNFQ9jIYUdV7jBjuuicD9x/fWvf/3ud7/74Ycfyi4CQn388cdbt26lexdgoJadnU2UnJubS5QsAOlYMHPxcEPFw1joYMcVnrDjCgjrE1dNTc2OHTt6enpkFwEJenp6tm/fXltbK7sIBGPp0qXskgUgHQtmLh5uqHgYCxHsuMIZdlxKOJ+4/vKXv+zatYvuXYnA/Pr7+x9//PG3335bdhGYtIyMDIp3nnW5XOnp6YbHCkM6FsxcPNxQ8TAWCthxAXZcYXriqq2tLSkpGRoakl0EJBsaGioqKqqurpZdBCZt/fr1hmeuWbPG8EzBSMeCmYuHGyoexmIs7LggIMx3XOF44mpoaHjiiScGBwdlFwFTGBoa2r17d5i/2M3RggUL3G63gYEFBQULFy40MFAK0rFg5uLhhoqHsRgIOy64VDjvuMLuxHXixAm8tA2XGRwcfPLJJ999913ZRWByPB5PfHy8IVFOp9Pj8RgSJR3pWDBz8XBDxcNYDIEdF4wUtjsux44dO2R3EOfs2bPbtm3r6uqSXQRMZ3h4uLq6+pprrpkyZYrsLjBRTqczKyvryJEjmqaFkmO327ds2TJv3jyjislFOhbMXDzcUPEwltBhxwWjCc8dVxiduLq6urZt23bu3DnZRcCk+vr66urqrrvuusjISNldYKJSU1OTk5NramqC3hg5HI4NGzasWLHC2GJykY4FMxcPN1Q8jCUU2HHB2MJwxxUuJy5N04qKipqammQXAVM7f/78+++//+lPf9pms8nuAhOVlZWVl5d39OjR/v7+yX6v0+l85JFHli9fTlFMLtKxYObi4YaKh7EEBzsumIhw23GFy4lr//79r776quwWwMCZM2dsNlteXp7sIjAJKSkpy5Yta2tra2trm/h3FRQUbN26dc6cOXTF5CIdC2YuHm6oeBhLELDjggkKqx2XLcTfUWbhrbfeevLJJ8Ph/ykYwmazPfroowUFBbKLwKQ1Njbu379/3J+tulyudevWhcmzvEI8FsxcPNxQ8TCWCcKOCyYlfHZc1j9xffzxx9/61rcuXLgguwhwkpCQ8PTTT0+bNk12EQiGz+erqqryer0+n6+jo6OnpycuLi4xMVFV1dzc3MLCQlVVZXeUgHQsmLl4uKHiYSxjw44LghAmO64I2QVoaZr2gx/8AA9+mKzOzs4f/OAHO3fuNPmvFzc3N1dXV3u93paWls7Ozt7e3tjY2ISEhMzMzJycnMLCwoyMDNkdJVBVVVXVVatWUYSTzpw03O/3a5qmaVrgC0VRAl8Hvgjxp2+k4XxnTop0nZPeUL5IZ84ddlwQHC47rhBZ/DWu559//tlnn5XdYnwxMTFpaWlOpzM+Pj46OjomJiY2NlZ2KSP19vb29fX19/d3dXVduHDh9OnTfX19skuN7957773ttttkt9DX0NBw4MCB48ePj/3PXC7X2rVr8/PzxbSyNtKZI9xi4XxhLBAc7LhMAjsuc7Lyiev06dPf+ta3zPnRe06nc8GCBQsWLJg1a1ZaWtr06dNlNxLto48+On369KlTpxobG48dO2bOn4rFxMT88Ic/TE1NlV3kn7S2tpaXl0/qI9vdbrfH40lLS6NrZW2kM0e4xcL5wlggaNhxmRl2XGZg2ROXpmlbt249duyY7CL/ZNasWZ/5zGfcbvfs2bOt/eLppGia9ve//722tvbPf/7zqVOnZNf5JwsXLnzsscfMc7Pq6+uLi4uD+EzJuLi4TZs2FRYWUrSyNtKZI9xi4XxhLBA00+64rrvuOrfbPWvWLPP8R1w67Lhksey7w1dUVPz+97+X3eIfEhISbrnllgceeOArX/lKTk5OUlKSVddTcGw2W1JSUk5Ozi233PKpT30qJiamra0tiM8/oXD27NnU1NQrr7xSdhFFUZSKioqSkpLgJjM4OFhZWZmcnJyVlWV4MQsjnTnCLRbOF8YCoTDtjis7OzsxMRE7rkthxyWLNU9cPT09Tz75pBl+bzUlJeUrX/nKt7/97YKCgsTERNl1GEhKSlq8ePGtt96alpZ26tSpIH7garimpqYbb7xR+sei19fXl5SUDA8PB52gadrRo0fnzp2LXwGaINKZI9xi4XxhLBAK7Lj4wo5LJGueuPbt21dfXy+3w/Tp0z0ezze+8Q2XyxURYfH3hDScw+G48sorb7nlltTU1BMnTvT29kos09fX5/f7Fy1aJLFDa2vr9u3bQ/8plKZpNTU1y5cvdzqdhhSzMNKZI9xi4XxhLBAi7Li4w45LDLvsAsY7ffr07373O4kFIiIi7rjjjr179372s591OBwSm3DncDiuv/76Z555ZtWqVXIn+eKLL545c0ZigbKysu7ubkOiurq6ysrKDImyNtKZI9xi4XxhLBAK7LgsAzsuahY8cR06dCiU344IUU5Ozo9+9KO77rorJiZGVgeLiYmJufvuu3/0ox+5XC5ZHYaGhn75y1/KunpjY2NdXZ2BgTU1NQ0NDQYGWg/pzBFusXC+MBYIEXZcFoMdFx2rnbhOnTp15MgRKZe22Wy33nrrrl270tPTpRSwNlVVn3zyydWrV9vtchbt66+/3tLSIuXS+/btMzzz4MGDhmdaCenMEW6xcL4wFggFdlxWFc47LjpWO3H94he/kPJ+99OmTXv88cfvu+8+vKhNx+FwrF69+rHHHktKShJ/db/ff+jQIfHXbW5uHvejSIPQ1NTk8/kMj7UG0pkj3GLhhscKg7FAiLDjsrDw3HGRstSJq7W19a233hJ/3YyMjKeeeiovL0/8pcNQfn7+97///dmzZ4u/9Jtvvnn69GnBF62urmaXzB3pzBFusXCiZAEwFggFdlzhINx2XKQsdeJ6/vnnxf+4Zf78+bt3754xY4bg64azadOmPfHEE7m5uYKv6/f7f/vb3wq+qNfrJUo226dVmgfpzBFusXCiZAEwFggFdlxhIqx2XKSsc+Lq7Ox8/fXXBV906dKlu3btwpvhihcfH79z587CwkLB1/3Tn/7U2dkp8op0v8qM3/wZDenMEW6xcKJkATAWCBp2XGElfHZcpKxz4qqoqBgYGBB5xby8vM2bN0dFRYm8KFwUFRX18MMPC/7QhoGBgT/96U8ir9jR0UGU3N7eTpTMHenMEW6xcKJkATAWCBp2XOEmTHZcpCxy4tI0raKiQuQV586du23bNjz45YqIiNiyZcucOXNEXvTll18W+asUdP9VC/0zT62KdOYIt1g4UbIAGAsEBzuu8BQOOy5SFjlx1dXVtbW1CbvcFVdcsX379tjYWGFXhNHExcVt3749JSVF2BXPnDnT2Ngo7HJ0/42Jjo4mSuaOdOYIt1g4UbIAGAsEBzuusGX5HRcpi5y4RL7sGBkZ+d3vfnfq1KnCrghjS0hI2Lx5c0REhLArilxviYmJRMlS3vKVBdKZI9xi4UTJAmAsEBzsuMKZtXdcpKxw4urv7xf5XrT33nuv4BdVYVzz5s275557hF3urbfeEvYr7JmZmUTJqqoSJXNHOnOEWyycKFkAjAWCgB0XWHjHRcoKJ67q6uq+vj4x11qxYsXNN98s5lowKZ///OeXLVsm5lq9vb01NTVirpWdnU2ULP7NXrkgnTnCLRZOlCwAxgJBwI4LFOvuuEhZ4cRVWVkp5kLx8fEej0fMtSAIX//61+Pi4sRc64033hBzoaVLl7JL5o505gi3WDhRsgAYCwQBOy4IsOSOixT7E9fw8HBdXZ2Ya9111110v/gOoUtKSlq3bp2Ya9XV1Q0PDwu4UEZGhsvlMjzW5XKlp6cbHmsNpDNHuMXCDY8VBmOBycKOCy6y5I6LFPsTl9fr7enpEXAhl8t1ww03CLgQhOKWW26ZO3eugAt1dXUdP35cwIUURVm/fr3hmWvWrDE800pIZ45wi4XzhbHApGDHBZey5I6LDvsT19GjR8VcaP369TabTcy1IGg2m+2uu+4Scy1ha2/BggVut9vAwIKCgoULFxoYaD2kM0e4xcL5wlhgUrDjgktZcsdFh/2J65133hFwlezs7AULFgi4EIQuPz9fzN9ti/yMCI/HEx8fb0iU0+nEL8dPBOnMEW6xcL4wFpg47LjgMpbccRHhfeLq6+s7efKkgAt95StfEXAVMMqXvvQlAVc5ceJEf3+/gAspipKWlrZ582aHwxFijt1u37hxY2pqqiGtrI105gi3WDhfGAtMEHZcoMt6Oy4ivE9cx48fF/C3dHPnzsWvSfDidrsFfILH8PDwu+++S32VixYtWvTAAw+EsjFyOBwbNmxYsmSJga2sjXTmCLdYOF8YC0wEdlygy5I7LgqOHTt2yO4QvD//+c8CXmf8l3/5FzF/GggGGhoaEvABDmlpaSI/eSYrKysvL+/o0aNB/KTH6XQ+8sgjy5cvpyhmYaQzR7jFwvnCWGBc2HHBaCy54zIc7xPX4cOHfT4f6SWioqL+7d/+LSoqivQqYLiZM2cePnzY7/eTXsXpdK5YsYL0EpdJSUlZtmxZW1tbW1vbxL+roKBg69atAn4KZUmkM0e4xcL5wlhgbNhxwWisuuMylk3TNNkdgufxeM6cOUN6iWuvvfahhx4ivQQQKSoqov6sxvT09GeeeYb0EqNpbGzcv39/U1PT2P/M5XKtW7cuLy9PTCtrI505wi0WzhfGArqw44IxWHvHZQjGJ67e3t4777yTuv/DDz+8bNky0ksAkTfeeKO4uJj0Ejab7bnnnouJiSG9yhh8Pl9VVZXX6/X5fB0dHT09PXFxcYmJiaqq5ubmFhYWqqoqq5tVkc4c4RYL5wtjgUthxwVjC4cdV4giZBcIXmtrK/WD3263m+gtSv2Dw2fqhlv/4v/4Xa39hL/rjDLUo/V1yC1li0lUIuLs8TNtSVn25PmO9GWO1EWKPVJuq4D8/HybjfZnCpqmnT59+qqrrqK7xNhUVVVVddWqVRThzc3N1dXVXq+3paWls7Ozt7c3NjY2ISEhMzMzJyensLAwIyMjDMNJZ+73+zVN0zQt8IWiKIGvA1+EuJhJm/MNJ50533WOscClsOPCjmts4bDjChHj17gqKyuLiopILzFnzpz/+I//IL3E+PyDQydfG/rbr4b//qo2KOKz3kNki4xzXHVDhOtLEbOvk/5E8OCDD37wwQekl7Dkz+QaGhoOHDgw7ke8u1yutWvX5ufnh0k4Kb7N+eK7FBEuPjzMYcdlTthxMcL4xPXf//3fP/vZz0gvcccddwj7OO2RtMGeob8eGKjZq11oldUhFLa4GZH5d0cuud8W5ZTV4dlnn33++edJL3HPPffcfvvtpJcQqbW1tby8vLa2duLf4na7PR5PWlqahcNJ8W3OF9+liHDx4aBgx2V62HGZH+P3Knz99ddPnDhBeonbb79d0q8faIPHftn32zVD7/1OGbggo4ARBnuGfW8OHfuFPW66fUauotjEV+jp6aH+U860tLSCggLSSwhTX1+/Y8eOU6dOTeq72traXnvttVmzZqWnp1synBTf5nzxXYoIFx8OAdhxmR12XKbH+MT16quvUr9R6erVqxMSEkgvMZK/s7nvt2sG6/9fhcMr2uMb7Bl6/w/DLW9EZKywRYsepqZpL730EuklUlJSWL9d6UUVFRUlJSXBfab74OBgZWVlcnJyVlaWxcJJ8W3OF9+liHDx4XARdlw8YMdlYnbZBYJ3/vx50nyHw5Gamkp6iZGG3vtd78Hrhk9XCb4uteHWv/Qc/OzQ+38QfN20tDS7nXaRU69DMerr6/fu3Ts8PBx0wvDw8J49e3Q/A5FvOCm+zfniuxQRbrGHPzvYcTGCHZc54cQ1qtTU1MhIoX+GOFhX1vf7r2n9jNfTGLS+jr4X7x6o/qHIi0ZGRqakpJBegvXjP6C1tbWoqCiUXUuA3+8vLS297ONT+YaT4tucL75LEeEWe/hzhB0XL9hxmRDjE1dXVxdpfnJyMmn+ZQbe+F7/648oGu0ndsumDbzxvYHKXSIvOWPGDNJ86nUoQFlZWXd3tyFRXV1dZWVl1ggnxbc5X3yXIsLFh8NlsONiCDsuc2F84hocHCTNj42NJc2/1MDb3xf8owiJBqp+IPL/LPV9HBgYIM2n1tjYWFdXZ2BgTU1NQ0MD93BSfJvzxXcpIlx8OIyEHRdT2HGZB05coxL2+B9q+q+BN58Qcy2TGHjj8aHjL4i5VlxcHGk+9Tqktm/fPsMzDx48yD2cFN/mfPFdiggXHw4jYcfFF3ZcJhEhu0DwhoaGSPPFPP797e/3/+k7Ai5kMlp/xYP2GTn2afOor0R9H1k//pubm8f9tNAgNDU1+Xw+v9/PNFxVVcOTLyKdOWlzvrDOET7xcDyIdGHHxRl2XKbA+MQV+t/Lji06Opo0X1EUxT/U94f7tAHGv5YaNG2wu+/lDXGrX1ZsDtILUd9H6nVIqrq6mi7Z76f6FXnqcNItF+nMsVnUhXWO8ImH40GkCzsu1rDjMgPGv1VoAYN15f5zjbJbSOM/Wz/Y8KzsFmHN6/USJR87doxvOFFyAN/mfPFdiggXH06UDNJhx4Udl1yMX+PiTuv9ZOCtYtktJBt488kI1/9ji0mUXSRMtbS0ECUHfvOHaThRcgDpzImSucM6R/jEw4mSQS7suBTsuGTDa1zSDNb9Z3i+un0prf/8YB3ek1eajo4OouT29na+4UTJAXyb88V3KSJcfDhRMsiFHZeCHZdsOHHJoQ12D9b/f7JbmMJgXZk22CO7RZiie6PV/v5+vuFEyQF8m/PFdykiXHw4UTJIhB3XRdhxSYQTlxxD7x626iedT5bW3zl84veyW4SpqKgoouTo6Gi+4UTJAXyb88V3KSJcfDhRMkiEHddF2HFJhBOXHEN/e052BRMZ9GIaciQmUv0+d1JSEt9wouQAvs354rsUES4+nCgZJMKO61LYccmCE5cE2kDXcOvbsluYyLCvEr9gLUVmZiZRsqqqfMOJkgP4NueL71JEuPhwomSQBTuuy2DHJQtOXBIM+yoVP+MPcTOef8h/Gk+IEmRnZxMl5+bm8g0nSg7g25wvvksR4eLDiZJBFuy4LocdlyQ4cUngbzsqu4LpDOPxL8PSpUvpkvmGEyVT51M354vvUkS4+HCiZJAFO66RsOOSAicuCfwfvyu7gun4P3lPdoVwlJGR4XK5DI91uVzp6el8ww2PvRTf5nzxXYoIFx9ueCzIhR3XSNhxSYETlwT+jvdlVzAd/yeYiRzr1683PHPNmjXcw0nxbc4X36WIcPHhYCXYcY2EHZcUOHFJoPV+LLuC6Wh9mIkcCxYscLvdBgYWFBQsXLiQezgpvs354rsUES4+HKwEO66RsOOSAicuCfAuMTowE3k8Hk98fLwhUU6n0+PxWCOcFN/mfPFdiggXHw6WgR2XDsxEBpy4ZBjCp9pfThvslV0hfKWlpW3evNnhcISYY7fbN27cmJqaao1wUnyb88V3KSLcYg9/EAo7rhGw45ICJy4pNNkFTAgzkWnRokUPPPBAKHsXh8OxYcOGJUuWWCmcFN/mfPFdigi32MMfBMLuYiTMRIII2QUAwBRWrlyZlpa2e/fuzs7OyX6v0+ncvHnzGH8FwTecFN/mfPFdiggXHw4AYBS8xgUA/5Cbm1tcXDzZH/cWFBSUlpaOu2vhG06Kb3O++C5FhIsPBwAwhE3TuL62eNttt5Hm33777ffccw9Fctf3Z1DEchf/7Q8pYn/605++8MILFMkXvfjii6T54jU2Nu7fv7+pqWnsf+ZyudatW5eXlxcm4aT4NueL71JEuPjwMIcdl8VgxyUeTlyjwuNfMDz+zcbn81VVVXm9Xp/P19HR0dPTExcXl5iYqKpqbm5uYWGhqqphGE6Kb3O++C5FhLP/PFAAACAASURBVIsPD1vYcVkMdlzi4e+4AECfqqqqqq5atYoi3O/3a5qmaVrgC0VRAl8HvgjxJ0Gk4c3NzdXV1V6vt6WlpbOzs7e3NzY2NiEhITMzMycnp7CwMCMjI+hw0pmTNueLdOYIt1g46YMIj1AAC8OJCwCEamhoOHDgwPHjxy/733t7e3t7e8+cOVNVVfWzn/3M5XKtXbs2Pz8/TMJJ8W0OYBJ4bgGAUODEBQCCtLa2lpeX19bWTuQfNzU1bdu2ze12ezyetLQ0C4eT4tscwCTw3AIAocN7FQKACPX19Q899NAENxYX1dbWbty4sbq62qrhpPg2BzAJPLcAgCFw4gIAchUVFTt37uzq6grie3t6ep544omKigrrhZPi2xzAJPDcAgBGwYkLAGjV19fv3bt3eHg46ITh4eE9e/bU1NRYKZwU3+YAJoHnFgAwEE5cAECotbW1qKgolI1FgN/vLy0tbWtrs0Y4Kb7NAUwCzy0AYCycuACAUFlZWXd3tyFRXV1dZWVl1ggnxbc5gEnguQUAjIUTFwBQaWxsrKurMzCwpqamoaGBezgpvs0BTALPLQBgOJy4AIDKvn37DM88ePAg93BSfJsDmASeWwDAcDhxAQCJ5ubmkR/oGbqmpiafz8c33PDYS/FtDmASeG4BAAr4BGQAIEH3cTHV1dV+v59puKqqROEK8cxJmwOYBN8nLjxCAcwMr3EBAAmv10uUfOzYMb7hRMkBfJsDmASeWwCAAl7jAgASLS0tRMk+n4/uR8XU4UTJAaQzJ0oGMBW+T1xEyQBgCJy4AIBER0cHUXJ7e7umaUzDiZIDSGdOlAxgKnyfuIiSAcAQOHEBAImBgQGi5P7+fqJk1uEK25kDmAfTBxEeoQAmh7/jAgASUVFRRMnR0dF8w4mSA/g2BzAJPLcAAAWcuACARGJiIlFyUlIS33Ci5AC+zQFMAs8tAEABJy4AIJGZmUmUrKoq33Ci5AC+zQFMAs8tAEABJy4AIJGdnU2UnJubyzecKDmAb3MAk8BzCwBQwIkLAEgsXbqULplvOFEydT51cwCTwHMLAFDAiQsASGRkZLhcLsNjXS5Xeno633DDYy/FtzmASeC5BQAo4MQFAFTWr19veOaaNWu4h5Pi2xzAJPDcAgCGw4kLAKgsWLDA7XYbGFhQULBw4ULu4aT4NgcwCTy3AIDhcOICAEIejyc+Pt6QKKfT6fF4rBFOim9zAJPAcwsAGAsnLgAglJaWtnnzZofDEWKO3W7fuHFjamqqNcJJ8W0OYBJ4bgEAY+HEBQC0Fi1a9MADD4SyvXA4HBs2bFiyZImVwknxbQ5gEnhuAQADRcguAADWt3LlyrS0tN27d3d2dk72e51O5+bNm8f4QwW+4aT4NgcwCTy3AIBR8BoXAIiQm5tbXFw82Z/IFhQUlJaWjrux4BtOim9zAJPAcwsAGAKvcQGAIDNnzty+fXtjY+P+/fubmprG/scul2vdunV5eXmWDyfFtzmASeC5BQBChxMXAAiVl5dXXFzs8/mqqqq8Xq/P5+vo6Ojp6YmLi0tMTFRVNTc3t7CwUFXVsAonxbc5gEnguQUAQoETFwDoa25urq6u9nq9LS0tnZ2dvb29sbGxCQkJmZmZOTk5hYWFGRkZQYerqqqq6qpVqwwsbIFwvjMnRToW0EU6c743lPRB5Pf7NU3TNC3whaIoga8DXwT+FwBgCicuALhcQ0PDgQMHjh8/ftn/3tvb29vbe+bMmaqqqp/97Gcul2vt2rX5+flSSloMZq4LYxGPdOa4obowFgDLw4kLAP5Xa2treXl5bW3tRP5xU1PTtm3b3G63x+NJS0uj7mZVmLkujEU80pnjhurCWADCBN6rEAD+ob6+/qGHHprgf/svqq2t3bhxY3V1NVEra8PMdWEs4pHOHDdUF8YCED5w4gIARVGUioqKnTt3dnV1BfG9PT09TzzxREVFheGtrA0z14WxiEc6c9xQXRgLQFjBiUsKm+wCAP+kvr5+7969w8PDQScMDw/v2bOnpqbGwFbWhpnrwljEI505bqgujAWkwi5UApy4ZIiIkd0A4H+1trYWFRWF8t/+AL/fX1pa2tbWZkgra8PMdWEs4pHOHDdUF8YCctkiY2VXCEc4cUlgi5oiuwLA/yorK+vu7jYkqqurq6yszJAoa8PMdWEs4pHOHDdUF8YCkkU5ZTcIRzhxSWCLnS67AsA/NDY21tXVGRhYU1PT0NBgYKD1YOa6MBbxSGeOG6oLYwHpbLHTZFcIRzhxSWBPmiO7AsA/7Nu3z/DMgwcPGp5pJZi5LoxFPNKZ44bqwlhAOvu0ubIrhCOcuCSwJ2Otgyk0NzeP/MzN0DU1Nfl8PsNjrQEz14WxiEc6c9xQXRgLmIE9CbtQCXDiksAxc6nsCgCKoih0n+iCz4oZDWauC2MRj3TmuKG6MBYwA0f61bIrhCOcuCSwq8sUe6TsFgCK1+slSj527BhRMneYuS6MRTzSmeOG6sJYQD5HlD0NJy4JcOKSwBY5xZFxjewWAEpLSwtRMn7FZTSYuS6MRTzSmeOG6sJYQDpHxgpbZJzsFuEIJy45IrO/LLsCgNLR0UGU3N7eTpTMHWauC2MRj3TmuKG6MBaQLjLnTtkVwhROXHJEzP28LSZRdgsIdwMDA0TJ/f39RMncYea6MBbxSGeOG6oLYwG5bDHTIrJult0iTOHEJUlEbORij+wSEO6ioqKIkqOjo4mSucPMdWEs4pHOHDdUF8YCckW6v65ExMhuEaZw4pImctF9tugE2S0grCUmUr3QmpSURJTMHWauC2MRj3TmuKG6MBaQyBaTFLn4XtktwhdOXNLYYhKjrnlYdgsIa5mZmUTJqqoSJXOHmevCWMQjnTluqC6MBSSKWrHNFuWU3SJ84cQlU2T+Vx2pbtktIHxlZ2cTJefm5hIlc4eZ68JYxCOdOW6oLowFZHGkFUYuWCu7RVhjfOJyOByk+SL+DtVmj775P23RU8kvBKBn6VKqD+OmS+YOM9eFsYhHOnPcUF0YC0hhi06IvukZxUa+5+/r6yPNj4iIIM0nxfjEFRlJ+yHCvb29pPkB9sQro294WlFsAq4FcJmMjAyXy2V4rMvlSk9PNzzWGjBzXRiLeKQzxw3VhbGABDZ79I0/tifMEnAp6p0zTlxyUM9dzIlLUZSIOZ+P/uyTYq4FcJn169cbnrlmzRrDM60EM9eFsYhHOnPcUF0YCwgW/X8ei8i6Scy1enp6SPOpX2shxfjERfcuqwHU6+ZSkQu/FrV8i7DLAVy0YMECt9vIPyYsKChYuHChgYHWg5nrwljEI505bqgujAVEilq+NdL9r8IuR/1aBetPQWB84nI6ad9x5cMPPyTNv0zU1Zuib3hasTN+wRSY8ng88fHxhkQ5nU6PBx80Nz7MXBfGIh7pzHFDdWEsIILNEf3Z4qirvy3ymufOnSPNp975k2J84po6lfYNJ86ePUv38fC6InO/EvuFA7bYZJEXBUhLS9u8eXPob0Vjt9s3btyYmppqSCtrw8x1YSzikc4cN1QXxgLUbHHTY794KHLhV0VedGBggPq1CuqdPymcuEalaVpbWxvpJUZyzL4+bu3rjlnXCb4uhLlFixY98MADoewAHA7Hhg0blixZYmAra8PMdWEs4pHOHDdUF8YCdByzr49b+2fxO0mfz6dpGuklWJ+4GP8OG91nt1/k8/lmzRLx7i6XssWnxq761dB7h/v//O/aBZ/gq0PYWrlyZVpa2u7duzs7Oyf7vU6nc/PmzfhbgsnCzHVhLOKRzhw3VBfGAoazTc2I/vRjEXM+L+Xqra2t1JcQsPOnw/g1rpSUFOpLHD9+nPoSo4mYe+uUr74dc+OP7UlzZHWAcJObm1tcXDzZH5oWFBSUlpbiv/3Bwcx1YSzikc4cN1QXxgJGsSdkRn9m15S7/iLruKUoSlNTE/UlrrjiCupL0GH8GpeAuTc0NFBfYiyOqIicf4nI/tKw782hv/1q6INXtN5PZPaBMDBz5szt27c3Njbu379/3GdPl8u1bt26vLw8Md2sCjPXhbGIRzpz3FBdGAuEwhabHJF1U0T2lxzpywR8wPHYBOyZWZ+4bNS/c0nn/fff//a3ad+DxWaz7du3LyEhgfQqE6X5/R83Dfve9H/yrr/9fe1CqzbYrQyN9fHe2lC/MiToU8VCF/9tkj+4/OlPf/rCCy9QJF/04osvkubL4vP5qqqqvF6vz+fr6Ojo6emJi4tLTExUVTU3N7ewsFBVVdkdrQYz14WxiEc6c9xQXWYey2233Uaaf/vtt99zzz0UyV3fn0ERSyIi1hYx5rufR8TYIqfYnOn2pCz7tHkO9Rr7dJei2ET1G0t7e/vdd99NfaZ4+umnr7zyStJL0GH8Gpeqqna73e/3011C07R33nnn2muvpbvEJNjs9uk59uk5snuAiTQ3N1dXV3u93paWls7Ozt7e3tjY2ISEhMzMzJycnMLCwoyMjKDDVVVVVXXVqlUGFoaxkc6cdLWQhvv9fk3TNE0LfKEoSuDrwBch/jee71hIkc6c7w0lhadcCkQ/zIXLNDQ0UB+37HZ7eno66SVIMX6NS1GU+++/n/oP9ZYtW/bwww+TXgJIWfU1roaGhgMHDoz7p4Yul2vt2rX5+fliWoE5ka4WhIsPJ8V3LHxnbn58X+MCMR5//PGqqirSS2RkZOzZs4f0EqR4n7iKiooqKytJLxEREfHss8+a5RcLYfKsd+JqbW0tLy+vra2d+Le43W6Px5OWlkbXCsyJdLUgXHw4Kb5j4TtzLnDigjF0dnbefffdw8PDpFe59tprH3roIdJLkHLs2LFDdofgtbW1vfPOO6SX8Pv906dPnz9/PulVgE5dXR31++esXr2aNP9S9fX1O3bsOHXq1KS+q62t7bXXXps1axbrV+RhskhXC8LFh5PiOxa+M2fk0KFDpPkul2vx4sWklwA6r7zySk1NDfVVrrvuupwcxn9Zw/vE5ff7X3vtNeqrfPLJJzfddJPNZoq/TYTJstKJq6KioqSkpL+/P4jvHRwcrKysTE5OzsrKMrwYmBDpakG4+HBSfMfCd+a84MQFo9E0bc+ePUF8rNxk3XnnnQI+F4oO48/jUhRl/vz5ERHkb/5x8uRJAWd3gLHV19fv3bs3lFfth4eH9+zZg8UcDkhXC8LFh5PiOxa+MwewjKqqqsm+whyEyMjIuXPnUl+FFO8TV1RU1FVXXSXgQr/4xS9Y/8EbcNfa2lpUVBT6L0n7/f7S0tK2tjZDWoE5ka4WhIsPJ8V3LHxnDmAlv/rVrwRcZe7cuVFRUQIuRIf3iUtRFDEfu37ixIm6ujoBFwLQVVZW1t3dbUhUV1dXWVmZIVFgTqSrBeHiw0nxHQvfmQNYRnV19XvvvSfgQmJ2+6TYn7iWLFki5kL79u2jfhsWAF2NjY3GHvhramoEfDY8SEG6WhAuPpwU37HwnTmAZQwPD+/bt0/MtYTt9umwP3G5XC6n0yngQh988MHvfvc7ARcCuAzFM9rBgwcNzwQzIF0tCBcfTorvWPjOHMAyXnjhBQF/waUoytSpU7n/EZdigROX3W4X9v42Bw8e/Oijj8RcCyCgubl53A/0DEJTU5PP5zM8FuQiXS0IFx9ueOyl+I6F78wBLOPcuXO//OUvxVxryZIlFnjDcPI3+hNgxYoVR44cEXChvr6+Z555Ztu2bRa48cBFdXU1XbKqqkThIAXpavH7/QgXHE76CMVq0Q3HsyLAuDRN27t3b3CfyhCEFStWiLkQKfavcSmKsmTJkri4ODHXqq6ufv7558VcC0BRFK/XS5R87NgxomSQhXS1IFx8OFFyAN+x8J05gDX8+te/rq2tFXOt+Ph4a3xWmxVe44qMjPzUpz4l4KOQA/bv3z9//vzc3Fwxl4Mw19LSQpSM35+xHtLVQvfCAsJHCydKDsBq0Q0nSgawjMbGxl/84hfCLrds2TIBH70rgBVe41IU5frrrxd2reHh4aeeeuqTTz4RdkUIZx0dHUTJ7e3tRMkgC+lqQbj4cKLkAL5j4TtzAO4++uijkpISup96jPS5z31O2LVIWeTElZeXl5GRIexyn3zyyb//+79fuHBB2BUhbA0MDBAlC/sNbBCGdLUgXHw4UXIA37HwnTkAa+fPn9++fbvIH0xkZGS4XC5hlyNlkROXoigrV64Uebnm5uadO3f29fWJvCiEIboPWY+OjiZKBllIVwvCxYcTJQfwHQvfmQPw1d/f//jjj9P9NrKum266yTJvVmedE9f1118fExMj8orvvvvurl27cOgCUomJiUTJSUlJRMkgC+lqQbj4cKLkAL5j4TtzAKb6+voee+yxpqYmkReNiYm57rrrRF6RlHVOXE6nU/zvejY0NGzdupXud8oBMjMziZLxJsjWQ7paEC4+nCg5gO9Y+M4cgKP29vatW7c2NjYKvu5NN90UHx8v+KJ0rHPiUhTl9ttvdzgcgi964sSJhx56qLW1VfB1IUxkZ2cTJeP9Nq2HdLUgXHw4UXIA37HwnTkAO2fOnNmyZcuJEycEX9fhcNx6662CL0rKUieulJQUKZ+Sdvbs2c2bN1dVVYm/NFje0qVL2SWDLKSrBeHiw4mSqfMxcwBreOuttzZt2tTW1ib+0p/+9KdnzJgh/rp0LHXiUhRl9erV4l/mUhTlwoULu3btKi8vHxwcFH91sDCiN+pxuVzp6emGx4JcpKsF4eLDDY+9FN+x8J05ABeDg4Pl5eVPPvmklPfldjgcd955p/jrkrLaiSstLU3Wn9lpmnb48OHNmzd/8MEHUgqAVa1fv97wzDVr1hieCWZAuloQLj6cFN+x8J05gPkF/l7m8OHDmqZJKbBy5crU1FQpl6ZjtROXoih33nkn3VvHjuv999/fuHHjM888g0/rAqMsWLDA7XYbGFhQULBw4UIDA8E8SFcLwsWHk+I7Fr4zBzCzCxcu7N27d9OmTRJfPIiKivryl78s6+p0LHjiSklJ+cIXviCxgN/vf+mll+6///7f//73dB/UCGHF4/EY9Y49TqfT4/EYEgXmRLpaEC4+nBTfsfCdOYAJ9ff3Hz58+Otf//rLL78s66WtgDvuuGP69OkSCxCx4IlLUZQvf/nL0v/e7vz58z/5yU++9rWvHTp0qKurS24Z4C4tLW3z5s2h/42i3W7fuHGj9V6sh0uRrhaEiw8nxXcsfGcOYCq9vb2HDx/2eDzl5eXSfz9r+vTpX/ziF+V2IOLYsWOH7A7Gi4iISExM/Mtf/iK7iNLf3//Xv/71pZde+vDDD6dMmTJ9+nTLfHg2F3V1ddSf2bd69WrS/IDU1NTk5OSampqgf/jkcDg2bNgg5f08QTDS1YJw8eGk+I6F78zZOXToEGm+y+VavHgx6SXgMpqmeb3e3/zmNz/84Q/ffvvtvr4+2Y0URVG++c1vXnXVVbJbkLDmiUtRlNmzZx8/flzKO1qONDg4eOLEiVdfffW1117r7OyMiIiYNm2a3W7NFxjNxjInLkVRsrKy8vLyjh492t/fP9nvdTqdjzzyyPLlyymKgQmRrhaEiw8nxXcsfGfOC05cljE0NPS3v/3t5Zdf/vGPf/ziiy+eOHHCPG+yvXTp0rVr18puQcUm95c1SX344Yff+MY3ent7ZRfRER0d7XK58vLyZs+enZ6enpqaKuVN7cPBT3/60xdeeIH0Ei+++CJp/mXa2trKyspqamom/i0FBQUejwe/NhOGSFcLwsWHk+I7Fr4z5+K2224jzb/99tvvuece0kuEraGhobNnz/p8vpMnT/71r39tamoK4scTAsTFxe3Zsyc5OVl2ESpWPnEpivKHP/zhP//zP2W3GJ/D4UhJSUlISIiJiZkyZUpsbGwYHsBsNtuUKVMMj33nnXfee+89w2MvJfjEFdDY2Lh///5xX75zuVzr1q3Ly8sT0wrMiXS1IFx8OCm+Y+E7c/OjPnHNnTs3Pz/f8Nju7m5r73J1DQ8P9/b2dnd39/X1dXZ2njt3bnh4WHap8W3YsOHGG2+U3YKQxU9cmqbt2rWrqqpKdhGwMiknrgCfz1dVVeX1en0+X0dHR09PT1xcXGJioqqqubm5hYWFqqrK6gZmQ7paEC4+nBTfsfCduZlRn7ggzBUUFDz66KPWfqeDCNkFaNlstm9+85vf+ta32tvbZXcBMJ7f79c0TdO0wBeKogS+Dnxh5p+nNDc3V1dXe73elpaWzs7O3t7e2NjYhISEzMzMnJycwsLCjIwM2R318W1OulpUVVVVddWqVcZ0/WdoLh5mLh7f5xaAUCQnJz/44IPWPm4pln+NK6Curm7Hjh3h8P8UpJDyGldDQ8OBAweOHz8+9j9zuVxr166l+G2NoKG5eGguHpqLh+Z08BoXELHb7d/73vfC4bd8w+LEpSjKr3/96/3798tuAdYk+MTV2tpaXl5eW1s78W9xu90ejyctLY2u1USguXhoLh6ai4fm1HDiAiL33HPP7bffLruFCOFy4tI07amnnnrjjTdkFwELEnniqq+vLy4uDuIztePi4jZt2lRYWEjRaiLQXDw0Fw/NxUNzAXDiAgrLli3bsmWL5X+fMMCyn8d1GZvN5na7a2tr8QddYDhhn8dVUVFRUlIS3Pu6Dg4OVlZWJicnZ2VlGV5sXGhueLFxobnhxcaF5oYXGxeaG15MF/XncUEYmjNnzrZt2yIjI2UXESRcTlyKokRGRi5duvTNN9/s7u6W3QUsRcyJq76+vqSkJJT3eNU07ejRo3PnzhX86yhojuYTh+ZoPnFoLqw5TlxgrJSUlMcff9zpdMouIo5ddgGhpk2b9uijj8bFxckuAjA5ra2tRUVFoX+kht/vLy0tbWtrM6TVRKA5mk8cmqP5xKG5+OYAhoiPj9++fXtSUpLsIkKF14lLUZRZs2bt2LEjNjZWdhGASSgrKzPqtdmurq6ysjJDoiYCzRU0nzA0V9B8wtBcEd4cIHQxMTHbtm0Lw486CLsTl6IoLpdr+/btMTExsosATEhjY2NdXZ2BgTU1NQ0NDQYGjgbNL0LzcaH5RWg+LjS/SFhzgNBFRUU9+uijOTk5sotIEI4nLkVRcnJytmzZEhUVJbsIwPj27dtneObBgwcNzxwJzS+F5mND80uh+djQ/FJimgOEKDo6etu2beHw0Vu6wvTEpSiK2+3euXMn/qYLTK65uXncj8UMQlNTk8/nMzz2Umh+GTQfA5pfBs3HgOaXEdAcIEQxMTGPPvrookWLZBeRJnxPXIqi5Obmfu973wurd0oBdqqrq9klU+ejufh8NBefj+bi89EcgEJCQsKTTz6Zn58vu4hMYX3iUhRl7ty5paWl6enpsosA6PN6vUTJx44dI0oOQPOR0Hw0aD4Smo8GzUeibg4QtJkzZ+7evVvKp96ZSrifuBRFSU1NLS4uXrBggewiADpaWlqIkql/CwXNR0Lz0aD5SGg+GjQfCb9VCOaUnZ1dXFyMFzYUnLgCnE7nzp07b7jhBtlFAC7X0dFBlNze3k6UHIDmI6H5aNB8JDQfDZqPRN0cIAg333zzrl27EhISZBcxhQjZBcwiMjLyG9/4Rm5u7t69e/v7+2XXAfiHgYEBomTqdY7mI6H5aNB8JDQfDZqPhH0LmEpUVNS//uu/rly5UnYRE8FrXP/kuuuu2717N179BPOg+wyD6OhoouQANB8JzUeD5iOh+WjQfCTq5gATl5GRUVJSguPWZXDiulxWVtbTTz9966232mw22V0AlMTERKLkpKQkouQANB8JzUeD5iOh+WjQfCTq5gATYbPZbrzxxtLS0tmzZ8vuYjo4cemIioq67777Hn300enTp8vuAuEuMzOTKFlVVaLkADQfCc1Hg+Yjoflo0Hwk6uYA45oxY8b27ds3bNgQExMju4sZ4cQ1qoKCgmeeeeaOO+6w2zElkCY7O5soOTc3lyg5AM1HQvPRoPlIaD4aNB+JujnAGAIvbf34xz92u92yu5gXzhJjiY6Ovuuuu4qLi+fNmye7C4SppUuXskumzkdz8floLj4fzcXnoznAZLlcrtLS0g0bNsTGxsruYmo4cY1v3rx5Tz311He/+92UlBTZXSDsZGRkuFwuw2NdLhf1O8Sg+WXQfAxofhk0HwOaX0ZAc4CRkpOTH3zwwaKiojlz5sjuwgBOXBNis9muueaaPXv2fPWrX8UHC4Bg69evNzxzzZo1hmeOhOaXQvOxofml0HxsaH4pMc0BLkpMTPza1772k5/85LOf/SzeZ26CcOKahOjo6C9+8Yvl5eV33XUXzl0gzIIFC4z93eiCgoKFCxcaGDgaNL8IzceF5heh+bjQ/CJhzQEURUlKSrr77rvLysq+8IUv0H3agSXhxDVpMTExd9xxx7PPPvvggw/Sve8QwKU8Hk98fLwhUU6n0+PxGBI1EWiuoPmEobmC5hOG5orw5hDO0tLS7rvvvvLy8lWrVuHdCIPg2LFjh+wOLNnt9iuvvPLmm2/Ozs4eHBxsa2vz+/2yS4Ecq1evpr6E0+nMyso6cuSIpmmh5Njt9i1btoh8Jxg0R/OJQ3M0nzg0F9n80KFDAq4CJhQZGXnNNdfce++9X/va1+bPn+9wOGQ34gonrpDYbLaZM2euWLHi5ptvnjZtWldX1yeffCK7FIgm4MSlKEpqampycnJNTU3Q/5F2OBwbNmxYsWKFscXGheZoPnFojuYTh+bCmuPEFW5sNtv8+fNXrVr14IMPXnfddampqfh7rRDZQvwRC1zm3Llzb7zxxltvvfXuu+/iVa8w8eKLLwq71rFjx3bv3t3Z2TnZb3Q6nZs3b5b46/5oLh6ai4fm4qG5ALfddpuwa4FEDodj/vz5V1999TXXXIM36DYWTlxUurq6Ghoa6urqvF6vz+eTXQcIiTxxKYrS1tZWVlZWU1Mz8W8pKCjweDypqal0rSYCzcVDc/HQXDw0p4YTl4XZdL9mqwAAIABJREFUbLb09PScnJzFixcvWrRoypQpshtZE05cIpw/f76pqendd989efLkqVOnzp49K7sRGEnwiSugsbFx//79TU1NY/8zl8u1bt26vLw8Ma0mAs3FQ3Px0Fw8NKeDE5eV2Gy2lJSUWbNmzZ49e968eS6Xa+rUqbJLWR9OXBL09PScOXPm7Nmz586dO3fu3Pnz5y9cuHD+/Pmuri5N07q7uwV06O7uxq03ipQTV4DP56uqqgq8jtrR0dHT0xMXF5eYmKiqam5ubmFhoaqqsrqNDc3FQ3Px0Fw8NKeAE5dRbDabmBeRpkyZYrPZnP+/qVOnpqSkpKSkXHHFFTNnzoyNjRXQAS4VIbtAOIqLi7vqqquuuuoq2UWAPb/fr2mapmmBLxRFCXwd+CLEQ3Vzc3N1dbXX621paens7Ozt7Y2NjU1ISMjMzMzJySksLMzIyAg6XFVVVVVXrVoVSkMpSGdOinTmpKsFM9fFd+Z8n1v4Ng+RxB8sAlgDXuMCYKmhoeHAgQPHjx8f+5+5XK61a9fm5+ebJ5wvjEUXlqJ4fGfO94bybQ4AZoATFwAzra2t5eXltbW1E/8Wt9vt8XjS0tLkhvOFsejCUhSP78z53lC+zQHAPHDiAuCkvr6+uLi4q6trst8YFxe3adOmwsJCWeF8YSy6sBTF4ztzvjeUb3MAMBV8AjIAGxUVFSUlJf39/UF87+DgYGVlZXJyclZWlvhwvjAWXViK4vGdOd8byrc5AJgNTlwAPNTX15eUlAwPDwedoGna0aNH586dO/J3XUjD+cJYdGEpisd35nxvKN/mAGBCdtkFAGB8ra2tRUVFofy3P8Dv95eWlra1tQkL5wtj0YWlKB7fmfO9oXybA4A54cQFwEBZWZlRH9TW1dVVVlYmLJwvjEUXlqJ4fGfO94bybQ4A5oQTF4DZNTY21tXVGRhYU1PT0NAgIJwvjEUXlqJ4fGfO94bybQ4ApoUTF4DZ7du3z/DMgwcPCgjnC2PRhaUoHt+Z872hfJsDgGnhxAVgas3NzeN+5mYQmpqafD4fabjhscJgLLqwFMXjO3O+N5RvcwAwswjZBQBgLNXV1XTJfr+fLlxVVaJwaqQzx1h0k7EUdfGdOd8bioc/AFDAa1wApub1eomSjx07RhpOlCwAxqILS1E8vjPne0P5NgcAM8NrXACm1tLSQpTs8/nofg7N+vdnSGdOlCwAlqJ4fGfO94bi4Q8AFHDiAjC1jo4OouT29nZN0+jCiZIFIJ05UbIAWIri8Z053xuKhz8AUMCJC8DUBgYGiJL7+/uJkqnDqTGdOTWmY8HMdfGdOfUNZTpzADA5/B0XgKlFRUURJUdHR5OGEyULgLHowlIUj+/M+d5Qvs0BwMxw4gIwtcTERKLkpKQk0nCiZAEwFl1YiuLxnTnfG8q3OQCYGU5cAKaWmZlJlKyqKmk4UbIAGIsuLEXx+M6c7w3l2xwAzAwnLgBTy87OJkrOzc0lDSdKFgBj0YWlKB7fmfO9oXybA4CZ4cQFYGpLly6lSyYNJ0oWAGPRhaUoHt+Z872hfJsDgJnhxAVgahkZGS6Xy/BYl8uVnp5OGm54rDAYiy4sRfH4zpzvDeXbHADMDCcuALNbv3694Zlr1qwREM4XxqILS1E8vjPne0P5NgcA08KJC8DsFixY4Ha7DQwsKChYuHChgHC+MBZdWIri8Z053xvKtzkAmBZOXAAMeDye+Ph4Q6KcTqfH4xEWzhfGogtLUTy+M+d7Q/k2BwBzcuzYsUN2BwAYh9PpzMrKOnLkiKZpoeTY7fYtW7bMmzdPWDhfGIsuLEXx+M6c7w3l2xwAzAknLgAeUlNTk5OTa2pqgt4BOByODRs2rFixQnA4XxiLLixF8fjOnO8N5dscAEwIJy4ANrKysvLy8o4ePdrf3z/Z73U6nY888sjy5culhPOFsejCUhSP78z53lC+zQHAbHDiAuAkJSVl2bJlbW1tbW1tE/+ugoKCrVu3zpkzR2I4XxiLLixF8fjOnO8N5dscAEzFFuLvKAOAFI2Njfv3729qahr7n7lcrnXr1uXl5ZknnC+MRReWonh8Z873hvJtDgBmgBMXAGM+n6+qqsrr9fp8vo6Ojp6enri4uMTERFVVc3NzCwsLVVU1ZzhfGIsuLEXx+M6c7w3l2xwA5IqQXQCso7m5ubq62uv1trS0dHZ29vb2xsbGJiQkZGZm5uTkFBYWZmRkINzYcFVVVVVdtWpV0Alj8Pv9mqZpmhb4QlGUwNeBL8z8wxq+M+e7FElXC2k46VhIkY6F73MLHv7i8X3iAl2YOQW8xgUGaGhoOHDgwPHjx8f+Zy6Xa+3atfn5+QgPPZwUmovHdykiXDw0Fx9OCs3Fh4MuzJwOTlwQktbW1vLy8tra2ol/i9vt9ng8aWlpCA8unBSai8d3KSJcPDQXH04KzcWHgy7MnBpOXBC8+vr64uLirq6uyX5jXFzcpk2bCgsLET7ZcFJoLh7fpYhw8dBcfDgpNBcfDrowcwHw7vAQpIqKipKSkiA+pURRlMHBwcrKyuTk5KysLIRPPJwUmhtebFx8lyLCg/j2EKG5+HBSaC4+HHRh5mLgxAXBqK+vLykpGR4eDjpB07SjR4/OnTt35OvRCNcNJ4XmFmuOcDxCL2PJ5hiLxZrzHQtfmLkwdtkFgJ/W1taioqJQHp8Bfr+/tLT0so+VRLhuOCk0t1hzhOMRqstizTEWizXnOxa+MHORcOKCSSsrK+vu7jYkqqurq6ysDOHjhpNCc8VazREuPpwUmiu4oaOwUnO+Y+ELMxcJJy6YnMbGxrq6OgMDa2pqGhoaED5GOCk0v8gazREuPpwUml+EG6rLGs35joUvzFwwnLhgcvbt22d45sGDBxE+RjgpNL+UBZojXHw4KTS/FG6oLgs05zsWvjBzwXDigklobm4e93PxgtDU1OTz+RCuG2547KXQ/DLcmyNcfLjhsZdC88vghuri3pzvWPjCzMWLkF0AOKmurqZL9vv9CB8ZrqoqUbhCfEPRfLR8umS+65xvON/Vwrc5bqhuMt/mfG8oX3yXIl94jQsmwev1EiUfO3YM4brhRMkBaD4S6+YIFx9OlByA5iPhhupi3ZzvWPjCzMXDa1wwCS0tLUTJPp+P7qdcrMOJkgNIbyhRcgCaj8R6nfMNJ0oOwDofCTdUF+vmfG8oX3yXIl84ccEkdHR0ECW3t7drmobwkeFEyQGkN5QoOQDNR2K9zvmGEyUHYJ2PhBuqi3VzvjeUL75LkS+cuGASBgYGiJL7+/uJkhE+BqY3VEFzPXyXIsJHw3S1KGybYyyjYdqceix8Mb2hrOHvuGASoqKiiJKjo6MRrhtOlByA5iOxbo5w8eFEyQFoPhJuqC7WzfmOhS/MXDycuGASEhMTiZKTkpIQrhtOlByA5iOxbo5w8eFEyQFoPhJuqC7WzfmOhS/MXDycuGASMjMziZJVVUW4bjhRcgCaj8S6OcLFhxMlB6D5SLihulg35zsWvjBz8XDigknIzs4mSs7NzUW4bjhRcgCaj8S6OcLFhxMlB6D5SLihulg35zsWvjBz8XDigklYunQpXTLCdcOJkqnz0Vx8Put1zjecKJk6n3VzjEVkMnU+6xvKF2YuHk5cMAkZGRkul8vwWJfLlZ6ejnDdcMNjL4Xml+HeHOHiww2PvRSaXwY3VBf35nzHwhdmLh5OXDA569evNzxzzZo1CB8jnBSaX8oCzREuPpwUml8KN1SXBZrzHQtfmLlgOHHB5CxYsMDtdhsYWFBQsHDhQoSPEU4KzS+yRnOEiw8nheYX4YbqskZzvmPhCzMXDCcumDSPxxMfH29IlNPp9Hg8CB83nBSaK9ZqjnDx4aTQXMENHYWVmvMdC1+YuUiOHTt2yO4AzDidzqysrCNHjmiaFkqO3W7fsmXLvHnzED5uOCk0t1hzhOMRqstizTEWizXnOxa+MHORcOKCYKSmpiYnJ9fU1AT9KHU4HBs2bFixYgXCJxhOCs0t1hzheIRexpLNMRaLNec7Fr4wc2Fw4oIgZWVl5eXlHT16tL+/f7Lf63Q6H3nkkeXLlyN8UuGk0Fw8vksR4eKhufhwUmguPhx0YeZi4MQFwUtJSVm2bFlbW1tbW9vEv6ugoGDr1q1z5sxBeBDhpNBcPL5LEeHiobn4cFJoLj4cdGHmAthC/N1NAEVRGhsb9+/f39TUNPY/c7lc69aty8vLQ3jo4aTQXDy+SxHh4qG5+HBSaC4+HHRh5nRw4gLD+Hy+qqoqr9fr8/k6Ojp6enri4uISExNVVc3NzS0sLFRVFeHGhpNCc/H4LkWEi4fm4sNJobn4cNCFmVOIkF2ASnNzc3V1tdfrbWlp6ezs7O3tjY2NTUhIyMzMzMnJKSwszMjIkN1RH2lz0nC/369pmqZpgS8URQl8HfgixLO9qqqqqq5atSqUEOuFkyJtzncpkjYnnTnpWPDw18V3tfB9hPIdC5rrIl0tpLCdg0tZ8DWuhoaGAwcOHD9+fOx/5nK51q5dm5+fL6bVRJA25xsOFsN3KfJd5xiLeHzHgtWiC83FQ3OLhYc5S524Wltby8vLa2trJ/4tbrfb4/GkpaXRtZoI0uZ8w8Fi+C5FvuscYxGP71iwWnShuXhobrFwUKx04qqvry8uLu7q6prsN8bFxW3atKmwsJCi1USQNucbDhbDdynyXecYi3h8x4LVogvNxUNzi4VDgEXeHb6ioqKkpCSITxJQFGVwcLCysjI5OTkrK8vwYuMibc43HCyG71Lku84xFvH4jgWrRReaG15sXGhusXC4yAonrvr6+pKSkuHh4aATNE07evTo3LlzBb82StqcbzhYDN+lyHedYyzi8R0LVosuNEfzieP7IOI7c3bssguEqrW1taioKJS1EuD3+0tLSyf10W8hIm3ONxwshu9S5LvOMRbx+I4Fq0UXmqP5xPF9EPGdOUfsT1xlZWXd3d2GRHV1dZWVlRkSNRGkzfmGg8XwXYp81znGIh7fsWC16EJzBc0njO+DiO/MOeJ94mpsbKyrqzMwsKampqGhwcDA0ZA25xsOFsN3KfJd5xiLeHzHgtWiC80vQvNx8X0Q8Z05U7xPXPv27TM88+DBg4ZnjkTanG84WAzfpch3nWMs4vEdC1aLLjS/FJqPje+DiO/MmWJ84mpubh73M9qC0NTU5PP5DI+9FGlzvuGGx4JcfJci33WOsYjHdyxYLbrQ/DJoPga+DyK+M+crQnaB4FVXV9Mlq6pKFK4QN/f7/UzDSWcO4mGd64bjuUU3nO/DH/8l0k3mu1pwQ3WT0Xy0fLpk/GfOYhi/xuX1eomSjx07RpQcQNqcbzhRMsjCdynyXecYi3h8x4LVogvNR0Lz0fB9EPGdOV+MX+NqaWkhSqZ+SZS0Od3PLajDiZJBFqxz3XCi5AC+MydKFgD/JRqJ9WrBDR0JzUfD90HE9xHKF+MTV0dHB1Fye3s7UXIAaXNN05iGEyWDLFjnuuFEyQF8Z06ULAD+SzQS69WCGzoSmo+G74OI7yOUL8YnroGBAaLk/v5+ouQAps35hoMUWOeCwxXMXAamM1fYNsdYRoPmI6G5xcJZY/x3XFFRUUTJ0dHRRMkBpM35hhMlgyx8lyLfdY6xiMd3LFgtutB8JDQfDd8HEd+Z88X4xJWYmEiUnJSURJQcQNqcbzhRMsjCdynyXecYi3h8x4LVogvNR0Lz0fB9EPGdOV+MT1yZmZlEydTva0nanG84UTLIwncp8l3nGIt4fMeC1aILzUdC89HwfRDxnTlfjE9c2dnZRMm5ublEyQGkzfmGEyWDLHyXIt91jrGIx3csWC260HwkNB8N3wcR35nzxfjEtXTpUnbJ1PlLly7lG06UDLLwXYp81znGIh7fsWC1CM5Hc/H5rJvzDSdK5o7xiSsjI8Plchke63K50tPTDY+9FGlzvuGGx4JcfJci33WOsYjHdyxYLbrQ/DJoPga+DyK+M+eL8YlLUZT169cbnrlmzRrDM0cibc43HCyG71Lku84xFvH4jgWrRReaXwrNx8b3QcR35kzxPnEtWLDA7XYbGFhQULBw4UIDA0dD2pxvOFgM36XId51jLOLxHQtWiy40vwjNx8X3QcR35kzxPnEpiuLxeOLj4w2JcjqdHo/HkKiJIG3ONxwshu9S5LvOMRbx+I4Fq0UXmitoPmF8H0R8Z86RY8eOHbI7hMTpdGZlZR05ckTTtFBy7Hb7li1b5s2bZ1SxcZE25xsOFsN3KfJd5xiLeHzHgtWiC83RfOL4Poj4zpwj9icuRVFSU1OTk5NramqCXjEOh2PDhg0rVqwwtti4SJvzDQeL4bsU+a5zjEU8vmPBatGF5mg+cXwfRHxnzo4VTlyKomRlZeXl5R09erS/v3+y3+t0Oh955JHly5dTFBsXaXO+4WAxfJci33WOsYjHdyxYLbrQXDw0t1g4XGSRE5eiKCkpKcuWLWtra2tra5v4dxUUFGzdunXOnDl0xcZF2pxvOFgM36XId51jLOLxHQtWiy40Fw/NLRYOAbYQf3fThBobG/fv39/U1DT2P3O5XOvWrcvLyxPTaiJIm/MNB4vhuxT5rnOMRTy+Y8Fq0YXm4qG5xcLDnAVPXAE+n6+qqsrr9fp8vo6Ojp6enri4uMTERFVVc3NzCwsLVVWV3VEfaXO+4WAxfJci33WOsYjHdyxYLbrQXDw0t1h42IqQXYCK3+/XNE3TtMAXiqIEvg58EeI5s7m5ubq62uv1trS0dHZ29vb2xsbGJiQkZGZm5uTkFBYWZmRkmLO5qqqqqq5atSqUECnhpDPnG06KtDnfpUj6CCVF2pzvUy7f53O+zUkfoaT4Pvz5zpxvc74PIr7r3Mws+BpXQ0PDgQMHjh8/PvY/c7lca9euzc/PD5NwvvjOnO8N5ducFN+x8F3nCLdYOF8YC0wc39XCt7n5WerE1draWl5eXltbO/FvcbvdHo8nLS3NwuF88Z053xv6f9m79/g4rvJ+/GdmVlpJ1lqSZcuytJJjy5e1ZdmOLCmR49xIAiHJlwQTCtQXCBC1YC6/xpCkdikuBX7YlfNtCoFGTiH4ElogTYGEJjG5kMRxopulyNrIia/SrmXLsXWxbnuZOd8/1gihHUl7mefMPrPP+9U/hLP7mU/PnpnR0e7M4m0OCu+w4J3nFG6xcLxoWEjk8M4WvM2xsM6Kq6WlZdeuXYODg9E+MSMjY+vWrZWVlZYMxwvvmON9QfE2B4V3WPDOcwq3WDheNCwkcnhnC97miFjk7vAHDx6sra2N4ZsEGGOBQODQoUO5ubklJSUWC8cL75jjfUHxNgeFd1jwznMKt1g4XjQsJHJ4Zwve5rhYYcXV0tJSW1urqmrMCZzzxsbGxYsXh783ijccL7xjjvcFxdscFN5hwTvPKdxi4XjRsJDI4Z0teJujI5tdIF5er3fnzp3xzJUQTdN279494avf8IbjhXfM8b6geJuDwjsseOc5hVssHC8aFhI5vLMFb3OM0K+46urqhoaGDIkaHBysq6uzRjheeMcc7wuKtzkovMOCd55TuMXC8aJhIZHDO1vwNscI94qrra3tyJEjBgY2NTW1trZiD8cL75jjfUHxNgeFd1jwznMKt1g4XjQsJHJ4Zwve5kjhXnHt3bvX8MwDBw5gD8cL75jjfUHxNgeFd1jwznMKt1g4XjQsJHJ4Zwve5kjZzC4Qu87Ozmm/oy0GHR0dHo9H0zSk4U6n0/BkMegF1Q0HfUFBx5ym4gTYX1C8OxGFiw+n3X8C7MNCdOGdLXib44V4xdXQ0ACXrGka0nC8E51eUN1w0BcUdMxpKuom431B8e5EFC4+nHZ/3WS8w0J04Z0teJvjhfhThW63Gyi5vb0dbzhQsgB4xxzvC4q3OSi8w4J3nlO4xcKBkgWgYSGRwztb8DbHC/F7XF1dXUDJoY9bIA0HShaAXlDdcKDkENAxB0oWAO+w0E5E4QkSDpQsAN7dn4iHd7bgbY4X4hVXX18fUHJvby/nHGk4ULIA9ILqhgMlh4COOVCyAHiHhXYiCk+QcKBkAfDu/kQ8vLMFb3O8EK+4/H4/ULLP5wNKRh0OjV5QweEM7ZhDwzssSJtTOIUnDqQ7ETEF3tmCtzleiK/jSk1NBUq22+14w4GSBcA75nhfULzNQeEdFrzznMItFg6ULAANC4kc3tmCtzleiFdc2dnZQMk5OTl4w4GSBcA75nhfULzNQeEdFrzznMItFg6ULAANC4kc3tmCtzleiFdcxcXFQMlOpxNvOFCyAHjHHO8Lirc5KLzDgneeU7jFwoGSBaBhIZHDO1vwNscL8Ypr2bJlQMmlpaV4w4GSBcA75nhfULzNQeEdFrzznMItFg6ULAANC4kc3tmCtzleiFdcVVVVcMl4w4GSBcA75nhfULzNQeEdFrzznMItFg6ULAANC4kc3tmCtzleiFdcRUVFLpfL8FiXy1VYWIg33PBYYfCOOd4XFG9zUHiHBe88p3CLhRseKwwNC4kc3tmCtzleiFdcjLHNmzcbnrlhwwbs4XjhHXO8Lyje5qDwDgveeU7hFgvHi4aFRA7vbMHbHCncK64VK1aUl5cbGFhRUbFq1Srs4XjhHXO8Lyje5qDwDgveeU7hFgvHi4aFRA7vbMHbHCncKy7GWE1NTWZmpiFRDoejpqbGGuF44R1zvC8o3uag8A4L3nlO4RYLx4uGhUQO72zB2xwjZceOHWZ3iIvD4SgpKXnttdc45/HkyLL88MMPL1myxBrheOEdc7wvKN7moPAOC955TuEWC8eLhoVEDu9swdscI/QrLsZYfn5+bm5uU1NTzDNGUZQtW7asW7fOSuF44R1zvC8o3uag8A4L3nlO4RYLx4uGhUQO72zB2xwdK6y4GGMlJSVlZWWNjY0+ny/a5zocju3bt69du9Z64XjhHXO8Lyje5qDwDgveeU7hFgvHi4aFRA7vbMHbHBeLrLgYY3l5edXV1d3d3d3d3ZE/q6KiYtu2bYsWLbJqOF54xxzvC4q3OSi8w4J3nlO4xcLxomEhkcM7W/A2R0SK87ObCaitrW3fvn0dHR1TP8zlcm3atKmsrCxJwvHCO+Z4X1C8zUHhHRa885zCLRaOFw0LiRze2YK3eeKz4IorxOPx1NfXu91uj8fT19c3PDyckZGRnZ3tdDpLS0srKyudTmcShuOFd8zxvqB4m4PCOyx45zmFWywcLxoWEjm8swVv80RmM7sAFKfT6XQ6169fDxGuaRrnnHMe+oExFvo59EOci1jQ5p2dnQ0NDW63u6urq7+/f2RkJD09PSsrq7i4ePny5ZWVlUVFRYkZDjoseGcL3jEHRcOiKxHnuX+QD1/go5fYyEU+comPfHDlh9FLTB1l/kGmqdw/mBP03zbS96EsNS3bH3reiGpjTJJlWe62yS9m+2w2JsuSPYvZsyV7FrNnSWnZV35Oy5LSZ0szi6SMPCbpfCEK3uM5aHPQcFB4d3/Q5qDwNgeF92SBd/dPZJZ9jwtIa2vr/v37jx07NvXDXC7Xxo0bV65cKaZVJECb4x0WUDTm4tGwiBfJmCsSv6a06N6PVC3IVfhA55X/6z/Dff3CejLZJmXOkzILJYdTmlkoZRaeuuD/zxca69u7pn5eAs4WOrbooubi4W1OdNELCodWXJHyer179uxpbm6O/Cnl5eU1NTUFBQVwrSIB2hzvsICiMRePhkW8KcZ8dpp/vmOkOHP4KsdIsWMkP8OnSAl6rhkOKp6h9M7LaZ7B9K6h9K7BtD5fSvjDEmS20LFFFzUXD29zooteUGi04opIS0vLrl27BgcHo31iRkbG1q1bKysrIVpFArQ53mEBRWMuHg2LeBPGfG6Gz5U9tHDm0HzHyPzM4Rkpqrn14jEYsJ26nPFe34z3+zPf65sxGFBC/276bKFjiy5qLh7e5kQXvaACWOfu8HAOHjxYW1sbw9cUMMYCgcChQ4dyc3NLSkoMLzYt0OZ4hwUUjbl4NCziHTx48JHd/zLH1leV13dH8YXPLu26t6S7Kq9vcdbQnHR/qoL7D3mpijY33bc8Z3DdvEt3Lzh3w7xLJTOHZ6f5Rv3qcy+/PYuO51GGg6LmhhebFt7mRBe9oGLQimsaLS0ttbW1qhr732s5542NjYsXLxb8xitoc7zDAorGXDwaFrG4duGo5+V/VRv+731LO++c37NmTv98xwjqd7SmlZmizneMrJ49cKvzg48Wn+9771V1pDd77nzJni2sAx1bdFFzak7iRC+oMPSpwql4vd5vfOMbQ0ND8UdlZmbu3r173rx58UdFArQ53mEBRWMuHg2LGHy0T/O8oXW9rp3+Ax86Z3adRCHNnC8XXS8XXS8X3SDZZ8JtiI4tuqg5o+YkPvSCiqRzq1wypq6uzpCJyBgbHBysq6szJCoSoM3xDgsoGnPxaFhA8YsdwYZH/b/+mO8/Vgae/xu1fT8tt8bjA2fU9v2B5//G9x9l/mfuDTb/hA90QmyIji26qDmj5iQ+9IKKRCuuSbW1tR05csTAwKamptbWVgMDJwPaHO+wgKIxF4+GBQgf6Aw2P+Y7cJPvF7cE396lnWti3MofGjSAFtS8h4Nvfte3t9r31M3B+t2894RR2XRs0UXNx1BzEht6QQWjFdek9u7da3jmgQMHDM8MB9oc77CAojEXj4bFWHygS219wv/0Pb691cE3v8973ze7EUr80nvB+kd8B24waulFxxZd1Hw8ak5iQC+oYLTi0tfZ2TntF8DFoKOjw+PxGB47HmhzvMMCisZcPBoWo/DRPrX1Cf9/fcS399rA69/WuhvMbmQRY0sv/y8/qrb9nPsGYgihY4suaj4BNSfRohdUPJvZBRJUQwPUrx0NDQ1OpxMonAE31zQNLhx0WEDRmIuHdw9NHFrPO2r7AfXY0yw4YnYXK9N63tF63mFv7FAWfFgp3SgXrWNMivC5dGyZLB8umZqcQnNxAAAgAElEQVRPlg+XnCSH3IRCL6h49B6XPrfbDZTc3t4OlBwC2hzvsICiMRePhiVmfLgn2PyYb991/l9+VG3fT8stQVS/evxZ/28+7XuyKvjm9/nliP4MTMcWXdQ8HDUnUaEXVDx6j0tfV1cXUDL0+62gzeH+Jor6bWgac/Hw7qEm0s6+rbbsUU8fZFrQ7C7Jiw+eDTY/Fmx5XLnqVmXVF+XC6ikeTMcWXXh3f2oezsKH3ERGL6h4tOLS19fXB5Tc29sLlBwC2hzu29ughwUUjbl4ePdQE3BNO/1SsOmH2rkms6uQP9GC6snn1ZPPy3NWKKvuV5bcw2Sd0zEdW3Th3f2peTgLHnIxoBdUPFpx6fP7/UDJPp8PKDkEaXPoYQFFYy4e0jEXLTCkvvdM8MjjvO+k2VWIPu3CUe0PXw8e/p5SulFZ9UXJnjX+vyKd53Samww1D2epQy4e9IKKR9dx6UtNTQVKttvtQMkhoM3xDgsoGnPxaFimxod7gm9+d/RnawKvPETLrcTHh3qC9Y/4fn5N8I0d/LJ37N/p2KKLmoej5iQq9IKKRysufdnZ2UDJOTk5QMkhoM3xDgsoGnPxaFgmw0cvBd/8vm/v2mDzT5j/stl1SDT8l4Mte3z71gZeeYgPnWN0bJkENQ9HzUlU6AUVj1Zc+oqLi4GSoW+aCdoc77CAojEXj4YlHB/tDdbv9u1dG2x+jO5AiJgWVNv3+/ZeG3jloeVXzQbaCOpjCzUPR81JVOgFFY9WXPqWLVsGlFxaWgqUHALaHO+wgKIxF4+GZTw+2hes3+3bWx2sf4Te17IINaC276/JOlCzvDPbHjA8HvWxhZqHo+YkKvSCikcrLn1VVVXokqHzq6qq8A4LKBpz8WhYrgiOBhse9e29ltZaliTz4K3OC/+2rv0zi89m2FQDk1EfW6i5yGTofGSHXKugF1Q8WnHpKyoqcrlchse6XK7CwkLDY8cDbY53WEDRmItHw8IY004d9D11c/DtXbTWsrY0Rf34gu4fXX/0juLzsmTALd2xH1uo+QTUnESLXlDxaMU1qc2bNxueuWHDBsMzw4E2xzssoGjMxUvmYdF6Wv1Pf9z/3Of4QKfZXYggmSnBz7k8tdXu1bMH4oyywLGFmo9HzUkM6AUVjFZck1qxYkV5ebmBgRUVFatWrTIwcDKgzfEOCygac/GSc1j40LnAKw/5f3WX1l1vdhdiAmfm6Lby9x+6+vjcjBi/9MYaxxZqPoaak9jQCyoYrbimUlNTk5mZaUiUw+GoqakxJCoSoM3xDgsoGnPxkmtY1ECw4VHfvnVq+37GNbPbEDOtmdO/u7r9rxefTVOimwlWOrZQc0bNSXzoBRVJ2bFjh9kdEpfD4SgpKXnttdc4j+uj87IsP/zww0uWLDGq2LRAm+MdFlA05uIlz7Bo3Y3+Zz+rHf8t04JmdyEJQZGZK2fwxoKL50fsZ4fSInmKxY4t1JyakzjRCyoSrbimkZ+fn5ub29TUFPN0VBRly5Yt69atM7bYtECb4x0WUDTm4ll/WPyXA29+L/jq37ORC2ZXIQkn3aZdl99blDna3uvwqVN9aMWSxxZqTs1JnOgFFYZWXNMrKSkpKytrbGz0+aL+3LzD4di+ffvatWshik0LtDneYQFFYy6ehYdFO3XQ/+xmres1xgy4Qx2xKmfm6C2FHwwFlZMDM3QfYOFjCzUXD29zooteUDFoxRWRvLy86urq7u7u7u7uyJ9VUVGxbdu2RYsWwRWbFmhzvMMCisZcPOsNCx86Fzj4tWD9brrzO4lEqsLXzOkvmTnU0ecYDirj/5Pljy3UXDy8zYkuekEFkOL87GayaWtr27dvX0dHx9QPc7lcmzZtKisrE9MqEqDN8Q4LKBpz8awxLOrxZ4OvPsRH+8wuQvAZVZW9xwr/4JnDku/YQs3Fw9uc6KIXFA6tuGLh8Xjq6+vdbrfH4+nr6xseHs7IyMjOznY6naWlpZWVlU6n0+yO+kCb4x0WUDTm4iEeFv/lwKHvqu37ze5BcOtJX6Xc/C+FC0tjTsC7E1Fz8fA2J7roBYVgM7sAlM7OzoaGBrfb3dXV1d/fPzIykp6enpWVVVxcvHz58srKyqKiopjDNU3jnHPOQz8wxkI/h36IcxEL2tzpdDqdzvXr18fTcDKgwwIK75iDhoMOCyike6h2rjlw8Ku8/3Q89QhhjOWNtGovfVpTHpXnfyi2BLzHc6S7P3RzUHibE130qwUEC77H1draun///mPHjk39MJfLtXHjxpUrVyZJOChqbjF4hwXrHqoFg42PBhseZVyNqhIhU+Cc9Tnvnvexf2VKauTPot3fYuGg8DYn4iX5bLHUisvr9e7Zs6e5uTnyp5SXl9fU1BQUFFg4HBQ1txi8w4J3D+UDZwLPf0nraY08nJDInQ/OTvvoT+Yunf5mYrT7WywcFN7mRDyaLcxKK66WlpZdu3YNDg5G+8SMjIytW7dWVlZaMhwUNbcYvMOCdw/VTv8hcPBr3NcfbTghkfNpSs+Sry++fesUj6Hd32LhoPA2J+LRbAmxyN3hDx48WFtbG8M3CTDGAoHAoUOHcnNzS0pKLBYOipobXsxceIcF7R7Kg80/Drz8TRYcjSGckMjZJJ516XDXseacsruZpPNFybT7WywcFN7mRDyaLWOssOJqaWmpra1V1divf+CcNzY2Ll68OPztS7zhoKi5+Oag8A4L0j2Uj14K/P6L6tH99NXGRBiH7/RAx4tpS26XUv7ii5Jp96ezf+TwNifi0WwZT+dvXbh4vd6dO3fG83KGaJq2e/fuCV/9hjccFDUX3xwU3mFBuodqPe/4f3mH1vnHOJMJiVbGZffIUx/WzjWN/Qvt/nT2jxze5kQ8mi0ToF9x1dXVDQ0NGRI1ODhYV1dnjXBQ1JwJbw4K77Bg3EPV9v3+pz/GB7oMSSYkWvLoBf8z94595xvt/ozO/hHD25yIR7NlAtwrrra2tiNHjhgY2NTU1Nraij0cFDUfI6w5KLzDgm8PbTkSPPSdwCsPMTVgYDIhUVP9gVceCrz60NF3Wmj3D6Gz/7TwNifi0WwJh3vFtXfvXsMzDxw4gD0cFDUfT0xzUHiHBdcemqpw/wtbgkceNzaWkJipR/ezF76QYTP4K+Bo9zcxHBTe5kQ8mi3hEK+4Ojs7p/0atRh0dHR4PB684YbHjkfNJxDQHBTeYcG1h2bbA/9UcaxsxhkDMwmJ36L0c9+pOpabZuSbrrT7mxVueOx4eJsT8Wi26EK84mpoaIBLxhsOlAydT81NgXdYEO2hxZkj36vqKMky5uPshBirOHPke1XvXjVzxMBM2v1NCQdKhs5HfQ4lumi26EK84nK73UDJ7e3teMOBkkOoeTjo5qDwDguWPXRV7sB3qo7NSfcbFUiI4WalBb5dcWzFrMtGBdLub0o4UHII3uZEPJotumxmF4hdVxfUzb48Ho+maUjDgZJDQMccKDkEb3NQeIcFxe5fnd/71bJTNom+cYskuhk2ddua939ydP7r3bnxp9Hub0o4UHII3pMFEY9miy7EK66+vj6g5N7eXs6hfkmCDgdKDgEdc6DkELzNQeEdlsTf/W8ouPil0jMKLbcIEjaJf2XFaUeK+vvOvDijaPc3JRwoOQTvyYKIR7NFF+IVl98P9UEdn88HlIw6nKEdc4a5OSi8w5LgzW8vvnCfq0titNwimEgS++zSLllmz56Oa9GV5Lu/9cIZ2jEnpqDZogvxdVypqalAyXa7HW84UHIINQ8H3RwU3mFJ5D307gXnPu/qpOUWwUiS2OYlXRsWe+MJSebd38RwoOQQvM2JeDRbdCFecWVnZwMl5+Tk4A0HSg6h5uGgm4PCOyyJuYdKEtu81BPnb6uEmO7uBefimcbJufubHg6UHIK3ORGPZosuxCuu4uJioGSn04k3HCg5hJqHg24OCu+wJOAeKkns/mVn7pp/3vBKhIh394Jzn13aJUmxPDcJd/9ECAdKDsHbnIhHs0UX4hXXsmXLgJJLS0vxhgMlh1DzcNDNQeEdlkTbQyWJ3be081bnBxCVCDHFnfN77lvaGcOiK9l2/wQJB0oOwduciEezRRfiFVdVVRVcMt5woGTofGpuCrzDkmh76GcWeW8vvgDRhxAT3V584bNLor4dc7Lt/gkSDpQMnY/6HEp00WzRhXjFVVRU5HK5DI91uVyFhYV4ww2PHY+aTyCgOSi8w5JQe+gnS87es+Cc4WUISQR3zD//8QXdkT8+2Xb/xAk3PHY8vM2JeDRbdCFecTHGNm/ebHjmhg0bsIeDoubjiWkOCu+wJMgeesf8858sieL3UULQ+czis3dd1RPhg5Nq90+0cFB4mxPxaLaEw73iWrFiRXl5uYGBFRUVq1atwh4OipqPEdYcFN5hSYQ99Pains8tjfozV4Sgs2lx14cKp79MMal2/wQMB4W3ORGPZks43CsuxlhNTU1mZqYhUQ6Ho6amxhrhoKg5E94cFN5hMXcPvang4n2uLkO2TkiCkyRWs7yzKq93isck1e6fsOGg8DYn4tFsmUDZsWOH2R3i4nA4SkpKXnvtNc7j+r5RWZYffvjhJUuWWCMcFDUX3xwU3mExcQ9dmTvw/606Jcd072xCMJIkVjW3773+zJ4RnS8hTardP5HDQeFtTsSj2TIB+hUXYyw/Pz83N7epqSnmF1VRlC1btqxbt85K4aCoufjmoPAOiyl7aFHmyLY1x+2KFtsWCUFKllhlXl/zhax+f8r4f0+q3T/xw0HhbU7Eo9kynhVWXIyxkpKSsrKyxsZGn88X7XMdDsf27dvXrl1rvXBQ1Nxi8A6L4D00xx74duV72anB2BsTglaKzK+eM3CoO8enKqF/SardH0s4KLzNiXg0W8ZYZMXFGMvLy6uuru7u7u7ujuK+YRUVFdu2bVu0aJFVw0FRc4vBOyzC9tB0Rf3WmvcKZkR95iCxkRd8RJ5TykYvscCw2V3IFTNs6opZg693z1K5lFS7P65wUHibE/FotoRIcX68MgG1tbXt27evo6Nj6oe5XK5NmzaVlZUlSTgoam4xeIcFtPnRd1rYi/cvSjsbR0ESndR7fyvnr2GM8YEzWtfrWneD5nmTD9JLYD73SHHKR/69bGUC3T0M7wmaDrkkGST5bLHgiivE4/HU19e73W6Px9PX1zc8PJyRkZGdne10OktLSysrK51OZxKGg6LmFoN3WICaB17+pup+yvC2ZFIpM9LudzPZNuGf+cAZrbtBO9ugdb7CL3tNqUYYY7Y1X7VVP2x2i4nwnqDpkEuSQdLOlolnMsvQNI1zzjkP/cAYC/0c+iHOdabT6XQ6nevXrzem618CbQ4KdFhA4W3e2dnZ0NDgdru7urr6+/tHRkbS09OzsrKKi4uXL19eWVlZVFQUczjeqQjRXD26l5ZbgsnzKsOXW4wxaeZ8ZeZ8Zem9jFZfpgo2/VDKXqgs+yuzi/wF0OM53nDQkwXe5njDQeGdLYnMgu9xtba27t+//9ixY1M/zOVybdy4ceXKlWJaRQJvcyIe6GzBOxWBmmvnmv3PrGdqIO6CJAq26odta74a+eNp9WUCJTX1E/8j5yXQZwvJBHQ8t1g4KLzNE5+lVlxer3fPnj3Nzc2RP6W8vLympqagoACuVSTwNifigc4WvFMRrjkfvjDy1G3y6IX4CpKopX7iN/K8ipieyn1PrOSjlwwuRPRoGfnpf31QSptldhEyER3PLRYOCm9zLKyz4mppadm1a9fg4GC0T8zIyNi6dWtlZSVEq0jgbU7EA50teKciYHMteGn/nRkDR+PqR2JgS0+7/12mpEz/yDC8933fgZuMLkQmNZi1avbG3zFJMbsI+TM6nlssHBTe5ohY5O7wBw8erK2tjeFm/4yxQCBw6NCh3NzckpISw4tNC29zIh7obME7FUGbn3zq87P634qvIImF7Lwu5guEtBPPaadfMrYPmUKq7/yJk6dml91pdhFyBR3PLRYOCm9zXKyw4mppaamtrVVVNeYEznljY+PixYsFvzeKtzkRD3S24J2KoM1PHvzXAs+++AqSGCnLPi0XXBPbc9Uj/84vTXMdwnhS+mwWpO/7ikvWyLFTlzNzF64xuwih47kJpzkac/pFdFqy2QXi5fV6d+7cGc9cCdE0bffu3VF9O1uc8DYn4oHOFrxTEbT5uY43ct2740wmMZML18b6VK55o3lbMtVh/3yz/b4jKbc/rpRulGYWx7rdpCYxntv2/fPHm8wukuzoeC7+NEdjTr+IRgL9iquurm5oaMiQqMHBwbq6OkOiIoG3OREPdLbgnYqAzVW/7/kv2xXNkHASNVt6zLe/473H+XBP5I+XC6qYpEgz8pRFd6XcvNO++TCtvmIzwxYYevaLTAuaXSSp0fGcCT/N0Zgz+kU0ArhXXG1tbUeOHDEwsKmpqbW11cDAyeBtTsQDnS14pyJo83O/2zrXdtHAcBIVuaAqtntmMMY07+Eot1U94V9o9RWzAluP97ltZrdIXnQ8HyPsNEdjPoZ+EZ0a7hXX3r17Dc88cOCA4Znh8DYn4oHOFrxTEa651vValucZw8NJ5OSCa2N+btQrLufEFdd4k6y+5sdcz/JyzvxCO0efLTQHHc/HE3OaozEfj34RnQLiFVdnZ+e039EWg46ODo/HY3jseHibE/FAZwveqQjX3Hvy6OgLX5GYRb42AymRF3HJs1dE+Nhxq6837Zvfsl3zjVgKWp3MtJHff4n5o77NNIkTHc8nEHCaozGfgH4RnQLiFVdDQwO6ZOh86OZEPNDZgncqwuUHX/6mPEqfJzRVXBdxnYjuIq55lUy2xbAhaWaRZM+O4YnJQBn2Bt74J7NbJB06nusm4w0HSobOp19EJ4N4xeV2u4GS29vbgZJD8DYn4oHOFrxTEaj5h4s+mDv6DkQyiZzQi7gKp/pI4TTbOhvdtpKK6n5KPfm82S2SCx3Pw0Gf5mjMw9EvopOJ5W97CaKrqwsoGfotUbzNiXigs0XToO7Fh3EnmpPm27gEarRJ5IRexBXXxxffjvW5SSH48jfl/HIpI8/sIskC768WeE9zdA4NR7+ITgbxe1x9fX1Ayb29vUDJIXibE/FAZwveqQjR/PPLutLodvAJIL73naK6iCtTnhPpRVwT8Evv8ZEPYntukuCjl4KvfcvsFkmEjufhoE9zNObh6BfRySBecfn9fqBkn88HlByCtzkRD3S24J2Khje/oeDimjn9xmaSWNjS5bzVsT2V9x7nQ+cjf7w8ryq2i7hY9G+mJSf1+LPaqRfMbpEs6HgeDvo0R2Mejn4RnQziFVdqaipQst1uB0oOwduciAc6W/BORWObO1KDm5d4DQwkMZPnVeK4iItWXJEJvPr3zH/Z7BZJgY7n4aBPczTm4egX0ckgXnFlZ0PdJyonJwcoOQRvcyIe6GzBOxWNbX7f0q6ZqQEDA0nMRK6C4rqI6yxdxBURPnQ+8Pa/mN0iKdDxPBz0aY7GPBz9IjoZxCuu4uJioGSn0wmUHIK3OREPdLbgnYoGNr96dv+6eZeMSrMMs254IO7mgXFdxPU+H74Q23OTkPrOz+g7kQWg43k46NMcjXk4+kV0MohXXMuWLQNKLi0tBUoOwduciAc6W/BORaOapynq/cs7DYmyEik91/75Zvt9R1Juf1wp3SjNLBK04bgu4jrBh6L6Ji66iEsUrgVeeYhpQbN7WBwdz8NBn+ZozMPRL6KTQbziqqqqQpcMnQ/dnIgHOlvwTkWj8j+x8NzsNKgLiPGSC65lTJJm5CmL7kq5ead981vjVl9Qfxll8V7E9WZ02yoUdw96wi++Gzzy72a3sDg6nusm4w0HSobOp19EJ4N4xVVUVORyuQyPdblchYWFhseOh7c5EQ90tuCdioY0n5vhu2N+FLe2Sx7hq5Fxq6/DcKsvcfeFj/cirui2RRhjwYZ/5YNnzW5hZUl+PA8n4DRHYz4B/SI6BcQrLsbY5s2bDc/csGGD4Znh8DYn4oHOFrxTMf7mm5d4UmRuSBmLmXo1Arf6EnfbjJQZ8pyy2DZEF3HFKDgSpFtoAEvm43k4Mac5GvPx6BfRKeBeca1YsaK8vNzAwIqKilWrVhkYOBm8zYl4oLMF71SMs3lpzuXKPKivgERNSsuRZi2J9MEGrr7iuYir76S4b+KiN7hipXb8WutpMbuFlSXt8TycsNMcjfkY+kV0arhXXIyxmpqazMxMQ6IcDkdNTY0hUZHA25yIBzpb8E7FmJvLEv+cq8vwPtYgF65lUiynhjhXX/K8CrqIy+K4Fnz924zRG8uAkvB4Hk7waY7GnNEvohFAv+IqKCh48MEHFUWJM0eW5QceeCA/P9+QVpHA25yIBzpb8E7FmJvf6rw43zECUckC5IJr4g/5i9XXpjdt1X8vX3WrZM+acrvxfKRQ4EVcUW6LjKd1N6rHf292CytLwuP5BOJPczTm9ItoJJQdO3aY3SFe+fn5ubm5TU1NnMf4lzNFUbZs2bJu3Tpji00Lb3MiHuhswTsVY2ieYVO/sfqEXdFAi+GVct12KWOOgYFSWrZcUKUs+bhtzRbFda+ct1JKn81UHxu5OP5htmu/ITlivOQ6+Nq3WGAw0kenzEi54TuxvY/He48Hmx+L4YlkDO9pta3YFPOnOsm0kup4PoFZpzkac/pFdFpWWHExxkpKSsrKyhobG30+X7TPdTgc27dvX7s25j95xgVvcyIe6GzBOxWjbf5XJd2rZg9At0JKSsu2XfctJklQ+fZsefZyZcFttrLPKqWb5PxyaUa+xIPcP5hy/XeYHMufWnnfyWDTDyN/vOxcp7jujWFDjDHtxHPa6Zdiey65wtfPUmfI8+gW0oCS53g+nrmnORpzMjWLrLgYY3l5edXV1d3d3d3d3ZE/q6KiYtu2bYsWLYIrNi28zYl4oLMF71SMvLkjNfi1ladtdIvCSSjFNytL7hazLSl1hjxriTL/ZqV0o231F5ktLbYc7cTvtdMHI3+8svwzckGMv+6rRx7nl47F9lwyRutpVVZskmJ9xUkkkuF4Pl4inOZozMkUpJjfRkxYbW1t+/bt6+jomPphLpdr06ZNZWUx3iAYAt7mRDzQ2YJ3Kk7bfPOSrruu6hFZCZeU67+jrPqC2S2iE3jxK+p7z0T++NR7fyfnx3iHLt/PyqO6KSKZjK3qAVvVVrNbJAULH89DEvA0R2NOwllwxRXi8Xjq6+vdbrfH4+nr6xseHs7IyMjOznY6naWlpZWVlU6n0+yO+vA2J+KBzha8U3Gy5kuLZ9Vk/ULhfrMLJi77pw9Ks5eb3SI6vp+t4UPnIn10yoy0+92xXUTEe4/7DtwYwxOJjlSHffNbUlq22T2ShfWO54l/mqMxJ+NZ9tJVp9PpdDrXr19vdpGoaZrGOeech35gjIV+Dv0Q5wq5s7OzoaHB7XZ3dXX19/ePjIykp6dnZWUVFxcvX768srKyqKjImP83jAbaHG846DzHuxNN1jzw+j+qrbTcmpSUli3lusxuER3edyqK5RZj8rzK2L+Ji+4LbyD/5Vd/tOkX783DdcjFGw76qwUo0Oagpzm8v87hnS2JzLLvcWHU2tq6f//+Y8emuUjA5XJt3Lhx5cqViRMOCu+w4B1zS+JDPb591Sw4anaRxKUsvD3ljv8wu0V0uK9fO/m8dvZtrbuB952c9vG26odta74a27YCL3xZff83sT2XhBtVla+8vmLAr7MATsBDLoWLR80tFp7kaMWVELxe7549e5qbmyN/Snl5eU1NTUFBgbnhoPAOC94xt7DAH7epbT83u0VCS7n+n5RVXzS7Rez48AXe06qdrde6G7SeI0wNhD8m9d7fyvlrYsuni7gM9z+n5j31/qQHvQQ55FK4eNTcYuGE0YorEbS0tOzatWtwMOIvk/mTjIyMrVu3VlZWmhUOCu+w4B1zC+OXvb791+n+Ck7GpH76RXl2qdktDBIY1j5o17rrte4G7ezbzDfAGGO29LT732VKSgx5vPeE78ANBpdMelO8zRVi+iGXwsWj5hYLJyHWuTs8UgcPHqytrY3hOxAYY4FA4NChQ7m5uSUlJeLDQeEdFrxjbm1qwyNad4PZLRKalJadct0/wn0Tl2hKiuQolOdVKUvusV39t/KC26ScJfLc1bLzutjytJO/107/wdiOxCZzlctHLzkme4CFj+d4w0FRc4uFkzG04jJTS0tLbW2tqqoxJ3DOGxsbFy9eHP6uLmg4KLzDgnfMLc5/2X/w60yle2ZMRSm+SVlyj9ktYEiyNCNfzl8jF1bHnKG2PM4vTnPHZBKD4syRF7rmBLk82QMseTzHGw6KmtNssbBJj3EEmtfr3blzZzyzPETTtN27d0/40jrQcFB4hwXvmFte8Oh+5r9sdotEJxVea3aFhEY3KgQyI0W9qfDS1I+x2PEcbzgoak6zxdpoxWWaurq6oaEhQ6IGBwfr6uqEhYPCOyx4x9zitKDa9jOzSyAgzyw2u0Li4n0n6Z4ZcO6af16Wprmk3ErHc7zhoKg5o9liabTiMkdbW9uRI0cMDGxqamptbRUQDgrvsOAdc8tT3/8tv+w1uwUC/uc+7/vpav9znws2P6Z1N9CHMMfTvG+aXcHK8tJ9FXn90z7MGsdzvOGgqPkYmi1WRSsuc+zdu9fwzAMHDggIB4V3WPCOueWp7yD7gikT8eEL2qmDwTe/73/6ntEnSv3/81fB+t2a5036EjPN+5bZFSzuruKI3kK0wPEcbzgoaj4ezRZLmvSWrAROZ2fntN8uF4OOjg6Px6NpGly40+k0PHkM3mHBO+aWp3kPa+dbzG6BU2BY8xzSPIcYY0xJkfOulguvleffIueXMynp/lSnuD7JNL966g9MjeV2XmRarpzBxVlD7/fPmPph2I/neMPxnv3xNqfZYjG04jJBQwPUXaobGho0TYMLB92L8A4L3jG3vGDLHrMrWIIa0LrrtWMu6mIAACAASURBVO561vhvUvpsueR2peQu2bmWSYrZzQSRi2+Ui2+0+Qa0E8+qHU9rZ99mjL7K0mB3zj//r+8snPZhqI/neMPxnv3xNqfZYjFJ96fKROB2u4GS29vbQcOBkkPwDgveMbc2PtyjnXnJ7BZWw0c+UI/u9//m07691Wr7fsahTtsJSLLPVJb/der6p+0bX7OVb5HSc81uZClVc/tmpk7/HeWoj+d4w4GSQ6h5OJot1kPvcZmgq6sLKDn0TjFcOFByCN5hwTvm1qa6/5NpQbNbWBa/7A288pB6/NmU2x+X7Flm1xFKyl5oW7vNds031OPPqq1PaD10sbgBbBK/Yd6lZ8/MnfphqI/neMOBkkNAz/5AySH0e4tuOFAydrTiMkFfXx9Qcm9vL+dQn3Xp7e0FSg7BOyx4x9zSuPruf5ndwfq0rtf9v7or9d7fSGmzzO4inJKqLF2vLF2vnX0reORx7fQfkuodPwi3Fn3wXOfcqQ+oqI/neMOBkkNAz/5AySH0e4tuOFAydvSpQhP4/VC3Xfb5fKDhQMkheIcF75hbmOY5zPtPm90iKfC+k4Hn/zaZFxtywbWpd/7M/tevKks/kTzXtkEoyBhdmj049WNQH8/xhgMlh1DzcDRbrIdWXCZITU0FSrbb7aDhQMkheIcF75hbmPruL8yukEQ0zyH1+O/MbmEyKack5bZ/s296XSndSOuumN1S+MHUD0B9PMcbDpQcQs3D0WyxHlpxmSA7OxsoOScnBzQcKDkE77DgHXPL8l9WT/yv2SWSi3rk382ukBCkmfNTbt5p//SLsvM6s7ugVJ3fm2FTp3gA6uM53nCg5BBqHo5mi/XQissExcXFQMlOpxM0HCg5BO+w4B1zq1KPPc2CI2a3SC5aTxsfOmd2i0Qh5bpS7/llyh1PSDPnm90FmVRZWzfv0hQPQH08xxsOlBxCzcPRbLEeWnGZYNmyZUDJpaWloOFAySF4hwXvmFsV3TPDDJz3tJndIbEoCz9q3/CqrfLrTKabVEXhpoKpPliI+niONxwoOYSah6PZYj204jJBVVUVXDJoOFAydD70sOAdc0vi/We0nnfMbpGM+FC32RUSj5Jqu+bB1Ht/J+W6zK6CxqKs4bnpk158j/p4jjccKBk6H3VzvOFAydjRissERUVFLpfxZ1+Xy1VYWAgabnjseHiHBe+YW5L6/m/MrpCs6NvPJiHnrbT/1fO28i8xJpndBYdr8/VvMI39eI433PDY8aj5BDRbLIlWXObYvHmz4ZkbNmwQEA4K77DgHXPr0U48Z3aFJCU56EQ7OSXFtvYfUu/8GbPPNLsKAmvn6q+4LHA8xxsOipqPR7PFkmjFZY4VK1aUl5cbGFhRUbFq1SoB4aDwDgveMbcYPnBGu3DU7BZJSZKledcI2I526sXg27u0My9zX7+AzRlLXnCb/ZPPSbOWml0k0S2YOTwvY+IHC61xPMcbDoqaj6HZYlW04jJNTU1NZmamIVEOh6OmpkZYOCi8w4J3zK1EfT/ZvxXKLHLuMikN6nbD46nH/jvY8Kj/d5t8e0p9T90cePkbasevEH3btZS9MPUTz8jzKswukuiunfsXdyy00vEcbzgoas5otliasmPHDrM7JCmHw1FSUvLaa69xzuPJkWX54YcfXrJkibBwUHiHBe+YW0nw9X/kwz1mt0hG8uK7lfk3w2+HB1/7FgsMX/lfIxf5haPayefVd36qtu/n54+woR6mpEoZs5mUuFdMSbY0Zck92oWjvP+U2V0SlyM1eNAzJ/SzxY7neMNBUXOaLdZGKy4z5efn5+bmNjU1xTzXFUXZsmXLunXrBIeDwjsseMfcGvhAZ/Dw/292iyRlW7NFzlkEvRXeezzY/GP9/xYY4pfe0zpfUdv3q20/5xc7mOaXZuRLtjToVrGQU5TFH9M+cPO+E2ZXSVDZ9uDh87MG/DZLHs/xhoOi5jRbLIxWXCYrKSkpKytrbGz0+Sa9Ge5kHA7H9u3b165da0o4KLzDgnfMLUBtf0rres3sFklJklNu/J5kS4fejnbiOe30S9M/LjjCL76rnXhOPfK4dvpFPtTDUmZIM/IS61aBkqwsvF3zvsUHvWZXSVAXRlLPqvOsejzHGw6KmlssnIyhFZf58vLyqquru7u7u7uj+DabioqKbdu2LVo0zR+VQcNB4R0WvGOOXfDwD/hlj9ktkpE0e5lttYhP8KtH/p1fOhbNMzgfOq95D6vtB9RjTzNfn5RZIOZ6s4jINnnh7dqpg2z00vQPTj7ZMzM/tvXnFj6e4w0HRc0tFk5CpDg/u0kM1NbWtm/fvo6Ojqkf5nK5Nm3aVFZWljjhoPAOC94xR8k/OPpEKX0llCmUVV9Iuf478Nvhvp+Wx3+dnpy/Rin7rLLoY0xJMaRWnHjvcd8vP/rni9PIGNmW9sWjLNUR4cPxHs/xhoOi5hYLT3K04ko4Ho+nvr7e7XZ7PJ6+vr7h4eGMjIzs7Gyn01laWlpZWel0OhMzHBTeYcE75rhop170P3ef2S2SVModTygLPwq9Fd573HfgRqPSpIw8ZcUmpWyzlD7bqMyYqe6nAi9/0+wWiSiGqYX3eI43HBQ1t1h40qIVV3Lp7OxsaGhwu91dXV39/f0jIyPp6elZWVnFxcXLly+vrKwsKioyuyMhsQj8cbva9qTZLZKSJNu/8I6UlgO9HfXovsCrDxscmjLDtuoLytVfksz+YuLA8zXqcfry7omU0g0pN+8yu8Wf0TmUJAi8UxFv8zjRiitZtLa27t+//9ixaS6BcLlcGzduXLlypZhWhBjFt+86RF/KZCVS7jL7Z/4gYEOBF76svv8biGTJnqWs+apt9f1MtkHkR4IPnfPtv54+WziBlDnP/rmGRLjlCZ1DSYLAOxXxNjcErbisz+v17tmzp7m5OfKnlJeX19TUFBQUwLUixEB8oMu391qzWyQpZdUXU67/JwEb8v2snA+dh8uXcpel3LJbzlsFt4mpBet3B+sfMWvrCcv+mZekXJeJBegcShIE3qmIt7mB6F6FFtfS0rJjx44zZ85E9azu7u6XX355/vz5hYWFQMUIMZD2/m+10yLeZiHhbOVfkmctht4K7z0RbPoR7DZGPlDf/S/GmFx4rSlvqsh5q9WOX7LAkPhNJzLvgJS99Baztk7nUJIg8E5FvM2NRSsuKzt48GBtbW0MX7DAGAsEAocOHcrNzS0pKTG8GCHGUht/yHuPm90iOUkpNwn7Ji74RTXXNO+b/OIxZcGtTBZ+J0Mlhak+zXNI9HYT24mTZ94NLDHlTETnUJIg8E5FvM0NJ5tdgEBpaWn58Y9/rKpqzAmqqj722GNNTU0GtiLEeFxTvfRLqjmk3KVS2iwBG9K8hwVsJUQ98Zz/v+/lwxeEbXGMsvzTCXLP+sSxOOvyjx/7kfgzEZ1DSYLAOxXxNodAKy5r8nq9O3fujGeWh2iatnv37qi+EY8Qwfil95hvwOwWSUp2XidmQ9rZt8Rs6MrmeloCv9sk/gN+UkaegPvs45JhU4tmDAs+E9E5lCQIvFMRb3MgtOKyprq6uqEhY35XGBwcrKurMySKEAjaOSv89QspueAaAVvhvSdA75mhS7vQ5n/xK4zH++tCtJQl9wjeYuJbmj0o+ExE51CSIPBORbzNgdCKy4La2tqOHDliYGBTU1Nra6uBgYQYiFZc5pHkwmoBm9HOivtI4V9s99SLwbdrBW9ULlxr4k3qE9PS7EEm8ExE51CSIPBORbzN4dCKy4L27t1reOaBAwcMzyTEELTiMoslL+KaINj8Y/6BW+gmUx3y3NVCt5jwluVcDv0g5kxE51CSIPBORbzN4dCKy2o6Ozun/Xa5GHR0dHg8HsNjCYkT9/Xz3hNmt0hSYt7gYqauuJgWDLz1A8HblAvXCt5igstNC+Sm+ZmQMxGdQ0mCwDsV8TYHRSsuq2loaECXTEjM+Lkmxuhr3M0hZsXF+06Kv4hrPO30S/yS8b89TEHKWSRycyi4sgdDP0CfiegcShIE3qmItzkoWnFZjdsN9QGY9vZ2oGRCYqadazS7QtKS5IJrBWxG874pYCtTUzt+JXJzUtZVIjeHQsnMK5fgQ5+J6BxKEgTeqYi3OShacVlNV1cXUDLqN3OJVWnnms2ukKSk3KVSeq6ADZn5kcI/Uc+8InJztOIKN98xEvoB+kxE51CSIPBORbzNQdGKy2r6+vqAknt7e4GSCYkZv4D4L16oiXmDiyXGiotfPMb8l4VtTkrPpdsVTrBg5pUVF/SZiM6hJEHgnYp4m4OiFZfV+P1+oGSfzweUTEhs+HAPH71kdoskJebuDqZfxPUnXBvoFLpBSRG6uYSXmRLMsQcY/JmIzqEkQeCdinibg6IVl9WkpqYCJdvtdqBkQmLDLwq9nwEZR5ILxVzEZf4bXFeMXBS6OSVF6OYwmO8YZvBnIjqHkgSBdyribQ6KVlxWk52dDZSck5MDlExIbATfQY6MkWYtSZ6LuK7QgiK3JtF7XGFCl3JBn4noHEoSBN6piLc5KFpxWU1xcTFQstPpBEomJDbapffMrpCkkuKbuCZIyRC5Na5CfSwHr6scIwz+TETnUJIg8E5FvM1B0YrLapYtWwaUXFpaCpRMSGz4xQ6zKyQpUd/EdYoPnROwoUhIGXniNua/zIIj4jaHRHHmCIM/E9E5lCQIvFMRb3NQtOKymqqqKnTJhMSE03tcJpHkgmsEbCYRvonrCiVVmgn1V9twiXGzkIRTMGNUkTj0mYjOoSRB4J2KeJuDohWX1RQVFblcLsNjXS5XYWGh4bGExIwPdou8YTcZI81aLGXMEbAh7exbArYSCTl3mcjbtfPhC8K2hYgi8crlRdBnIjqHkgSBdyribQ6KVlwWtHnzZsMzN2zYYHgmIfHgl943u0KSSsKLuOSi60Vujl/2itwcIp+8XcQdMukcShIE3qmItzkcWnFZ0IoVK8rLyw0MrKioWLVqlYGBhMSPX4b6VnsyNUEXcfWf5oPdAjYUCXnBR0Rujl90i9wcIgvniLhpPp1DSYLAOxXxNodDKy5rqqmpyczMNCTK4XDU1NQYEkWIgeh9AJNIcoGQb+LyHBKwlUhIs5bK+VeL3KL2Aa249HFR30NN51CSIPBORbzNgdCKy5oKCgoefPBBRYn3G11kWX7ggQfy8/MNaUWIgfjls2ZXSEYCL+J6W8BWImFbXcOYJHCDnF84KnBzmAhbcdE5lCQIvFMRb3MgtOKyrNWrV3/5y1+OZ64rirJly5Y1a9YY2IoQo/DLHrMrJCM5byUfuSjg64AT5EaFUq5LWfZJkVvkF4/x0V6RW0SE958Rti06h5IEgXcq4m0OQdzNl4h4t912W0FBwQ9+8IP+/v5on+twOB588EHsn5olFsYH6VOFJpCvulVKz4XeSqJcxCXbUm7+FybF+zfaqCTO/UISEB8QevUmnUNJgsA7FfE2N5zEOTe7A4HV3d1dV1fX1NQU+VMqKipqamos8B4usSyujv5koYB3WshfkuyfbxbwXcCq+xeBl78BvZVppdzwz8rKzwveqP/ZzdrplwRvFJG0vz3ObOkit0jnUJIg8E5FvM0NRCuuZNHW1rZv376Ojo6pH+ZyuTZt2lRWViamFSGx4YNnfU9Wmt0i6Ug5i+0bXhWwoWDrHrX+/3Jf1H8TNZDtmm/YKv9O9Fb9l0f/YyVT/aK3i4f9s29LDqf47dI5lCQIvFMRb3ND0IoruXg8nvr6erfb7fF4+vr6hoeHMzIysrOznU5naWlpZWWl02nCmYyQaGndDf6n7zG7RdJRVmxKuekHgjbGVe1Cm9b1huZ5Q+tuYMFRQdtljCn2lBu/pyz/jLgt/on63jOBF78ifruIpP7Vc3LearO2TudQkiDwTkW8zeNk2eu4Ojs7Gxoa3G53V1dXf3//yMhIenp6VlZWcXHx8uXLKysri4qKzO6oD7S50+l0Op3r1683sPAYGnMKFxbOh3ti3jSJmVy4VtzGJEXOWy3nrWZrvsJUv3b+iOY9rJ19S+tuZMERuM3K86pSbt4pzVoCt4kpqO/+lynbxWTk0tT/He85FC86+4unaRrnnHMe+oExFvo59EOc76bQTgTBgu9xtba27t+//9ixY1M/zOVybdy4ceXKlWJaRYKaiwfanMLhwlX3U4GXvxnVdkncBF3ENQ0tqJ0/op19m/e8o104ygcMunmdpMjFN9pWbJIXfNiYwOjx/jO+fdcxZrWTsrFSbn1Ucd2r+5/wnonwwjvm1Fx8eJKz1IrL6/Xu2bOnubk58qeUl5fX1NQUFBTAtYoENRcPtDmFQ4cHm38SfPO7keeQ+Ek5i+wb/mh2i4m4b4B/0K5dOMovHNU+OMr7TjA1EMXzUx3y3KvlonXK0k9IM0y+RDvw2rfUd35qbofEZ7vuH21X/82Ef8R7JsIL75hTc/HhhFlpxdXS0rJr167BwcFon5iRkbF169bKStOuwqfm4oE2p3AB4cHDPwg2/TDaKBIPoRdxxYxrfOg8H+jkA1189BIb7eWjvWy0789vHNnSpBn5UsYclpEn57qknEVMSojvpeRD5317q5nqM7tIorOVb7Gt3Tb+X/CeifDCO+bUXHw4CVF27NhhdgcDHDx4sLa21ueL5VwVCAQOHTqUm5tbUlJieLFpUXPDi00LtDmFiwlXTzzLe96JIY3EzHb138q5LrNbTEeSpFSH5HDKs5fL+Wtk5zrlqluVRXcpi/7Plf9b+FG56Ho5v1zOXSql5zJJMrvxFcHD3+fnorh1ctKSckqUBR8Z+594z0R44R1zai4+nIyxwoqrpaWltrZWVdWYEzjnjY2NixcvFvzeKDW3WHMKFxauHXuaX5rmg+bEWCk3/LOUmml2C2viFzsCrzzIuGZ2EQSkzHnKkiv3KcV7JsIL75hTc/FnfzJeQnyaIh5er3fnzp3xzJUQTdN2797d3d1tSKtIUHOLNadwkeF8tC/OQBIVKadEmjHX7BYWxdXAKw/S13lHKnDlTpV4z0R44R1zai7+7E8mQL/iqqurGxoaMiRqcHCwrq7OkKhIUHNmreYULjTc1O/GTUJC7wufZIINj2r0ecLI/elSN7xnIrzwjjk1Z8LP/mQC3Cuutra2I0eOGBjY1NTU2tpqYOBkqPkYazSncMHh3H/ZwFgyLbmw2uwK1qR53gw2Pmp2C1SCowzzmQgvvGNOzccIO/uTcLhXXHv37jU888CBA4ZnhqPm41mgOYWLDlf9hieTKcgF15pdwYJ4/5nA839DnyeMCld9DPOZCC+8Y07NxxNz9ifhEK+4Ojs7p/2Othh0dHR4PB7DY8ej5hNgb07h4sPpl1SR6CIuCHygy/+bT/HRS2YXQSY4OoT3TIQX3jGn5hOIOEETPTazC8SuoaEBLtnpdAKFM2o+STLe5poGdYcxCp8s/A5acQkkF9BHCg3G+075f/MpftlrdhF8gr5BvGcivPCOOTXXTQY9QdNOpAvxe1xutxsoub29HSg5hJqHQ92cwsWHMy0AFE7C0UVcxtK66/1P303Lrdjw4CjeMxFeeMecmocDP0ETPYjf4+rq6gJKhn5LlJqHQ90c7m9FFD5ZOM+L9262JHK04jIMV4NNjwXrd9PHYmOmsCDeMxFeeMecmoeDPkEDJWOHeMXV1wf1hTy9vb1AySHUPBzq5pxzChccTr+wCiNlL6SLuAzBL74beOUhuhF8nCSm4T0T4YV3zKl5OPATNNGDeMXl90PdrMzn8wElh1DzcNScwqMLpxWXKPRNXPHjQz3BxkfV9v00b+OnahLS4zlqeMecmofDe/ZHDfF1XKmpqUDJdrsdKDmEmodD3ZzCxYfTb67CyIV0X/jY8d7jgT9u9+29Vm17kiatITQm4z0T4YV3zKl5OPATNNGDeMWVnZ0NlJyTkwOUHELNw6FuTuHiw5mkAIWTCcS8x6X1tGinXuAjFwVsSwA+0KW2Pel/5l7fgZvUtieZSn/0NQxnMt4zEV54x5yahwM/QRM9iD9VWFxcfO7cOYhk6PtaUvNw2JtTuOhwm50FhiHCyXjCLuJS33lS7fhVaIvyvAp5XqWcXyHNWsyYJGDrhtGCwaYfqsef5Rc7zK5iXbIN75kIL7xjTs3DCTj7k3CI3+NatmwZUHJpaSlQcgg1D4e6OYWLD5cU+tyCCMIu4tK8h0M/8L6T6ru/DLz8Td9TN4/WLfP/5tPB5se07gamQl3SYCTZpiz/jJxfQe/BwpGVFLxnIrzwjjk1Dwd9ggZKxg7xiquqqgpdMnQ+NRefX1VVReHiwxmtuIQQcxEXH+jil/VuKOy/rHW9Hnzz+/6n7xl9otT/P58K1j+ieQ8zNXG/jU2akZ9y887UT/2vnL/G7C7WlJo+A++ZCC+8Y07NdZPxDgteiFdcRUVFLpfL8FiXy1VYWGh47HjUfALszSlcfDizpRmeTMKJ+SausTe4phIY1jxvBOt3+5+5d/SJ5f7fbQq27uGX3oNvFwt5dmnqJ/4n5YbvstRMs7tYjWJLxXsmwgvvmFPzCUScoIkexCsuxtjmzZsNz9ywYYPhmeGo+XgWaE7hosNpxQVPyl4gzcgXsCHN+2Z0TwgMa2deDr6+w/fUzb59a4Nv/JPmPZxwdwKUZGXlffbPvCzPo7/4GkpOYZjPRHjhHXNqPp6Ysz8Jh3vFtWLFivLycgMDKyoqVq1aZWDgZKj5GGs0p3DB4XQdlwDiLuI6+1bMz+X9Z4Itdf5n7vX9dFXglQc172HGNQO7xUlyFKZ+/Fe2iq8xCffZNnFI9pkM85kIL7xjTs3HCDv7k3DozwE1NTWZmcZ8bMPhcNTU1BgSFQlqzqzVnMKFhtN7XPDkAlEXcQ10GZAz2qe2H/A/c6/v51XBQ9/hl47Fn2kM2Wa79qHUO59kKTPMrmIJaVfuao33TIQX3jGn5kz42Z9MgH7FVVBQ8OCDDypKvDeGkmX5gQceyM8X8RGaEGpuseYULjTclhFnIJmW7BTyTVyRXMQVDT7YHTzyuO+pD/l/+VH12K8T5NOG8lW32O/9rZRZYHYR9CR7VugHvGcivPCOOTUXf/YnEyg7duwwu0O88vPzc3Nzm5qaOOexJSiKsmXLlnXr1hlbbFrU3GLNKVxYuNb5R37RHVsaiYSUvcBW8TUBG1LfeYJ/0A6RzIfOayefV92/YKpPnr3c9PtbShmzlZI7tVMvMF+/uU1Qk51rlfk3h37GeybCC++YU3PxZ38ynhVWXIyxkpKSsrKyxsZGn88X7XMdDsf27dvXrhV0xcIE1Fw80OYULiacd9dr55qijSKRU0ruVBbcJmBDwTd2MN8A4AYCQ5rnULDt58w3IOWtkmxmrrsk+0xl4Ue1U8/D/r9sacr8m8dfYYj3TIQX3jGn5uLDyRiLrLgYY3l5edXV1d3d3d3d3ZE/q6KiYtu2bYsWLYIrNi1qLh5ocwoXEK5dOKp53og8h0TLtrpGng31FZlj+GVPsH439FYYY0z1a90NmvsAY7I892oT72Mh2Wcq82/R3nuGBUfN6oCasvB2Of8vLvfHeybCC++YU3Px4SREivltxITV1ta2b9++jo6OqR/mcrk2bdpUVlYmplUkqLl4oM0pHC5cdf8i8PI3otouiYr9viYBt4ZX3/1l4KW/g97KBFL2wpSbfiA7rxO83fE0zxv+325IkGvMcEm57VFl6b26/wnvmQgvvGNOzcWHJzkLrrhCPB5PfX292+32eDx9fX3Dw8MZGRnZ2dlOp7O0tLSystLpdJrdUR81Fw+0OYVDhGunXvQ/d1/MWydTk7Kusm86JGBDgZceUN/9LwEbCiMpyz+Tsu7bJn5DcfDI48FD3zFr63il3vVz+apbp3gA3jMRXnjHnJqLD09aNrMLQNE0jXPOOQ/9wBgL/Rz6Ic51ZmdnZ0NDg9vt7urq6u/vHxkZSU9Pz8rKKi4uXr58eWVlZVFRURI2dzqdTqdz/fr18TQ0BWhz0BcUtHlCD0vaLIhWJETcN3EZfaPCiHHV/ZR29q3UO56QZi01pYHt6hrtzMv04diopc+e+r/jPYeCwnv2p+a6EvoEPSW8O1GcLPgeV2tr6/79+48dm+bLWFwu18aNG1euXEnh8YcTXTTmugwZFt5/2rfPzE+FWVvKbf+mLP0E9Fb44Fnfk5XQW5lGambKLY8oJXeasnE+0On7xS0sMGzK1pGyf75Fypij+5/oHKqLmotHzcWHJz5Lrbi8Xu+ePXuam5sjf0p5eXlNTU1BwfTfkULhJHI05rqMHBb/5dE6l5HlyDj2zzVKmfOgt6J2/Drwh69DbyUCku26f7Bd/bembDtYvztY/4gpm0ZJSU370knGpAn/TOdQXdRcPGouPhwL66y4Wlpadu3aNTg4GO0TMzIytm7dWlk51Z9aKZxEjsZcl+HDMrpnGd1iG4KUNd++6U0BGzLvIi4dtrX/YCv/kgkb9l/2/fwaTt/QFRkpe4F948TPYdI5VBc1F4+aiw9HxCJ3hz948GBtbW0M3yTAGAsEAocOHcrNzS0pKaHwyMOJLhpzXRDDoh1/lg/3GFSQ/JlScoey4MMCNhR8Y0fifBew1vW6lL1AzgW/If5Eip1xVfOIuE+JBcizVyiuT47/FzqH6qLmhhebFjUXH46LFVZcLS0ttbW1qqrGnMA5b2xsXLx4cfjblxSuG0500ZjrAhoWzfMav/S+EQXJX7CtrpFnL4feCr/sDdbXQm8lKtrpl5SFH57sGiE40qzFausTjGuCt4uRXFitLPzI2P+kc6guak7NI0c7kTCmfQukUbxe786dO+N5OUM0Tdu9e/eEr36jcN1woovGXBfcsEgz58eZSXTJhdUCtmLeXQonp/r8L36FqQHBm5XSZinzp7rdORkjOQrHfqZzqC5qTs0jRzuRSOhXXHV1dUNDQ4ZEDQ4O1tXVUfi04UQXjbkuuGGRZhYbEkvGk7LmS5ki/pSoEVIhZgAAIABJREFUnU28FRdj/GJH8OiT4rcru/S/0pdMIGX+ecVF51Bd1JxR84jRTiQS7hVXW1vbkSNHDAxsampqbW2l8CnCiS4ac12gw3L6Yrx/OSPhxLzBxRjTPIm44mKMqQ2PsuCI4I0qRdcz2bJfj2mgsfe46Byqi5qPoebTop1IMNwrrr179xqeeeDAAQqfIpzoojHXBTosv3rhbcPDiZgVFx88ywfOCNhQDPhor/reM6K3mjJDzrPal89AkGYtCf1A51Bd1Hw8aj412okEQ7zi6uzsnPZr1GLQ0dHh8XgoXDfc8FhroDHXBT3P3273aHzi1/KQOMmFawVsRfOKuPt8zNRj/y1+o3KBoHcX8ZLsWdKMuQzz2d/w2PGo+QTUfAq0E4mH+GMMDQ0NcMmaBnXbKNThTqcTKBw10KmId8yh91CVS+dG7AUZo0BbSULSTFEXcSXgbTPG0bobmP8yS3WI3KiUu0Tk5jCScq986Tnesz/o8RzvmYia6ybjbY53JwKF+D0ut9sNlNze3k7huuFAydjRmOsSMM/PDKQDbSI5yU4Rb3CxBL6I6wotqF04Knib0syrBG8RnbGPFNI5VBc1D0fNJ0M7kXiI3+Pq6uoCSvZ4PHALdNThQMnYgU5FoGQBBOyhZwYzqlkv0FaSkLLoLgFbSeSLuMbw3uNM1E1EQqQs+raDacizloZ+wHv2B0oOwXsmoubhUDfHuxOBQrzi6uvrA0ru7e3lnFN4eDhQMnagUxEoWQABe2jnZXqPa4yUcuP3tIsdmucN3ncyhufLhdVy8U1Gt9KR4BdxhfBR0buelD5L8BbRkf604sJ79gdKDsF7JqLm4VA3x7sTgUK84vL7/UDJPp8PKJnCLQnpVIQmYFjODNKK6wq5+Aal7LMKY4wxPnhW8xzSut7QPK/zofMRPd8+M+WmnZAF/0zzviVmQ3ERfoN4JilMSRH//cuISLlXVlxID7nQx3Okw8KouR5qLj4cGuIVV2pq6ugoyEXzdrudc07h4eEQsRYAOhUhYsUQsId+MJo6FFBmpNAXczHbyi+M/SxlFiiuTyquTzLGeO9xzXtY876ped/iwz26z5Vm5Kfc+TMpp0RMVRTvcbGUDBM2qqTRimsyUtosKT039DPesz9E7Bi8ZyJqHg51c7w7ESjEd87Izs4GSs7JyaFw3XCgZOxozHUJmOecs85BM34zTjBS9kJ5/s36/ylnkbJiU8pHfmL//BH7hldTbnlEKfucXFgtzciXHIXyvErbdd+yb3xN2JdB8cGzvD/RL+JijI39ci90o7IifqNYSHNWjP1M51Bd1DwcNZ8M7UTiIX6Pq7i4+Ny5cxDJoVtPUrhuOAkHPRWRErOHnhlMX5ZzGWIriNhWfYFJ0//5TMpZrOQsVpZ9SkClyeB4g4sxKXuh8G1y7h8UvlE05HkVYz+jPvvDwXsmoubhsDdHOiygEL/HtWzZMqDk0tJSCtcNB0rGjsZcl5h5fqI/6d/jSnUoSz9hdolI4biIi0nybOG7nn+QaUHRG8VDzi8f+5nOobqoeThqPhnaicRDvOKqqqqCS6Zw3XCgZOxozHWJmecdvZlAW8HCtvzTgr+rNx4J/t3HIVKuS/yQct+A4C2iIkl5V4/9DzqHCs6n5uLzUTfHOyygEK+4ioqKXC6X4bEul6uwsJDCdcMNj7UGGnNdYub5+RF7nz/F8K2gIcnKyvvMLhEpPtjN+0+b3WJ6ysLbxW+UD54Vv1EspJxFUtqfrwyhc6guaj4BNZ8C7UTiIV5xMcY2b95seOaGDRsofIpwoovGXJeYed7RO8PwrWAhX3WbNBPNN+ciuYhLUhZ/TPxWee8J8RvFQp63ZsK/0DlUFzUfj5pPjXYiwXCvuFasWFFeXj794yJWUVGxatUqCp8inOiiMdclZp539CXvBwttq+83u0IUUFzEJRffKM1aIn67vI9WXJOS8yeuuOgcqouaj6Hm06KdSDDcKy7GWE1NTWamMb9vORyOmpoaCp82nOiiMdclYJ4n7aVcUq5LLqw2u0UUMLzHJdkq/86UDWu9x03ZLgrhKy5G59BJUHNGzSNGO5FI6FdcBQUFDz74oKLE+zUmsiw/8MAD+fn5FD5tONFFY65LwDz3DDtGVfSHshjYVn3R7ApRQHERl7Lsk+PvQi4S72kxZbsIpDqknMXh/0znUF3UnJpHjnYikZQdO3aY3SFe+fn5ubm5TU1NnPPYEhRF2bJly7p16yg8wnCii8ZcF/Q8z5mVO3L8pbx0X3w1kZHSZqXc8giT0XynonbqRe3k/5rdYipS9oLUO/6DKXbxm+b9p4ONPxS/XRSU+R9Sltyj+5/oHKqLmlPzyNFOJIwVVlyMsZKSkrKyssbGRp8v6t+6HA7H9u3b165dS+FRhRNdNOa6oOc5GzqX3ptcbxHYVt8vF99kdosocO9h7VwDU/1mF9EnZcxJ/dgBKXOeKVvXTr2gnXrBlE0nPtuqL8h5k16/QedQXdRcPGouPhwXi6y4GGN5eXnV1dXd3d3d3d2RP6uiomLbtm2LFi2i8BjCiS4ac12gwzIja7bafiC+gqjItpQP/0hKxXQBm5xfbrv6S3LxzdLMYsY0PtzDuGp2qSukzHmpd//ClBtmhKjv/JR/0G7W1hNcyg3/LNmzp3gAnUN1UXPxqLn4cESkmN/pS1htbW379u3r6OiY+mEul2vTpk1lZWUUHn840UVjrgtmWLjvZ+V8qCf+eigoi+9O+ciPzW4Rn+Codq5R8x7WvG9p55tNfO9Ldl6X8pEfS+mzzSrAuOZ7soIPnTetQAKTshfYN74R4YPpHKqLmotHzcWHJz4LrrhCPB5PfX292+32eDx9fX3Dw8MZGRnZ2dlOp7O0tLSystLpdFK4seFEF425LsOHJfCHr6sdvwZqm2hS7/2dnG/kjXdNpvq0c82a97B29i3tXBMLjorZrJQxx3btw8ryTzEmidmiLu1cs//X/8fEAolMWXlfyg3fjeopdA7VRc3Fo+biwxMZmquuo6VpGueccx76gTEW+jn0Q5zrTKfT6XQ6169fb0xXq4SD6uzsbGhocLvdXV1d/f39IyMj6enpWVlZxcXFy5cvr6ysLCoqSsxw0KmId1gMn4ry/A8lyYpLnrvaUsstxphilwurr9zpXg1oHxzl549o51u080d43ynGjP+zoJS9UFmx2bZiI7OlGx4eLe3k82ZXSFxK9Bcrgh5y8R7P8Z798TYHnS2g6BdRCBZ8j6u1tXX//v3Hjh2b+mEul2vjxo0rV64U04rEDPQFpXDx4UC4r9/3RFniXBoEJ+XDP1KWfNzsFqL4L2sXO/jFDu2Ddn7xGO8/xYcvxBgl2+Rcl1x0o7zgw/K8Nea+rzWe78CNnL6MS5eSkvbFdpYyI8KH4z0qYjzkkinQC0rCWWrF5fV69+zZ09zcHPlTysvLa2pqCgoK4FqRmIG+oBQuPhyU1+sd/eVdhSkWv5RLmjHXvvltpqSYXcQ8gSHef0brP80HvWzkEh++wEcuspGLTAswxrj/MtM0pqRIadnMni2lZUvpudIslzR7uTxraQKOm9bzjv+XHzW7RYKSnWtT7/lVJI/Ee1TEe8gluugFJZOxzoqrpaVl165dg4OD0T4xIyNj69atlZWVEK1IzEBfUAoXHw4q1Pwjee9/atFZszqIYbv2IVvF18xuQQwTeOXB5LrNZjRs1/2j7eq/mfZheI+KeA+5RBe9oGQKFrk7/MGDB2tra2O42T9jLBAIHDp0KDc3t6SkxPBiJDagLyiFiw8HNdZ8KGD7cFGsHzlDwlb+ZWlmMZMS5RNxJC7+y4GXHgi9O0fCSCk375TsWVM/CO9REe8hl+iiF5RMzQorrpaWltraWlWN/foNznljY+PixYvpXd1EAPqCUrj4cFDjm/f7U6rz+2amBkUWEEw99t/BljrNe4gPn2dMkmbMZZJsdikSI9X9n3TbjMnIc1fbyr809WPwHhXxHnKJLnpBybTQr7i8Xu+3v/3t2P6oMB7nvKmpae3atQ6Hw5BiJDagLyiFiw8HFd58ZmqgdFbUn+hARgvwgU6t63X13f8Mtuyh1RdewVcf4sMWv/IwZsrq++V5FVM8AO9REe8hl+iiF5RE4v+xd+dxcZ3nvcDPLIAYMQaEhDEMyDaSPIgtoYAjIjdJm6Zt3Gyqb2JHS5O0mbiRb9JrtYqu1FQkbRpLQVn6adwblFVCSes0iR07Thp5i2zZDjAsxoxBsmMbZowWW4DENjPMOfePaRVFvMBhOM97znPm9/30D5owv3nye8/Cq4EZ9rfn1tbWyclJQ6ImJiZaW1sNiYKUkS4owuWHk5o7+dNnVkl7dkuIT6rDT84+/c+xH71/5ptVsYf+Yrb7G+q53nR4z0bu1OEn1fPPmz2FdbnKF3lDEb5XRb6XXBDCgoIevHdcfX193d3dBgYGg8He3l4DA2FJSBcU4fLDSQknj0yuGJow/xOWzBG7pL7yyOzJz8fue/dMa0Xsgdtnu76ujnQoqp1/zZKv2V8fNHsE63IWvslxzdoFvoHvVZHvJReEsKCgE+8d15EjRwzPPHYMbxtlGtIFRbj8cFLzTf7MmXwJz251V772dXjjb3dfCbxJgyUkfvNz9cwS3j863TjX3brwN/C9KvK95IIQFhR0cps9QOqGhoYW/XS5FAwMDITDYZ/PZ3gyLIx0QVVVRbjkcNKTaIGj5Zmzq2z/HvFLE59Uh59Uh59UFEXJ9DqLG53Fm5y+Tc411YrDZfZwaUlLzD77JbOHsDRX+UI7LtwshOH4uUU+/CAK+jHecXV0dNAl40CXj3RBVVVFuORw0pNogaPltcmsVy5mX3/NNN2zMxa7pL7yqPrKo4qiKFnXOIvf4vK91enb7Ci4SVHwjvOSJAZ/rF0w/qc023AWvsmRu9CvFOJmIQzHzy3y4QdR0I/xjisUChEl9/f3f+ADHyAKh/mQLijdJ30jfL5w0pNo4aPlidcKPnJNmO7ZbSJ6UX35l+rLv1QUxZFd4CzZ5Lyu0XFdg7OwxuzJ7EybPDf71OfMnsLSXBtvX/gbcLMQhuPnFvnwgyjox3jHNTw8TJQcDuNnNROQLijdvywifL5wouSkhY+WEyOrP7w+kumi+uHGfrTpNxIvPpR48SFFURyeQmdxo7P0Fmfp2xzXlJo9mt3M/mqvNjNq9hQW5l7hXP++hb8FNwthOFEyLAA/iIJ+jHdcY2NjRMmjo7gdmoB0Qen+ZRHh84UTJSctfLRMxF0d5/PfWnSBdAa70qbOXd59uRv+xn3z35k9kX0kQv+e+M3PzZ7C0lzr3uPIumbh78HNQhhOlAwLwA+ioB/jHVcsFiNKXv7H2EEKmC4owuWHKzqOlkfDq7HjWj5HQYXZI9iHNv5q/Klms6ewOtfGOxb9HtwsJIfDfJgeimAKxu8On5mZSZSclZVFlAwLIF1QhMsPJ0pOWnTy/lHvmSmcyMvkcBbfbPYMNqHNjMUe2q7ELpk9iKU58m50Fjcu+m18r4p8L7kghAUF/RjvuPLy8oiS8/PxeT4mIF1QhMsPJ0pOWnRyTVMeixSQzmB7jlUbHJ41Zk9hC4l4/BcBbfQls+ewOtfGO/S8ZybfqyLfSy4IYUFBP8Y7rrKyMqJkvCOnKUgXFOHyw4mSk/RM/sRrqxMa3vE8dc6St5g9gj1o8cd2qeGTZo9heU6366bb9Hwj36si30suCGFBQT/GO66KCqo/MKisrCRKhgWQLijC5YcTJSfpmXwsmhE8T/UPkOnAWbIp5cfGH/vb2fZD6mvPKom4gSPxk4jHj386Mfgjs+dgwHXDuxwrC/V8J9+rIt9LLghhQUE/xjuuxsbFf9vbasmwANIFRbj8cKLkJeU/+IquH+BAxOEsTvE1Li16MfHCfbPtX479+M9nDlfEHrh9tv3L6vCTijpr7IhWF5+M/eyj2G7p5HpTQOd38r0q8r3kghAWFPRjvOMqLS31+/2Gx/r9/pKSEsNjYVGkC4pw+eGGx15J5+SDYzmnx1eSTmJXjvx1Kf8Rl/bas4qW+O//Z3ZaHX5ytv1Q7IHbZ75VHX/4LxPPfVu7MGjYoFalTYxE//O96tDjZg/Cg7PwTc7rGnR+M9+rIt9LLghhQUE/xjsuRVF27NhheObWrVsNzwSdSBcU4fLDSemc/KFXr6WexJaW8yuFauRp8X8RvZj4zS/iJz4b/f4fRL9VG//FJxL9bdqFUyk/kWUlXnwo9u/v0t4YMHsQNlx1dy7p+/leFfleckEICwo68d5xVVVV1dXVGRhYX19fW1trYCAsCemCIlx+OCmdk//6bN5ZvE380i1vx/Xsot+jTb+eePGh+OOfif7gD7UZ+3zWpzZzIf6LT8R/8QltBh8Hp5fD63Pd+KdLegjfqyLfSy4IYUFBJ947LkVRAoFATk6OIVFerzcQ0Pt75ECEdEERLj+clJ7JVc3x82G8xflSOVJ+o0ItelF9PbSEZ1p1k2OFLd4HORFPPH8k9v0/SLz4kNmjMOOq/SvF6V7qo/heFfleckEICwp6sN9xFRcX79692+VyLTPH6XTefffdRUVFhkwFKSNdUITLDyelc/LHw6snZ5f7vy6tOPLXOTwpvunI7/wRlw5OX1NqT2Qh6mxi8D+j339b/In/q02dN3sabjK97o23p/A4vldFvpdcEMKCgh6u5uZms2dYrqKiooKCgmAwqGlaagkul2vnzp2bN282djBIDemCIlx+OCk9k89qTm/G7E15kzIHY8217lbX9e9M7bGJ/jb1TFD/97vrPulctT615zKddimceO478cfuTrzwH0p03OxxWHLXfNR5w7tSeyzfqyLfSy4IYUFhUXbYcSmKUl5eXl1d3dnZGY1Gl/pYr9e7b9++pib+/85qI6QLinD54aT0TD40kf2u0vNuZ4r3wnTjfvOdzoIU34Br9tkD2uRZ3d/uyHj7Fxzu7BSeSIuOz574e238VSU+pWR4HBny3pRSm35dffGh2ZPNs099Tg0/pUQvSntqu3FlZrzrXkemN+UAvldFvpdcEMKCwsIcKW/HLWhkZKS1tTUYXMI/r9bX1wcCAbyGa02kC4pw+eGkFp18x03hP1urfyeQ1rI+2q3zs2ivokUvRr9Zpf+3Ch0F/qw7Hk3hiRRFUV/+r9jPPvbbqBWrHKsrHHk3OnJvcOZd78i93pF7veIy7E1TtIkR9UyXGnlajTyjXTilKPa5dZrIVfOxjN//x+Xn8L0q8r3kghAWFOZjqx1XUl9f39GjRwcGFnlbXr/fv3379urqajlTQcpIFxTh8sNJLTC5N3P2X295Ptu1hD8xSk+O/PKsrSdSe6z6yiOxh/5C//cv5wfu2aeaZ3sOL/gtDkdOkSOn2OFZo+Rc58he7cgpdqzIUzJWKpleR9Y1Sobn6i1ZIqbMjGrRMWVmVJse1abOaaMvaqMvqmMvKbGJ1OaEebmysnY87Vhp2A+afK+KfC+5IIQFhblsuONKCofD7e3toVAoHA6PjY1NTU15PJ68vDyfz1dZWdnQ0ODz+cyeEZaAdEERLj+c1HyTf3hduHFFt9nTWZ2ralvG2w+k9tjZk5+f7f6G/u/P+NPDrvJ3p/Zcsf/4Y/X886k9FqzA/aaAe/N+w2P5XhX5XnJBCAsKV1ry+7Fy4fP5fD7fli1bzB5kyYaGhjo6OkKh0PDw8Pj4+PT0dHZ2dm5ubllZ2caNGxsaGkpLS9MwnHRBScNVVdU0TdO05BeKoiS/Tn6xzH/y4FsLqfkm12ZGo0feghcrFuYsXs4ncT2zlG9f5nvQv5DaY8EKZh2ZX39iZvBIwPCbBekll2846Q0ahPjeQ3G0ULDta1wc9fb2trW1DQ4OLvxtfr9/27ZtNTU1aRLOF2qxoNlnD8x2/ovZU1ha1ke7HCuvTeWRsUszhytN+SMuYOf+l4u+f7pkvv/WgncihEM6wNFCBzsuS4hEIocPH+7q6tL/kLq6ukAgUFxcbONwvlCLZWnRi9EjN+PN5eZjoz/iAuuaSbjuerLqYmyR37KxyJ0I4ZAOcLRQs8m7w7PW09PT3Nz86quvLulRIyMjjz322Nq1a0tK5v1nQtbhfKEWK3O4sxRNVcMnzR7Eolzlt7pu+KPUHpvoP6ae6dT//e66v3au2pDac80+80Vt6lxqjwXTPfBKUdf53EW/zQp3IoRDOsDRIgF2XCY7fvx4S0tLCp/eoChKPB4/efJkQUFBeXm5zcL5Qi3W57z2TYlTP8bLXELuNwecBRWpPXbJn8T1tn9yZHhSeCItenH2qc/j/dmZGo9lfO25G+KqU8832/g2xzccbAZHixzYcZmpp6enpaUlkUj97ao1Tevs7Fy/fv3cV3X5hvOFWnhwuh2eNepLPzN7DivK+P1/dGTmpPLI2KX4k836d0GOAr/7zX+dyhMpijb8q8Spn6T2WDDdt18oOz2+hI+rtuVtjm842AyOFml0/SMTUIhEIgcOHFjOUZ6kquqhQ4dGRkbsEc4XamHEtf69zusazZ7Cchx5N6b84Ujqa7/W/54ZiqI4S5pSeyJlye+ICBbyyiXPr15btdRH2ew2xzccbAZHi0zYcZmmtbV1cnLSkKiJiYnW1lZ7hPOFWlhxuH//84oDF8DfIXMXlPL7wqfwXGAd3xnwaYojhQfa6TbHNxxsBkeLTPiBwxx9fX3d3UZ+EmswGOzt7eUezhdqYce5ptq14QNmT2EtEndBDmfxzSk+U+yS+nooxceCqZ4+k//CqDflh9vjNsc3HGwGR4tk2HGZ48iRI4ZnHjt2jHs4X6iFI3fTXiWld26wK2dJqp99HLuknn9e/7c7Cm5yZK9O7anUyDNL+vVFsIiY6jx2arlvaGaD2xzfcLAZHC2SYcdlgqGhoUU/XS4FAwMD4XCYb7jhsdKgFqYcK4vcdXeZPYVVOPJuWMYfcbUv8Y+4Ut3a4VcK2XrwlcLzM1nLDOF+m+MbbngsmAtHi3yLfP4gUOjo6KBLVlWVabjP5yMKp0a6oHxrYcFd98nE6Qe0C8bfeNhZ1h9xvbbEP+Iqxo4rvZydynrg5esMiWJ9m+MbjjuRzeDnFvnwGpcJQiGqP0Lo7+/nG06ULAFqYcyVkfGHh/AWGoqiOIuX8Udc4SX+EVcJ/ogrvXzzhbKZhDFnGevbHN9womQwC44W+fAalwmGh4eJksPhMN2/clGHEyVLQLqgRMlwmfPaN7sqtyWeN/432nlZxltZTKiv44+4YF5PvFbQ+8Y1RqWxvs3xDSdKBrPg5xb5sOMywdjYGFHy6Oiopun9BFKrhRMlS0C6oETJcKWMpr3qK8e1iTT+LBGHa7brXmfJJmfJW5a6HVJH2hV1Vv/3L+vFtNeeTfmxYIpLMffRU0b+ihHr2xzfcKJkMAt+bpEPOy4TxGIxouRoNEqUzDqcGtMFhd/K9Lpv+Xz85x83ew7zaIlE33cTfd9VFMVxzVpn6S3O4gZnSZMjp3jRhy79k7jw2cdp5JsDZZdiRv6kwfdOhHCwDvzcIh92XCbIzMycmZmhSM7KytI0jWk4RawcpAtKEQtzucrfrd74J4nf/MLsQcynXXw10f9qor9N0bf7UiNPLyV+eX/EdR5/IcBJ1/lrnjmTb2wm69sc33CKWDARfm6RD38vboK8vDyi5Pz8fL7hRMkSoBZ7cL/tnx0rUPjv0C6+muhvix//dPS7DdEjTfHHP5MY/E9t4rXffkdsQuIncT2LP+JiZGrWdfiF6w2PZX2b4xtOlAxmwdEiH17jMkFZWdmZM2cokpPvyMk3nCnqBQU5HCuvdb/jQPznAbMHsajfee0rf72z5C3OkiYlEZX4R1z4lUJOvjfge2Mmw/BY7rc5vuFgJ/i5RT68xmWCiooKouTKykq+4UTJEqAW23CV3+qq+KDZUzCgjZ5OPH80/l9/HX/kb5b0QPwRV5o4u6L28ddSfDFzYaxvc3zDiZLBLDha5MOOywSNjY10yXzDiZIlQC12kvH7/5TIKTV7CrvCH3GlBXXFGtc7DhKFs77N8Q0nSgaz4GiRDzsuE5SWlvr9fsNj/X5/SUkJ33DDY6VBLbaSsTL7j/9V1Rxmz2FDjlUb8EdctqcpjhV/8nVfeRXTOxHCheGGx4K5cLTIhx2XOXbs2GF45tatW7mH84Va7MR5Xf34DXeYPYUNOVZeq02eTe2x+CMuLkZ9tzl9b1U434kQLgwHm8HRIhl2XOaoqqqqq6szMLC+vr62tpZ7OF+oxWaue/cXR+JrzJ7CbtThE9Hv1EWPNMUf+XSiv027FF7CYyP47GMGzibWFL/nS8mv+d6JEC4MB5vB0SIZdlymCQQCOTk5hkR5vd5A4HfeYI1vOF+oxVac7uw/Ozw1i3dzNZ528dXEwH/GH/9M9Hs3/3b3dXF4ocfELi3pPejBFFHV5Xn3NxTXb9+fkO+dCOHCcLAZHC0yuZqbm82eIU15vd7y8vITJ05omracHKfTuWfPng0bNtgjnC/UYjM5BSWRqRzv+V/hL7oIRce110PqK48ker+Z6D+mne1SouOOFfmOrNwrv0sdfjJx6sdmzQg6nV3/ad/Nv/NWn3zvRAjHnSgd4GiRCTsuMxUVFRUUFASDwZSPdZfLtXPnzs2bN9spnC/UYjOrbvi9l186nTs9aPYg6SE+qV04NWf3lefIyk30H1PPdJo9Hywkkv/H5VsE70/I906EcNyJ0gGOFmkcy9zXwvL19/ffc8894+PjS32g1+vdvXv3wr81yzecL9RiK5p64QdbPBc6zJ4jfTmuWavEJ7Xp180eBOY1lVez6sMPKs55fwuX750I4ZAOcLRIgNe4zFdYWLhp06aRkZGRkRH9j6qvr9+7d++6devsGs4XarEVh2PF+j+JDz7giF8ye5R0FR1XZqfMHgLmpWZf6/3QTxyZC/01CN87EcIhHeBokQCvcVlIX1/f0aNHBwYGFv42v9+/ffv26uqsTV8lAAAgAElEQVTqNAnnC7XYhnquJ/ajDyiJmNmDAFiMKyvzz3/sLHyTzm/neydCOKQDHC10sOOynHA43N7eHgqFwuHw2NjY1NSUx+PJy8vz+XyVlZUNDQ0+ny8Nw/lCLfaQCH0//tjfmT0FgLVk/MEh18bbl/oovncihEM6wNFCwbbvfTw0NNTR0REKhYaHh8fHx6enp7Ozs3Nzc8vKyjZu3NjQ0FBaWmr2jGI+n8/n823ZsoUiXFVVTdM0TUt+oShK8uvkF8vcfpNOTrqgpOGknZPiexJRTO7a+GFt7DezXf9GMTAAR66aj6aw3VKIr4p8b3N8a+F7g+Z7myPF98c5K7Pha1y9vb1tbW2Dg4u8vZjf79+2bVtNTY2cqUzHtxbSyfmGk8Lk89Di/7UzcfqBlMcDsI1T08WOd7VW1755SY/CJVeIby0IB/3SvHNb7bgikcjhw4e7urr0P6Suri4QCBQXF9NNZTq+tZBOzjecFCZfxOxM7P7/pZ5ZwrMA2M9vLnqaOzbMJFwWuSriwoVwi4SDEDpX7LTj6unpOXjw4MTExFIf6PF4du3a1dDQQDGV6fjWQjo533BSmFwPbeZC7Id/po2/utTnArCH8zNZ+35901g0I/n/mn5VxIUL4RYJByF0nmSTd4c/fvx4S0tLNBpN4bHxePzkyZMFBQXl5eWGD2YuvrWQTs43nBQm1/kQhzvbVXpL4tRPlEQqzwjA2tSs658615+dzrr8n+CSmxq+tSA8hYenLXR+mR12XD09PS0tLYlEIuUETdM6OzvXr19vp5cv+dZCOjnfcFKYfEmTO7ILnIU1iRd/qmhqys8LwE5cddzTte7Fiyuv+s9xyV0qvrUg3GY/K5JC51div+OKRCL79+9Pbfd8JU3TgsFgU1OT1+s1ZDBz8a2FdHK+4aQweQqTO3LXOvLXqS/9XFFs8ovZAAvTFMe/9l3f9Xqe+L/FJVc3vrUg3GY/K5JC51dxmj3AcrW2tk5OThoSNTEx0draakiU6fjWQjo533BSmFxJaXLXuj/L+MMvKw72V1GARWma8q0Xyk6eWbXA9+CSqxPfWhAuDAchdH4V3j8r9PX1dXd3GxgYDAZ7e3sNDDQF31pIJ+cbTgqTX5bC5C7/bRm3fN7AGQCsqe2075fDqxf9NlxyF8W3FoQLw0EInc/Fe8d15MgRwzOPHTtmeKZkfGshnZxvOClMfqUUJnfVfNR9898aPgmAdXz/dPGDr1yr85txyV0Y31oQLgwHIXQ+F+Md19DQ0KIfo5aCgYGBcDhseKw0fGshnZxvuOGxV8LkV0ltcnfD/3HXfdLwYQCs4IcvXXf/y9fp/35cchfAtxaEC8MNj7UHdC7kNnuA1HV0dNAl+3w+onBqfGshnVxVqd5Tjjqcb+dpNbm7aa8Wm0g8b/y/6gGY6MFXrv3hS0t+izBcchfIp0vm2znfcL4/K5Ky2g3aIhi/xhUKhYiS+/v7iZIl4FsL6eR8w4mSkzD5XKlO7sh4+z+7av/K4GkAzPPwUGHb6VR+uMEldz58a0G4MJwomTt0LsT4Na7h4WGiZNavWvKthXRyun/log4nSk7C0TLXMiZ3ZNzyOUemd7bjK0YOBGCGB14uOna6JLXH4pI7H9zmbBZOlMydJW/Q5mO84xobGyNKHh0dJUqWgG8tpJNrGtWHJlGHEyUn4WiZa5mTu2/+WyUje/bpfzZqHgD5fvhS8Q9fWsLfbl0Fl9z54DZns3CiZO4se4M2F+MdVywWI0pe/ue1mYhvLUwn5xuusO1csfbk7rqdjoyV8V/9PT4cGdjRNOV7g76Hh/S+M6EQ36tiOl+4EG6pcNaYHufUGP8dV2ZmJlFyVlYWUbIEfGshnZxvOFFyEiafy5DJXdUfyXj7F/HhyMCLqjn+X+j6ZW63FFxy58e3FoQLw4mSuUPnQox/IMjLyyNKzs/PJ0qWgG8tpJPzDSdKTsLkcxk1uatqe8YffkVxZRiSBkAtrjq+/NyNj0cKlh+FS+58+NaCcGE4UTJ36FyI8Y6rrKyMKJnvW08qnGshnZxvOFFyEiafy8DJXf7bMt/TpmR6jQoEIDIZd32xa337WWN+TsIldz58a0G4MJwomTt0LsR4x1VRUUGUXFlZSZQsAd9aSCfnG06UnITJ5zJ2cqdvc9ZtDzi8jG8SYHvnprM+2+F//oJh/zSAS+58+NaCcGE4UTJ36FyI8Y6rsbGRXbIEfGshnZxvOFEydT4mv8yx6qbM2x50FtYYGwtgiNPjK/f++qbwxAoDM3HJlZ/PunO+4UTJ3KFzIcY7rtLSUr/fb3is3+8vKUnxQ0isgG8tpJPzDTc89kqY/CpEkztWFmZ+4EfO699peDLAcoSmyz7XseFizMi/NsQldwF8a0G4MNzwWHtA50KMd1yKouzYscPwzK1btxqeKRnfWkgn5xtOCpNfiXDyDE/mu7/lqtpGlQ+wRO76T2X+aWtMNfjHAFxyF8a3FoQLw0EInc/Fe8dVVVVVV1dnYGB9fX1tba2BgabgWwvp5HzDSWHyy8gnd7oz3n4g4+33KC6qd84F0MWVlfHOr7nf8pmqqmqmV0V+p///4FsLwoXhIITO5+K941IUJRAI5OTkGBLl9XoDgYAhUabjWwvp5HzDSWFyReLkrqrtmX/+gOq5TsJzAczl8JZkbvmxy39b8v/le1XkePon8a0F4cJwEELnV3E1NzebPcOyeL3e8vLyEydOaJq2nByn07lnz54NGzYYNZi5+NZCOjnfcFKYXPLkjpXXuituu/jS05nRs3KeESDJufYPMt/7A2fe9Zf/E75XRaanv8K5FoTb7GdFUuj8Kux3XIqiFBUVFRQUBIPBlBfV5XLt3Llz8+bNxg5mLr61kE7ON5wUJpc8ucOd7an+0Csvnb5m+rTM54U05nDX7cz4w0OOjOyr/gu+V0Wmp7/CuRaE2+xnRVLo/Ep22HEpilJeXl5dXd3Z2RmNRpf6WK/Xu2/fvqamJorBzMW3FtLJ+YaTwuSyOZyrqt8TuZSRee5Zl2NZ/wQIsDDHilWZ7/6Wq2q74nAIv4HvVZHr6c+5FoSDfuj8MpvsuBRFKSws3LRp08jIyMjIiP5H1dfX7927d926dXSDmYtvLaST8w0nhcnly7vx5vH8t4yfemylc8rEMcDGnEW/l/m+f3cWVi/8bXyvinxPf761IBz0Q+dJjmX+eqUF9fX1HT16dGBgYOFv8/v927dvr65e5CZkG3xrIZ2cbzgpTC6bOvvaw/vyXznmUOx2QQYzOd3uN33C/ZbditOt/0F8r4pcT3/OtSAc9Evzzm2440oKh8Pt7e2hUCgcDo+NjU1NTXk8nry8PJ/PV1lZ2dDQ4PP5zJ7RBHxrIZ2cbzgpTC6ZGj4584udzpnzZg8CduC4pizjj/7FeV1Dag/ne1VkevornGtBOOiXtp0v4d+9eFFVVdM0TdOSXyiKkvw6+cUy95lDQ0MdHR2hUGh4eHh8fHx6ejo7Ozs3N7esrGzjxo0NDQ2lpaXWDPf5fD6fb8uWLSknLIB0ctIFJa0FncufnGnnTt9bs7efmH1iT+L0A8bODOkmkt2Ydcs9vutuSjmB9CTiez0nxfdORLqgfI8W0tscX3zP0GWy4Wtcvb29bW1tg4ODC3+b3+/ftm1bTU1NmoSTQi3y8e2c74JKmzzR3xZ/6vNKfDLlBEhbF2Pu/9e/tvN8npLeJxHIgZuFEN/JgY6tdlyRSOTw4cNdXV36H1JXVxcIBIqLi20cTgq1yMe3c74LKn9y7VIk/sQe9dXHUns4pKdnzuR/e6B0PJZx5X+YticRkMLNQojv5EDNPjuunp6egwcPTkxMLPWBHo9n165dDQ0L/bI733BSqEU+vp3zXVATJ0+8+NDsr/Zq02+knABpYjSa8a0XStvP5Qv/23Q+iYACbhZCfCcHCWzy7vDHjx9vaWlJ4c3+FUWJx+MnT54sKCgoLy+3WTgp1CIf3875Lqi5kztXbXBVfliJjmvnn0stAWxPUxyPhtcc7C5/dcIz3/ek80kEhsPNQojv5CCHHXZcPT09LS0tiUQi5QRN0zo7O9evXz/3VV2+4aRQi3x8O+e7oFaY3OFe4brhj5xFdepr7UrsYsqTgC0NTWR/qbv8eHjNrOZc+DvT+SQCA+FmIcR3cpCG/Y4rEons378/tX9UuJKmacFgsKmpyev12iCcFGqRj2/nfBfUUpM7cm9wV35YURT1XK+ipX5TB9uYSbjue6n4689f//pMps6HpPlJBMuHm4UQ38lBpkX+Vcz6WltbJyeNeUeviYmJ1tZWe4STQi3y8e2c74JabvKMle5Ne7K2P+W66TZFcRgxF7CkacqzZ/PvPrnx/peLEtrSjoR0P4lgeXCzEOI7OcjEe8fV19fX3d1tYGAwGOzt7eUeTgq1yMe3c74LatnJHTnFGX/0tcwP/NC5unL5acDOi+MrP9vh/3Lvjfpf2roKTiJIDW4WQnwnB8l477iOHDlieOaxY8e4h5NCLfLx7Zzvglp8cmfJpswP/SLjnV9zeNYYlQkW98ZM5tefv2Ffu//U2MplRuEkghTgZiHEd3KQjPGOa2hoaNFPl0vBwMBAOBzmG2547JVQi3x8O+e7oDwmdzhd/tuytj3prv+UkrHcH8HByibirrZTvk89VfWr11YZ8nkuOIlgqXCzEOI7OcjnNnuA1HV0dNAlq6rKNNzn8xGFK5w7J62FFN/O+S4oaecGT57pdb/lM643BRLPfXu2p1WJLflzYMDKZp0rfvZS3k9eLpqadRmbjJMIloTvnQjHOVgE49e4QqEQUXJ/fz/fcKLkJNQiH9/O+S4ou8kdK/Ldjbuytj/dPvPmmMr4qg6/lbHSXbfz3gt3HDtdYvh2S8FJBEuEm4UQ38lBPsavcQ0PDxMlh8Nhun9xoQ4nSk7i2zlRsgR8O+e7oKSdEyUriuLILmg7Vdx6IfGetef+tOxspsuI3z8D+TI8ro13uH/vfzs8a178boDoSXASwZLwvRMRJSfhOAf9GO+4xsbGiJJHR0c1Q35Z3oxwouQkvp0TJUvAt3O+C0raOVFy0tjY2Ews49jpkv8aXnPr2rPvKHnD48aHd7HhWJHvqtruqv0rR3ZB8j9hfSgSJbO+nvPF905ElJyE4xz0Y7zjisViRMnL/xg7W4Yr6NwM6FxyuMK2c+WKyV+fyfzeYOl9Lxa/o+T1W9eeW5NN9b8IDOG4Zq279mOujR9WMjxX/uc2OBQNx/p6zhfTBcVxDtbBeMeVmZk5MzNDkZyVlaVpGtNwitjL+HZOESsH3875Lihp5xSxl101+XTC9fDQtT8fKvy9NRfff8PIhjxjPqMTDOQsrHHV/KXrpg8oDsEfa9nmUDQQ6+s5X3zvRBSxl+E4B/0Y/411Xl4eUXJ+fj7fcKLkJNQiH9/O+S6ozSbXFEfn+dy/b/fv79jQcS4voTlIZwBdXJmuDe/P/ODPMj/4c5f/NuF2S7HdoWgI1tdzvnCzEOI7OcjH+DWusrKyM2fOUCQn35GTbzgd1p0zxbpzpgtK3TmdhSd/YdT7wqg3LyvedO2FP/C9UZYzTToMCDnyy10VH3JVfMiRvXrRb7brobgcrK/nfLG+E9HBcQ76MX6Nq6Kigii5srKSbzhRchJqkY9v53wX1N6Tj0UzHh669m+f3rjn2YpHwmtmEozvApy4slzr/izzff+etfVX7rqderZbit0PxdSwvp7zhZuFEN/JQT7G99rGxka6ZL7hRMnU+axrIcW3c74LmiaT/+aipzVUduevar71QtlvLq6kmyq9OZzXvjnj7fes+MvejD/5hrP0FkVZwm91psmhaJFkWABuFpLzcZzbD+MdV2lpqd/vNzzW7/eXlJTwDTc89kqoRT6+nfNd0LSafGrW9V/Da/Y869/5ZPV3B3yDYzlkb9ScXhyrNrgb787a9mTm/3rIVbVdyfSmEJJWh6Ie3K/nfOFmIcR3cpCP8Y5LUZQdO3YYnrl161bu4aRQi3x8O+e7oGk4+fnpzIeHrv1s+013PYWtV+oub7SyPvy4u3GXI++GZQam4aG4ABtcz/nCzUKI7+QgGe8dV1VVVV1dnYGB9fX1tbW13MNJoRb5+HbOd0HTefLLW6///VRV2ynfUPw6xcn4PZZkcGU4fU3upr/P2vbU/2y0bjQqO50PxavY43rOF24WQnwnB8l477gURQkEAjk5OYZEeb3eQCBgj3BSqEU+vp3zXVBMfm466/E31l1zx0MrAgOZ7/t3d91OZ2HN8mNtw+FZ47rptow/+caKv+zLfP8P3XV/vfxXtIRwKCr2up7zhZuFEN/JQSZXc3Oz2TMsi9frLS8vP3HihLa834BxOp179uzZsGGDPcJJoRb5+HbOd0Ex+W8nd2Y4ctc6S29xVW5z3XSbc9U6xeHWps4piZhRM7ORdY3T91ZX1baMW5rdTX/vKv9T56oNiov2s0pxKNrses4XbhZCfCcHmdjvuBRFKSoqKigoCAaDKR/rLpdr586dmzdvtlM4KdQiH9/O+S4oJp87uWNFnrOw1rXhfe7fu8vlv825psbhLXFoCW3qvKLY8w+/HCsLXWvf4a7c6n7LZzJu+Zzrpj93Xlev8+3djYJD0WbXc75wsxDiOzlI41jmjtw6+vv777nnnvHx8aU+0Ov17t69e+HfmuUbTgq1yMe3c74Lisn10KLj2pmgeqZLPRPUXu/Xpt9Y6pNahyO7wLF6o3P1RkdhrfO6RkfOdWZP9N9wKIJF4GYhxHdykMA+Oy5FUUZGRlpbW4PBoP6H1NfXBwKBoqIiG4eTQi3y8e2c74Ji8qXSpt/Q3hjQLpxSLwxob5zSLgxq0SX/FCKJ0+3IX+csqPjvXVbBRsfKQrNnmhcORbAI3CyE+E4O1Gy140rq6+s7evTowMDAwt/m9/u3b99eXV2dJuGkUIt8fDvnu6CYfDm0yTPa6IvaxbA2EdEuhbVLEW3iNe1SROYfgzmyVztyyxzXXP6/tY5rSh3eYsXhkjaDIaywoKnhOzkI4WYhxHdyoGPDHVdSOBxub28PhULhcHhsbGxqasrj8eTl5fl8vsrKyoaGBp/Pl4bhpFCLfHw757ugmNxY2tQ57dJryvTr2syYEh3TouPazJgSHddmRpXouBYdUxKzs7Oz0eiMa3ZCVVVN0xRF87gTMdWlOdyKO8ud5XVneRwZ2YozQ8nwKO4VjhWrHNmrFc9qx4pVjuxVSvYqR/YaR/YqxZ0t/38gHWsuqB58Jwch3CyE+E4OFGz7KSs+n8/n823ZsoVdePJHCk3T/udnCyX5dfKLZe6Qh4aGOjo6QqHQ8PDw+Pj49PR0dnZ2bm5uWVnZxo0bGxoaSktLUw5HLfLDSWvBggqR1kKKdPKUO3d4Ch2eRX6L7yzbM5Tvoch3chDiu6B8j3O+tznS8LRl29e4OOrt7W1raxscHFz42/x+/7Zt22pqlvbBOKThpPjWwjecFGqxGb4LyjecFN/JQQgLKsT39Ocbnuaw47KESCRy+PDhrq4u/Q+pq6sLBALFxcXmhpPiWwvfcFKoxWb4LijfcFJ8JwchLKgQ39Ofbzgo2HFZQU9Pz8GDBycmJpb6QI/Hs2vXroaGBrPCSfGthW84KdRiM3wXlG84Kb6TgxAWVIjv6c83HJLs8AnIrB0/frylpSUajabw2Hg8fvLkyYKCgvLycvnhpPjWwjecFGqxGb4LyjecFN/JQQgLKsT39OcbDpdhx2Wmnp6elpaWRCKRcoKmaZ2dnevXr5/7qi5pOCm+tfANJ4VabIbvgvINJ8V3chDCggrxPf35hsOVnGYPkL4ikciBAweWc5Qnqap66NChkZERaeGk+NbCN5wUarEZvgvKN5wU38lBCAsqxPf05xsOV8GOyzStra2Tk5OGRE1MTLS2tkoLJ8W3Fr7hpFCLzfBdUL7hpPhODkJYUCG+pz/fcLgKdlzm6Ovr6+7uNjAwGAz29vZKCCfFtxa+4aRQi83wXVC+4aT4Tg5CWFAhvqc/33CYCzsucxw5csTwzGPHjkkIJ8W3Fr7hpFCLzfBdUL7hpPhODkJYUCG+pz/fcJjLbfYA6WhoaGjRT5dLwcDAQDgcVlWVLtzn8xmefBnfWviGY0GF4aS18MV3QfmG8z1DcRLJhwUVwoVLfjjfo4UUdlwm6OjooEtWVZUunPQs4lsL33AsqDAcdwshvgvKN5zvGYqTSD4sqBAuXPLD+R4tpPBbhSYIhUJEyf39/aThRMlJfGvhG06UnIRabIbvgvINJ0pO4js5CGFBhfie/nzDiZK5w2tcJhgeHiZKTr5STBdOlJzEtxa+4UTJSXwXlCiZO74LyjecKDmJdEGJkmEBWFAhXLjkhxMlc4cdlwnGxsaIkkdHRzVNowsnSk7iWwvfcKLkJL4LSpTMHd8F5RtOlJxEuqBEybAALKgQLlzyw4mSucOOywSxWIwoORqNEiVThyuoxV7hChbUdrCgdgpX2C4ozAcLKsS0FoTbD/6OywSZmZlEyVlZWaThRMlJfGvhG06UnIRabIbvgvINJ0pO4js5CGFBhfie/nzDiZK5w47LBHl5eUTJ+fn5pOFEyUl8a+EbTpSchFpshu+C8g0nSk7iOzkIYUGF+J7+fMOJkrnDjssEZWVlRMk+n480nCg5iW8tfMOJkpNQi83wXVC+4UTJSXwnByEsqBDf059vOFEyd9hxmaCiooIoubKykjScKDmJby18w4mSk1CLzfBdUL7hRMlJfCcHISyoEN/Tn284UTJ32HGZoLGxkS6ZNJwomTqfuha+4UTJ1Pmsa+GL74LyDSdKps7HSWQKLKgQ39OfbzhRMnfYcZmgtLTU7/cbHuv3+0tKSkjDDY+9Et9a+IYbHnsl1GIzfBeUb7jhsVfiOzkIYUGF+J7+fMMNj7UH7LjMsWPHDsMzt27dKiGcFN9a+IaTQi02w3dB+YaT4js5CGFBhfie/nzDYS7suMxRVVVVV1dnYGB9fX1tba2EcFJ8a+EbTgq12AzfBeUbTorv5CCEBRXie/rzDYe5sOMyTSAQyMnJMSTK6/UGAgFp4aT41sI3nBRqsRm+C8o3nBTfyUEICyrE9/TnGw5XcTU3N5s9Q5ryer3l5eUnTpzQNG05OU6nc8+ePRs2bJAWTopvLXzDSaEWm+G7oHzDSfGdHISwoEJ8T3++4XAV7LjMVFRUVFBQEAwGUz7WXS7Xzp07N2/eLDmcFN9a+IaTQi02w3dB+YaT4js5CGFBhfie/nzD4UrYcZmsvLy8urq6s7MzGo0u9bFer3ffvn1NTU2mhJPiWwvfcFKoxWb4LijfcFJ8JwchLKgQ39Ofbzhchh2X+QoLCzdt2jQyMjIyMqL/UfX19Xv37l23bp2J4aT41sI3nBRqsRm+C8o3nBTfyUEICyrE9/TnGw5JjmX+7iYYqK+v7+jRowMDAwt/m9/v3759e3V1tXXCSfGthW84KdRiM3wXlG84Kb6TgxAWVIjv6c83PM1hx2U54XC4vb09FAqFw+GxsbGpqSmPx5OXl+fz+SorKxsaGnw+nzXDSfGthW84KdRiM3wXlG84Kb6TgxAWVIjv6c83PG25zR4Arubz+Xw+35YtWyjCVVXVNE3TtOQXiqIkv05+YeXtN+nkpJ3zDSeF49xm+B7nfK8tpEgnHxoa6ujoCIVCw8PD4+Pj09PT2dnZubm5ZWVlGzdubGhoKC0ttWY4KdLJ+R6KpPie/nyvimkLr3Gli97e3ra2tsHBwYW/ze/3b9u2raamRs5UevCdHOTD0QL64WiRj7RzvgvKd3K+0LkQaqGDHZf9RSKRw4cPd3V16X9IXV1dIBAoLi6mm0oPvpODfDhaQD8cLfKRds53QflOzhc6F0It1LDjsrmenp6DBw9OTEws9YEej2fXrl0NDQ0UU+nBd3KQD0cL6IejRT7SzvkuKN/J+ULnQqhFArw7vJ0dP368paUlhQ9YUBQlHo+fPHmyoKCgvLzc8MEWxXdykA9HC+iHo0U+0s75LijfyflC50KoRQ7suGyrp6enpaUlkUiknKBpWmdn5/r16yW/ZMx3cpAPRwvoh6NFPtLO+S4o38n5QudCqEUap9kDAIlIJHLgwIHlnEJJqqoeOnRoSZ+It0x8Jwf5cLSAfjha5CPtnO+C8p2cL3QuhFpkwo7LnlpbWycnJw2JmpiYaG1tNSRKD76Tg3w4WkA/HC3ykXbOd0H5Ts4XOhdCLTJhx2VDfX193d3dBgYGg8He3l4DA+fDd3KQD0cL6IejRT7SzvkuKN/J+ULnQqhFMuy4bOjIkSOGZx47dszwzLn4Tg7y4WgB/XC0yEfaOd8F5Ts5X+hcCLVIhh2X3QwNDS360XUpGBgYCIfDhsdeie/kIB+OFtAPR4t8pJ3zXVC+k/OFzoVQi3zYcdlNR0cHu2TqfOrJQT4cLaAfjhb5SDvnu6B8J+cLnQuhFvmw47KbUChElNzf30+UnMR3cpAPRwvoh6NFPtLO+S4o38n5QudCqEU+t9kDgMGGh4eJkqlfKeY7OciHowX0w9EiH2nnqqrShRMlJ+FQlA+dC6EW+bDjspuxsTGi5NHRUaLkJL6Tg3w4WkA/HC3ykXauaRpdOFFyEg5F+dC5EGqRDzsuu4nFYkTJ0WiUKDmJ7+QgH44W0A9Hi3xMO8dtzn7QuRBqkQ9/x2U3mZmZRMlZWVlEyUl8Jwf5cLSAfjha5CPtnO+C8p2cL3QuhFrkw47LbvLy8oiS8/PziZKT+E4O8uFoAf1wtMhH2jnfBeU7OV/oXAi1yIcdl92UlZURJft8PqLkJL6Tg3w4WkA/HC3ykXbOd0H5Ts4XOhdCLfJhx2U3FRUVRMmVlZVEyUl8Jwf5cLSAfjha5CPtnO+C8p2cL3QuhFrkw47LbhobG9klU+dTTw7y4WgB/XC0yEfaOd8F5Ts5X+hcCLXIhx2X3ZSWlvr9fsNj/X5/SQPtn9QAACAASURBVEmJ4bFX4js5yIejBfTD0SIfaed8F5Tv5HyhcyHUIh92XDa0Y8cOwzO3bt1qeOZcfCcH+XC0gH44WuQj7ZzvgvKdnC90LoRaJMOOy4aqqqrq6uoMDKyvr6+trTUwcD58Jwf5cLSAfjha5CPtnO+C8p2cL3QuhFokw47LngKBQE5OjiFRXq83EAgYEqUH38lBPhwtoB+OFvlIO+e7oHwn5wudC6EWmVzNzc1mzwDG83q95eXlJ06c0DRtOTlOp3PPnj0bNmwwarBF8Z0c5MPRAvrhaJGPtHO+C8p3cr7QuRBqkQk7LtsqKioqKCgIBoMpn0gul2vnzp2bN282drBF8Z0c5MPRAvrhaJGPtHO+C8p3cr7QuRBqkQY7LjsrLy+vrq7u7OyMRqNLfazX6923b19TUxPFYIviOznIh6MF9MPRIh9p53wXlO/kfKFzIdQiB3ZcNldYWLhp06aRkZGRkRH9j6qvr9+7d++6devoBlsU38lBPhwtoB+OFvlIO+e7oHwn5wudC6EWCRzL/N1N4KKvr+/o0aMDAwMLf5vf79++fXt1dbWcqfTgOznIh6MF9MPRIh9p53wXlO/kfKFzIdRCBzuu9BIOh9vb20OhUDgcHhsbm5qa8ng8eXl5Pp+vsrKyoaHB5/OZPaMY38lBPhwtoB+OFvlIO+e7oHwn5wudC6EWCm6zB6AyNDTU0dERCoWGh4fHx8enp6ezs7Nzc3PLyso2btzY0NBQWlpqzXBSqqpqmqZpWvILRVGSXye/sPL2m3RyvgtKiu9J5PP5fD7fli1bUk6wJRznQqRHC9+TiBTp9ZzvzYLv5HzD+f5QRAq1ULDha1y9vb1tbW2Dg4MLf5vf79+2bVtNTY11wklhcvnhfKFzm0Hn8uEkEuJbC8IRng5QCx1b7bgikcjhw4e7urr0P6Suri4QCBQXF5sbTgqTyw/nC53bDDqXDyeREN9aEI5wi5xEpFALNfvsuHp6eg4ePDgxMbHUB3o8nl27djU0NJgVTgqTyw/nC53bDDqXDyeREN9aEI5w/eF8oRYJbPLu8MePH29paUnhkwQURYnH4ydPniwoKCgvL5cfTgqTyw/nC53bDDqXDyeREN9aEI5w/eF8oRY57LDj6unpaWlpSSQSKSdomtbZ2bl+/fq5r42ShpPC5DZbUFLo3GbQuXw4iYT41oJwhOsP5wu1SMN+xxWJRPbv35/a1vxKmqYFg8Gmpiav1ysnnBQmt9mCkkLnNoPO5cNJJMS3FoQjXH84X6hFJqfZAyxXa2vr5OSkIVETExOtra3SwklhcsVeC0oKndsMOpcPJ5EQ31oQjnD94XyhFpl477j6+vq6u7sNDAwGg729vRLCSWHyy+yxoKTQuc2gc/lwEgnxrQXhCNcfzhdqkYz3juvIkSOGZx47dkxCOClMfiUbLCgpdG4z6Fw+nERCfGtBOML1h/OFWiRzmz1A6oaGhhb9jLYUDAwMhMNhVVXpwn0+n+HJl5HWwndyvgtKCp3bDN/Tny+cREJ8a0E4wvWH870q4mYhH+MdV0dHB12yqqp04aTHImktfCfnu6Ck0LnN8D39+cJJNF8+XTJpLQhHuP5wvldF3CzkY/xbhaFQiCi5v7+fNJwoOQmTz8V6QUmhc5tB5/LhJBLiWwvCEa4/nChZAtQiH+PXuIaHh4mSky9D04UTJSeR1kKUnIQFlQ+d2wzf058vnERCfGtBOML1hxMlS4CbhXyMd1xjY2NEyaOjo5qm0YUTJSeR1kKUnIQFlQ+d2wzf058vnERCfGtBOML1hxMlS4CbhXyMd1yxWIwoefkfBmdWuMK2FoXt5NS1kELnNsN0QVlj2jmu5whHuJXDqTE9Q1lj/HdcmZmZRMlZWVmk4UTJSZh8LtYLSgqd2ww6lw8nkRDfWhCOcP3hRMkSoBb5GO+48vLyiJLz8/NJw4mSkzD5XKwXlBQ6txl0Lh9OIiG+tSAc4frDiZIlQC3yMd5xlZWVESX7fD7ScKLkJEw+F+sFJYXObQady4eTSIhvLQhHuP5womQJUIt8jHdcFRUVRMmVlZWk4UTJSZh8LtYLSgqd2ww6lw8nkRDfWhCOcP3hRMkSoBb5GO+4Ghsb6ZJJw4mSqfNZT863FlLo3GbQuXw4iSTnU9eCcITrDydKlgC1yMd4x1VaWur3+w2P9fv9JSUlpOGGx14Jk1+F+4KSQuc2g87lw0kkxLcWhCNcf7jhsdKgFvkY77gURdmxY4fhmVu3bpUQTgqTX8kGC0oKndsMOpcPJ5EQ31oQjnD94XyhFsl477iqqqrq6uoMDKyvr6+trZUQTgqTX2aPBSWFzm0GncuHk0iIby0IR7j+cL5Qi2S8d1yKogQCgZycHEOivF5vIBCQFk4Kkyv2WlBS6Nxm0Ll8OImE+NaCcITrD+cLtcjkam5uNnuGZfF6veXl5SdOnNA0bTk5Tqdzz549GzZskBZOCpPbbEFJoXObQefy4SQS4lsLwhGuP5wv1CIT+x2XoihFRUUFBQXBYDDlI8blcu3cuXPz5s2Sw0lhcpstKCl0bjPoXD6cREJ8a0E4wvWH84VapLHDjktRlPLy8urq6s7Ozmg0utTHer3effv2NTU1mRJOCpPLD+cLndsMOpcPJ5EQ31oQjnD94XyhFjlssuNSFKWwsHDTpk0jIyMjIyP6H1VfX793795169aZGE4Kk8sP5wud2ww6lw8nkRDfWhCOcP3hfKEWCRzL/N1NC+rr6zt69OjAwMDC3+b3+7dv315dXW2dcFKYXH44X+jcZtC5fDiJhPjWgnCEpwPUQseGO66kcDjc3t4eCoXC4fDY2NjU1JTH48nLy/P5fJWVlQ0NDT6fz5rhpDC5/HC+0LnNoHP5cBIJ8a0F4QhPB6iFgm13XADpYGhoqKOjIxQKDQ8Pj4+PT09PZ2dn5+bmlpWVbdy4saGhobS01OwZTUBaC9/OUQuAleEkkg9XRZAGOy4Alnp7e9va2gYHBxf+Nr/fv23btpqaGjlTmY60Fr6doxYAK8NJJB+uiiAZdlwAzEQikcOHD3d1del/SF1dXSAQKC4uppvKdKS18O0ctQBYGU4i+XBVBFNgxwXASU9Pz8GDBycmJpb6QI/Hs2vXroaGBoqpTEdaC9/OUQuAleEkkg9XRTCLfd4dHsD2jh8/3tLSksInZiiKEo/HT548WVBQUF5ebvhg5iKthW/nqAXAynASyYerIpgIOy4AHnp6elpaWhKJRMoJmqZ1dnauX7/eTr+9QFoL385RC4CV4SSSD1dFMJfT7AEAYHGRSOTAgQPLuZonqap66NChJX3EoZWR1sK3c9QCYGU4ieTDVRFMhx0XAAOtra2Tk5OGRE1MTLS2thoSZTrSWvh2jloArAwnkXy4KoLpsOMCsLq+vr7u7m4DA4PBYG9vr4GBpiCthW/nqAXAynASyYerIlgBdlwAVnfkyBHDM48dO2Z4pmSktfDtHLUAWBlOIvlwVQQrwI4LwNKGhoYW/RTFFAwMDITDYcNjpSGthW/nqAXAynASyYerIliE2+wBAGAhHR0ddMk+n48onBppLaqq0oWTdo5aAKwM13P5cFUEi8BrXACWFgqFiJL7+/uJkiUgrYVv56gFwMpwEsmHqyJYBF7jArC04eFhomTWv7RAWgvdP1tSd45aAKwM13P5cFUEi8COC8DSxsbGiJJHR0eJkiUgrUXTNLpwouQk1AJgZbiey4erIlgEdlwAlhaLxYiSo9EoUbIETGuh7hy1AFgZ0zOUNaadY0HtB3/HBWBpmZmZRMlZWVlEyRKQ1sK3c9QCYGU4ieTDVREsAjsuAEvLy8sjSs7PzydKloC0Fr6doxYAK8NJJB+uimAR2HEBWFpZWRlRMut3niWthW/nqAXAynASyYerIlgEdlwAllZRUUGUXFlZSZQsAWktfDtHLQBWhpNIPlwVwSKw4wKwtMbGRnbJEpDWwrdz1AJgZTiJ5MNVESwCOy4ASystLfX7/YbH+v3+kpISw2OlIa2Fb+eoBcDKcBLJh6siWAR2XABWt2PHDsMzt27danimZKS18O0ctQBYGU4i+XBVBCvAjgvA6qqqqurq6gwMrK+vr62tNTDQFKS18O0ctQBYGU4i+XBVBCvAjguAgUAgkJOTY0iU1+sNBAKGRJmOtBa+naMWACvDSSQfropgOuy4ABgoLi7evXu3y+VaZo7T6bz77ruLiooMmcp0pLXw7Ry1AFgZTiL5cFUE07mam5vNngEAFldUVFRQUBAMBjVNSy3B5XLt3Llz8+bNxg5mLtJa+HaOWgCsDCeRfLgqgrmw4wJgo7y8vLq6urOzMxqNLvWxXq933759TU1NFIOZi7QWvp2jFgArw0kkH66KYCLsuAA4KSws3LRp08jIyMjIiP5H1dfX7927d926dXSDmYu0Fr6doxYAK8NJJB+uimAWR8ovgAKAifr6+o4ePTowMLDwt/n9/u3bt1dXV8uZynSktfDtHLUAWBlOIvlwVQTJsOMCYCwcDre3t4dCoXA4PDY2NjU15fF48vLyfD5fZWVlQ0ODz+cze0YTkNbCt3PUAmBlOInkw1URpHGbPUA6mpycHBkZOXv27Llz586fPz8+Pn7p0qWLFy9OTU0lEonp6Wk5M2CzbZSf/vSnZj21qqqapmmalvxCUZTk18kv0naJfT6fz+fbsmULu3BSpEcL31qGhoY6OjpCodDw8PD4+Pj09HR2dnZubm5ZWdnGjRsbGhpKS0utGc4XOhfiez1H5/LDcRKxg9e4ZBgbGxsYGDh16tQrr7zy6quvnj9/3uyJwEim7Lh6e3vb2toGBwcX/ja/379t27aamho5U4E14WgRIq0FnQuhcyFMLh/fQ5FveJrDjovKpUuXenp6urq6QqHQkv6GEtiRvOOKRCKHDx/u6urS/5C6urpAIFBcXEw3FVgTjhYh0lrQuRA6F8Lk8vE9FPmGg4Idl+HOnDnz1FNPPfvssy+++GLytWOwPZk7rp6enoMHD05MTCz1gR6PZ9euXQ0NDRRTgTXhaBEirQWdC6FzIUwuH99DkW84JOHd4Y0xNjb28MMPt7a2HjlypLe394033sBWNn3ccccdcp7o+PHjLS0tKXzWh6Io8Xj85MmTBQUF5eXlhg8GFoSjRYi0FnQuhM6FMLnhgy2K76HINxwuw45rWTRN6+7u/u53v3vvvfd2d3ePjo6aPRGYQM6Oq6enp6WlJZFIpJygaVpnZ+f69evxOwC2h6NFiLQWdC6EzoUwuc0mR7jNLlwUnGYPwFU8Hn/sscfuuuuu5ubmZ555ZjkHK8CiIpHIgQMHln+Yqap66NAh/GGhveFoESKtBZ0LoXMhTG6zyRFuswsXEey4lmx6evq+++776Ec/+tWvfnV4eNjscSAttLa2Tk5OGhI1MTHR2tpqSBRYE44WIdJa0LkQOhfC5Iq9Jke4MByugh3XEszMzPzoRz/6+Mc/3tbWdvHiRbPHgXTR19fX3d1tYGAwGOzt7TUwEKwDR4sQaS3oXAidC2Hyy+wxOcKF4TAXdly6aJp28uTJu+6663vf+x72WiDZkSNHDM88duyY4ZlgBThahEhrQedC6FwIk1/JBpMjXBgOc7nNHoCBgYGB1tbWF1980exBIB0NDQ0t+lmEKRgYGAiHwz6fz/BkMBGOFiHSWlRVRedzoXMhvmcoJr+KhEORbzjfCxcp7LgWMjU1dezYsYceeghv9Q5m6ejooEvGZdFmcLQIkdZC97mL6Hy+ZL6d8z1DMbkwmfRQ5BvO98JFCr9VOK/29vZPfvKTDz74ILZbYKJQKESU3N/fT5QMZsHRIkRaCzoXQudCmHwu1pMjXBhOlMwdXuMSiMVi3/ve9/DSFlgB3fthhsNhomQwC44WIdJa6P6pGJ0Lse6c7xmKyeeiPhT5hhMlc4cd19VOnz7d0tKCTxUAixgbGyNKxgd22w+OFiHSWuj+YQ6dC7HunO8Zisnnoj4U+YYTJXOHHdfveOyxx+69995YLGb2IAD/je5ojEajRMlgFhwtQkxrQedCrDtnWouCyUX4Hop8w1nD33H9t1gs9rWvfe2rX/0qtltgKZmZmUTJWVlZRMlgFhwtQqS1oHMhdC6EyediPTnCheFEydxhx6UoinLp0qX9+/c/+uijZg8CcLW8vDyi5Pz8fKJkMAuOFiHSWtC5EDoXwuRzsZ4c4cJwomTusONSRkZGdu/ejTdXAWsqKysjSsb7t9oPjhYh0lrQuRA6F8Lkc7GeHOHCcKJk7tJ9x3Xq1Kldu3ZFIhGzBwEQq6ioIEqurKwkSgaz4GgRIq0FnQuhcyFMPhfryREuDCdK5i6td1z9/f3/8A//MDExYfYgAPNqbGxklwxmwdEiRFoLOhdC55LzMbn8fOpDkW84UTJ36bvjCgaD+/fvn5qaMnsQgIWUlpb6/X7DY/1+f0lJieGxYC4cLUKktaBzIXQuhMmvwn1yhAvDDY+1hzTdcfX29n7xi1/E2xICCzt27DA8c+vWrYZnghXgaBEirQWdC6FzIUx+JRtMjnBhOMyVjjuugYGBL3zhC9huARdVVVV1dXUGBtbX19fW1hoYCNaBo0WItBZ0LoTOhTD5ZfaYHOHCcJgr7XZcL7/8cnNz88zMjNmDACxBIBDIyckxJMrr9QYCAUOiwJpwtAiR1oLOhdC5ECZX7DU5woXhcJX02nFduHDhH//xH/G3W8BOcXHx7t27XS7XMnOcTufdd99dVFRkyFRgTThahEhrQedC6FwIk9tscoTb7MJFxNXc3Gz2DJJMTU3t27dvZGTE7EHAbu644w4Jz1JUVFRQUBAMBjVNSy3B5XLt3Llz8+bNxg4GFoSjRYi0FnQuhM6FMLnNJke4zS5cFNJlx6Vp2le+8pW+vj6zBwEbkrPjUhSlvLy8urq6s7MzGo0u9bFer3ffvn1NTU0Ug4EF4WgRIq0FnQuhcyFMLh/fQ5FvOFyWLjuu//iP/3j44YfNngLsSdqOS1GUwsLCTZs2jYyMLOnV2vr6+r17965bt45uMLAgHC1CpLWgcyF0LoTJ5eN7KPINhyRHyi8jMtLV1fW5z30uHf6Xgil++tOfyn/Svr6+o0ePDgwMLPxtfr9/+/bt1dXVcqYCa8LRIkRaCzoXQudCmFw+voci3/A0Z/8d1/j4+Kc+9anR0VGzBwHbMmXHlRQOh9vb20OhUDgcHhsbm5qa8ng8eXl5Pp+vsrKyoaHB5/OZNRtYDY4WIdJa0LkQOhfC5PLxPRT5hqctt9kD0NI07V/+5V+w3QK7UlVV0zRN05JfKIqS/Dr5xTL/PWVoaKijoyMUCg0PD4+Pj09PT2dnZ+fm5paVlW3cuLGhoaG0tNSY/xmskNZCGo6jRYi0Fp/P5/P5tmzZYsysvwudC/HtnLQWUqSdk+J7KJKG8z0Urczmr3H97Gc/+8Y3vmH2FItzuVxFRUW5ubkrVqzIzs72eDxOZ3q9cb+iKA6HY+XKlYbHPvfcc6dPnzY89kqmvMbV29vb1tY2ODi48Lf5/f5t27bV1NRYJ5wvvp3zDSeFyeXD5PLDQQidC6EWOnbecZ07d+6uu+6y5ocdr1ixoqKioqqqau3atSUlJUVFRcv/PAQQ+va3v33//feTPoXkHVckEjl8+HBXV5f+h9TV1QUCgeLiYnPD+eLbOd9wUphcPkwuPxyE0LkQaqFm2x2Xpmn79+/v6ekxe5DfUVRU9La3va2urm7Dhg3YYslhsx1XT0/PwYMHJyYmlvpAj8eza9euhoYGs8L54ts533BSmFw+TC4/HITQuRBqkcC27w7/xBNPUP+crZ/H43nnO98ZCAQ+8pGP1NTUrFmzJg1/adAs3d3di77rzjJJe3f448ePt7S0pPCJGYqixOPxkydPFhQUlJeXyw/ni2/nfMNJYXLDB1sUJpcfDkLoXAi1yGHPHdfMzMwXvvCF6elpswdRcnNzt2zZ8nd/93dvfetbV69e7XA4zJ4o7dhmx9XT09PS0pJIJFJO0DSts7Nz/fr1c38HgDScL76d8w0nhckxuX44iWwGnQuhFmns+UrLfffdd+HCBXNnyM3NvfPOO7/1rW/dcccdOTk55g4D3EUikQMHDiznmpikquqhQ4eu+ohD0nC++HbON5wUJsfk+uEkshl0LoRaZLLhjuvcuXMPPPCAiQM4nc5bb7313/7t39797ndnZmaaOAnYRmtr6+TkpCFRExMTra2t0sL54ts533BSmFzB5LrhJLIZdC6EWmSy4Y7rBz/4QTweN+vZ161b9+Uvf/kTn/gEXtcCo/T19XV3dxsYGAwGe3t7JYTzxbdzvuGkMPllmHxROIlsBp0LoRbJ7LbjikQiTzzxhClP7XA43vOe9xw4cODGG280ZQCwqyNHjhieeezYMQnhfPHtnG84KUx+JUy+MJxENoPOhVCLZHbbcX3/+99f/i+kpiA3N/ezn/3sxz/+8YyMDPnPDjY2NDS06GcRpmBgYCAcDpOGGx4rDd/O+YYbHnslTH4VTL4AnEQ2g86FUIt8brMHMNLZs2dPnjwp/3mLioqam5vxJi1AoaOjgy5ZVVW6cJ/PRxROjW/nfMNJjxbSBcXk8+XTJfOdnO9JxBffQ5EUapHPVq9x3X///XSXs/msX7/+S1/6ErZbQCQUChEl9/f3k4YTJUvAt3O+4UTJSZh8Lkw+H5xENoPOhVCLfPZ5jevSpUuPPvqo5Cetra3dt2/fihUrJD8vpI/h4WGi5HA4TPcvFKx/r4Bv53zDiZKTSBeUKDkJk8/FenK+JxFffA9FUqhFPvvsuB555JGZmRmZz7hhwwZst4Da2NgYUfLo6KimaXThRMkS8O2cbzhRchLpghIlJ2HyuVhPzvck4ovvoUgKtchnkx2Xpmm//OUvZT7j2rVr9+/fj+0WUIvFYkTJ0WiUKJk6nBo6t1O4wnZBFUwugsnlh7PGdEGpoRb5bPJ3XM8//3wkEpH2dKtXr/785z/v9XqlPSOkLboP0c7KyiINJ0qWgG/nfMOJkpMw+VyYfD44iWwGnQuhFvlssuN65JFHpD2Xy+XavXt3fn6+tGeEdJaXl0eUnJ+fTxpOlCwB3875hhMlJ2HyuTD5fHAS2Qw6F0It8tlhxxWLxX79619Le7qPfOQjfr9f2tNBmisrKyNK9vl8pOFEyRLw7ZxvOFFyEiafC5PPByeRzaBzIdQinx12XMFgcGpqSs5z3Xzzze9973vlPBeAoigVFRVEyZWVlaThRMkS8O2cbzhRchImnwuTzwcnkc2gcyHUIp8ddlxPPfWUnCfyeDx33nmnw+GQ83QAiqI0NjbSJZOGEyVLwLdzvuFEydT5mFx+PuvJ+dbCFzoXQi3ysd9xqara09Mj57m2bt1aUFAg57kAkkpLSyl+i9Xv95eUlJCGGx4rDd/O+YYbHnslTH4VTL4AnEQ2g86FUIt87HdcL7zwwqVLlyQ80bp162699VYJTwRwlR07dhieuXXrVgnhfPHtnG84KUx+JUy+MJxENoPOhVCLZOx3XMFgUM4T/cVf/IXTyb4u4Kiqqqqurs7AwPr6+traWgnhfPHtnG84KUx+GSZfFE4im0HnQqhFMvZbiN7eXgnPctNNN+EwAhMFAoGcnBxDorxebyAQkBbOF9/O+YaTwuQKJtcNJ5HNoHMh1CIT7x1XNBp9+eWXJTzR7bffLuFZAOZTXFy8e/dul8u1zByn03n33XcXFRVJC+eLb+d8w0lhckyuH04im0HnQqhFJldzc7PZM6TuhRdekPDZxzfccMPHPvYx6mcBIt3d3QMDA6RPcccdd5DmJxUVFRUUFASDQU3TUktwuVw7d+7cvHmz5HC++HbON5wUJsfk+uEkshl0LoRapOG94zpx4sRzzz1H/Swf/OAHN2zYQP0sQMQ2Oy5FUcrLy6urqzs7O6PR6FIf6/V69+3b19TUZEo4X3w75xtOCpPLh8nlh4MQOhdCLXLw3nE9+OCDw8PDpE/hdrs//elPZ2VlkT4L0LHTjktRlMLCwk2bNo2MjIyMjOh/VH19/d69e9etW2diOF98O+cbTgqTy4fJ5YeDEDoXQi0SOFJ+GdEK7rzzztdee430KZqamvbs2UP6FEDq29/+9v3330/6FD/96U9J84X6+vqOHj266GbS7/dv3769urraOuF88e2cbzgpTC4fJpcfDkLoXAi10GG845qZmfnQhz5EPf/u3bvxy6ms2XXHlRQOh9vb20OhUDgcHhsbm5qa8ng8eXl5Pp+vsrKyoaHB5/NZM5wvvp3zDSeFyeXD5PLDQQidC6EWCm6zB0hdJBKh3m45HI6amhrSp1gCTVXP9yciz6oXBtXRl7RLES0+pSQW+qVbbTaqzE5LG3CZcv7PebNH4EdVVU3TNE1LfqEoSvLr5BfLPEF8Pp/P59uyZYsxs/6uoaGhjo6OUCg0PDw8Pj4+PT2dnZ2dm5tbVla2cePGhoaG0tJSa4aT1sJ3QUkn57ugpJOTdk6KtHNSOIlsFs73JCKFWigwfo3r6aefvueee0if4sYbb/zqV79K+hSL09TE8JPxF/4z8ZtfaDNjJg9DiWjHZdfXuHp7e9va2gYHBxf+Nr/fv23bNgv9wwHx5KhFPiyoEGoB/fgeLQi3GdRCh/GO6yc/+cl3vvMd0qd4//vfb+b7widis4M/ibV/RR19ybQZJMKOS6dIJHL48OGuri79D6mrqwsEAsXFxXRT6UE6OWqRDwsqhFpAP75HC8JtBrVQY/xehSdOnDh9+jTpU7zvfe8rKysjfYr5zA7+ZPr+D8++cJ82M2rKAPJlbtpNEWuz9yrs6elpbm5+9dVXl/SokZGRxx57bO3atSUlJUSDLYp0ctQiHxZUCLWAfnyPFoTbDGqRgPGO6/jx4+FwmPQpbr/99ry8PNKnmEubeG3mwY/EO/9ViU1IfmpzYce1qOPHj7e0tKTwiRmKosTjdRsprAAAIABJREFU8ZMnTxYUFJSXlxs+2KJIJ0cthg+2KCyoEGoB/fgeLQhP4eFWhlrkcJo9QOouXbpEmu90Oq+77jrSp5hr9je/nDr6jsTQCcnPC9bX09Nz7733JhKJlBMSicTXv/71YDBo4FR6kE6OWmw2OWqxWS0gxPdoQbjNTiLUIg3jHdfFixdJ86+99trMzEzSp7hKvOebMz/drs1ckPmkwEIkEjlw4MByrolJqqoeOnRoSR9xuEykk6MWm02OWmxWCwjxPVoQbrOTCLXIxHjHNTFB+0t3q1evJs2/SuyZg9HH/6+iqTKfFLhobW2dnJw0JGpiYqK1tdWQKD1IJ0ctir0mRy2KvWoBIb5HC8KF4XyhFpkY77hisRhpvsfjIc2/Urznm7FnvyTt6YCXvr6+7u5uAwODwWBvb6+BgfMhnRy1XGaPyVHLZfaoBYT4Hi0IF4bzhVokY7zjmp2dJc3Pzs4mzb9s9vSD0cf3ynku4OjIkSOGZx47dszwzLlIJ0ctV7LB5KjlSjaoBYT4Hi0IF4bzhVokY7zjisfjpPlydlzq2MvR43+jKFw/FQ2oDQ0NLfpZhCkYGBigfqtP0slRy1W4T45arsK9FhDie7QgXBhueKw0qEU+t9kDpG75f+q3sKysLNJ8RVEULTHzcECL0r4FCLDW0dFBl+zz+YjCFeLJVZXqLx5Z18J3ciyoMJlvLSDE92hBuDCc70nE907EF+PXuGwg3vNt9WyP2VOApYVCIaLk/v5+ouQk0slRy1ysJ0ctc7GuBYT4Hi0IF4YTJUuAWuRj/BoXd9rMaOyZe8yeAqxueHiYKJn6pX/Syen+2ZJ1LUTJSVhQIdQC+vE9WhAuDCdKloDvnYgv7LhME+9uxe8TwqLGxsaIkkdHR4mSk0gn1zSqP31kXQtRchIWVAi1gH58jxaEC8OJkiXgeyfiCzsuk8xOx3u+afYQwADdpyBEo1Gi5CSmk6OW+TCdHLXID4f54GhBuEUwPRRZw99xmWP29IPaDNU/MICdZGZmEiVTvzcM6eSoZS7Wk6OWuVjXAkJ8jxaEC8OJkiVALfJhx2WOeOg+s0cAHvLy8oiS8/PziZKTSCdHLXOxnhy1zMW6FhDie7QgXBhOlCwBapEPOy4TaLGJRPhps6cAHsrKyoiSqd+/lXRy1DIX68lRy1ysawEhvkcLwoXhRMkSoBb5sOMyQSLyjKLSfnwz2EZFRQVRcmVlJVFyEunkqGUu1pOjlrlY1wJCfI8WhAvDiZIlQC3yYcdlAvW1drNHADYaGxvZJVPnNzY2ohaZydT5WND5kvnWAkJ8jxaEC8OJkiVALfJhx2UC9cJps0cANkpLS/1+v+Gxfr+/pKTE8NgrkU6OWq7CfXLUchXutYAQ36MF4cJww2OlQS3yYcdlAnX0JbNHAE527NhheObWrVsNz5yLdHLUciUbTI5armSDWkCI79GCcGE4X6hFMuy4TKBNv272CMBJVVVVXV2dgYH19fW1tbUGBs6HdHLUcpk9Jkctl9mjFhDie7QgXBjOF2qRDDsuE2ixSbNHAGYCgUBOTo4hUV6vNxAIGBKlB+nkqEWx1+SoRbFXLSDE92hBuDCcL9QiE3ZcZpidMXsCYKa4uHj37t0ul2uZOU6n8+677y4qKjJkKj1IJ0ctNpsctdisFvj/7d19UJz13e/xa3d5DisQYkRYiEpINyEQoRBNgvXW6tj2rg93eua2aR7qeI5Yy9GJtsYYrKHjQ6Um1rY+Eqs2D5OpZ0YdnXGcJrWtlaoQEpCBkqO1Bhax0RrQhDwQds8fe9+ZnORKIHB9fxffi/frL/6Qz/Xxe/2W5Jtddm3pPS2Ee+xBxFhMCtTV1bndYYy2bt0qmh8Oh8vKyiSSj7zzc4lY7ZIWrJKI3bVrV1dXl0TyMUuWLBHNj8vJycnOzm5paYnFYmNLCAQCNTU1VVVVzhYbkWhzxuKx5ozFY2OBLb2nhXCPPYgYizFsXKckuXE9LBGrHRvXiAoLC0tKSnbs2HH48OEz/d5gMFhbW7tw4UKJYiMSbc5YzOOG2mIsGD29p4Vwj2EsZrBxnRIbl2FsXKMxffr0BQsW9PX19fX1jf67Kioq1qxZM3PmTLliIxJtzljM44baYiwYPb2nhXCPYSwG+Mb8NKLrrrnmGtH866677sYbb5RI3v+LsyVitUu//VOJ2Gefffbll1+WSD7mlVdeEc231d7evmnTphGXyXA4vHz58pKSEjOtRkO0OWMxjxtqi7Fg9PSeFsI9hrHIYeM6JTYuw9i4xiASiTQ1NXV2dkYikf7+/sHBwbS0tMzMzFAoVFxcXFlZGQqF3Op2eqLNGYt53FBbjAWjp/e0EO4xjEVCgtsFAIxdKBQKhUKLFy92u8gZi0ajsVgsFovFv7AsK/51/Itx/kuQaHh3d3dzc3NnZ2dPT8/AwMDBgwdTU1MzMjIKCgrmzJlTWVmZn58/5nDRG6q3OWMxH66X6A0VDRf9wSV6WvT+PNf7INL7g0u0+UTGc1ynxHNchvEc1yTR1ta2efPm3bt3n/4/C4fDy5YtKy0tnSThovQ2F8VYPEbvw1/vUWQs5ukdi97mjmDjOiU2LsPYuDyvt7d3w4YNO3fuHP23lJeXV1dX5+bmejhclN7mohiLx+h9+Os9iozFPL1j0dvcQbxX4SnxXoWG8V6F3tba2lpXV7dnz54z+q6+vr433nhjxowZeXl5ngwXpbe5KMbiMXof/nqPImMxT+9Y9DZ3FhvXKbFxGcbG5WHbtm1bt27dGD7rw7KsoaGhxsbG7OzswsJCj4WL0ttcFGPxGL0Pf71HkbGYp3cseps7zu92AQAe19ra+sQTTwwPD485YXh4+PHHH29pafFSuCi9zUUxFo/R+/DXexQZi3l6x6K3uQQ2LgCCent76+vrx/MDNy4aja5fv/6ED2fUGy5Kb3NRjMVj9D789R5FxmKe3rHobS6EjQuAoIaGhgMHDjgStX///oaGBm+Ei9LbXBRj8Ri9D3+9R5GxmKd3LHqbC2HjAiClvb19165dDga2tLS0tbVpDxelt7koxuIxeh/+eo8iYzFP71j0NpfDxgVAysaNGx3P3LJli/ZwUXqbi2IsHqP34a/3KDIW8/SORW9zOWxcAER0d3eP+EGHY9DV1RWJRPSGOx57PL3NRTEWj9H78Nd7FBmLeXrHore5qAS3CwDwpubmZrnkaDSqNDwUCgmFW8IzF20uirF4DD9bbMP1/mzROxZRen9w6W0uiue4AIjo7OwUSu7o6NAbLpQcp7e5KMbiMXof/nqPImMxT+9Y9DYXxXNcAET09PQIJUciEbl/E5UOF0qOE525ULIBjMVj+NliGy6UHKd35kLJBuj9waW3uSg2LgAi+vv7hZL37dsXi8WUhgslx4nOXCjZAMbiMfxssQ0XSo7TO3OhZAP0/uDS21wUGxcAEUeOHBFKPnz4sFCy6nBL7cylMRaPUXpD9YZbzNwNSmduaW4uit/jAiAiKSlJKDk5OVlvuFBynN7mohiLx+h9+Os9iozFPL1j0dtcFBsXABGZmZlCyVlZWXrDhZLj9DYXxVg8Ru/DX+9RZCzm6R2L3uai2LgAiCgoKBBKDoVCesOFkuP0NhfFWDxG78Nf71FkLObpHYve5qLYuACImD17tlBycXGx3nCh5Di9zUUxFo/R+/DXexQZi3l6x6K3uSg2LgAi5s+fL5esN1woWTpfurkoxuIxeh/+eo8iYzFP71j0NhfFxgVARH5+fjgcdjw2HA7n5eXpDXc89nh6m4tiLB6j9+Gv9ygyFvP0jkVvc1FsXACkrFixwvHMpUuXag8Xpbe5KMbiMXof/nqPImMxT+9Y9DaXw8YFQMrcuXPLy8sdDKyoqJg3b572cFF6m4tiLB6j9+Gv9ygyFvP0jkVvczlsXAAEVVdXp6enOxIVDAarq6u9ES5Kb3NRjMVj9D789R5FxmKe3rHobS6EjQuAoNzc3FWrVgUCgXHm+P3+O+64IycnxxvhovQ2F8VYPEbvw1/vUWQs5ukdi97mQgJ1dXVudxijrVu3iuaHw+GysjKJ5CPvPCwRq13SglUSsbt27erq6pJIPmbJkiWi+drl5ORkZ2e3tLTEYrGxJQQCgZqamqqqKi+Fi9LbXBRj8Ri9D3+9R5GxmKd3LHqbS2DjOiU2LsPYuDyssLCwpKRkx44dhw8fPtPvDQaDtbW1Cxcu9F64KL3NRTEWj9H78Nd7FBmLeXrHore549i4TomNyzA2Lm+bPn36ggUL+vr6+vr6Rv9dFRUVa9asmTlzplfDReltLoqxeIzeh7/eo8hYzNM7Fr3NneUb8zN9rrvmmmtE86+77robb7xRInn/L86WiNUu/fZPJWKfffbZl19+WSL5mFdeeUU032Pa29s3bdo04hocDoeXL19eUlIyScJF6W0uirF4jN6Hv96jyFjM0zsWvc0dwcZ1SmxchrFxTSqRSKSpqamzszMSifT39w8ODqalpWVmZoZCoeLi4srKylAoNAnDReltLoqxeIzeh7/eo8hYzNM7Fr3NxynB7QIAJqNoNBqLxWKxWPwLy7LiX8e/GOe/BImGh0KhUCi0ePHi8YScSnd3d3Nzc2dnZ09Pz8DAwMGDB1NTUzMyMgoKCubMmVNZWZmfnz/mcNGxiDYXDdd7Q/WGi9L78BcNF6V35nrPud7Torf5OPEc1ynxHJdhPMc1SbS1tW3evHn37t2n/8/C4fCyZctKS0snTrgovWPRGy5K71iYOUZP78z1NodSbFynxMZlGBuX5/X29m7YsGHnzp2j/5by8vLq6urc3Fx3w0XpHYvecFF6x8LMMXp6Z663OVTjvQpPifcqNIz3KvS21tbWurq6PXv2nNF39fX1vfHGGzNmzMjLy3MrXJTesegNF6V3LMwco6d35nqbQzs2rlNi4zKMjcvDtm3btm7dujF8HIdlWUNDQ42NjdnZ2YWFhebDRekdi95wUXrHwswdL+Zhemeutzk8wO92gcnJ53aBCYiZeFZra+sTTzwxPDw85oTh4eHHH3+8paXFcLgovWPRGy5K71iYufnmeumdud7m8AY2LjckJLvdYMLxJaa6XQEient76+vrx/OHXFw0Gl2/fv0Jn58oGi5K71j0hovSOxZmbr65Xnpnrrc5PIONywW+pHS3K0w8SUG3G0BEQ0PDgQMHHInav39/Q0ODsXBReseiN1yU3rEwc8t4c730zlxvc3gGG5cLfKnT3K4w4fhSprpdAc5rb2/ftWuXg4EtLS1tbW0GwkXpHYvecFF6x8LMjzHWXC+9M9fbHF7CxuUCfxa/dnki/9SZbleA8zZu3Oh45pYtWwyEi9I7Fr3hovSOhZkfz0xzvfTOXG9zeAkblwv8U4vcrjDhsHF5T3d394gfLjkGXV1dkUhENNzx2OPpHYvecMdjj6d3LMz8BAaa66V35nqbw2MS3C4wGfnPrXS7woQTyL3I7QpwWHNzs1xyNBqVCw+FQkLhluax6A3nhpoP1ztz0eZ66Z253ubwGJ7jckEgtNDyJ7rdYiIJJPnzLna7BBzW2dkplNzR0SEaLpQcp3csesOFkuP0joWZn0y6uV56Z663OTyG57hc4EtKD4QWDHe/6XaRiSIQWuRLnOJ2Czisp6dHKDkSicj987z0C0X0jkVvuFByHDfUNlwoOU505kLJ2umdud7m8Bg2Lnckzv5PNq5jEuf8p9sV4Lz+/n6h5H379sViMblwoeQ4vWPRGy6UHMcNtQ0XSo4TnblQsnZ6Z663OTyGVxW6I1B0tS85w+0WE4IvJTNh5r+73QLOO3LkiFDy4cOHRcOFkuP0jkVvuFBynN6xMPOTSTfXS+/M9TaHx7BxucOXmJZ44f90u8WEkFhWbSWkut0CzktKShJKTk5OFg0XSo7TOxa94ULJcXrHwsxPJt1cL70z19scHsPG5ZrE8pt9SUG3W7jMl5yRWFbtdguIyMzMFErOysoSDRdKjtM7Fr3hQslxesfCzE8m3VwvvTPX2xwew8blGl/K1KQFd7ndwmVJi9bw6kqvKigoEEoOhUKi4ULJcXrHojdcKDlO71iY+cl4s+9T0Ttzvc3hMWxcbkos+1/+6aVut3CN/5yyxNIb3G4BKbNnzxZKLi4uFg0XSo7TOxa94ULJcXrHwsxPJt1cL70z19scHqN44woEAqL5Jn4n0hdI+fcNk/O1hb7EKSnfeNzyiZ9A6fsofQ71mj9/vlyyaLhQsnS+9Fj0hgslS+czc/P50s310jtzvc3hMYo3roQE2be2P3jwoGh+nD/zguQrHrEsn4FrTSS+5Kt+7Z9aZOBK0vcxMZEPs7aXn58fDocdjw2Hw3l5eaLhjsceT+9Y9IY7Hns8vWNh5icw0FwvvTPX2xweo3jjkv6brpmNy7KshK9cl1R1j5lrTRDJX1ubUHS1mWsNDg6K5rNxncaKFSscz1y6dKmBcFF6x6I3XJTesTDz45lprpfemettDi9h4zolYxuXZVlJlbclzV9p7HLuSrrojsSv1hi7nPR9lHvnWQ+YO3dueXm5g4EVFRXz5s0zEC5K71j0hovSOxZmfoyx5nrpnbne5vASxRtXMCj760//+te/RPNPkLSoNvnfHjTwe02u8iVdsjZp4d0mL/npp5+K5kufQ+2qq6vT09MdiQoGg9XV/99nCYiGi9I7Fr3hovSOhZlbxpvrpXfmepvDMxT//f6ss84Szf/kk0+GhoZEL3GCxLKbUq5+zpci9dkR7vKlTE25dlNSxf82edGhoaG9e/eKXkL6HGqXm5u7atWq8b+/iN/vv+OOO3JycoyFi9I7Fr3hovSOhZmbb66X3pnrbQ7PCNTV1bndYYyampoikYhcfiwWu/TSSzMyjH5alH9qUeJX/iO6973Yl4L/a+YFQotSF78QyCkzfN1IJPLaa6+JXmLmzJlVVVWil9AuJycnOzu7paUlFouNLSEQCNTU1NjOWTRclN6x6A0XpXcszJyf4aOnd+Z6m8MbFG9cHR0d77//vuglSktL8/PzRS9xMl9yRmLxd/2Z5w337bCGDhi+uuN86TkpX384+dKf+pJdeC6oo6OjsbFR9BKlpaUVFRWil/CAwsLCkpKSHTt2jOHN+oPBYG1t7cKFC10JF6V3LHrDRekdCzPH6Omdud7m8ADFG1d3d3dra6voJaZPn37hhReKXuIUfP6zi5MuvMkXzIt+2mEd+dKNDuPlC4aSF96VctVj/unz3Hr7++3bt3d1dYle4pJLLpF451nvmT59+oIFC/r6+vr6+kb/XRUVFWvWrJk5c6aL4aL0jkVvuCi9Y2HmGD29M9fbHNr5xvzsqusaGxvr6+tFLzFz5sxHHnlE9BIjix49uuePR//2f4Y//H1Mw1NevqT0wAVXJYb/R2DGv1l+2c9MG9HKlSs//PBD0UvcfffdCxYsEL2Ex7S3t2/atGnETTgcDi9fvrykpGTihIvSOxa94aL0joWZY/T0zlxvcyileOP64IMP7rjjDtFL+Hy+zZs3T5Q3o4seHf7nruHed6L/+r+xfR9E939iDe2PHRqwLBfvoM+XkmElpvvTc/xTZ/qmfiWQd3HgnAtdX7TiBgYGVqxYIX3CH3300QsuuED0Ep4UiUSampo6OzsjkUh/f//g4GBaWlpmZmYoFCouLq6srAyFQhMzXJTesegNF6V3LMwco6d35nqbQ50J8TfjsQmFQj6f7MYYi8Xa29snyst2/QmBcysD51a63UON9957T3rd8vl8Hv7U+e7u7ubm5s7Ozp6enoGBgYMHD6ampmZkZBQUFMyZM6eysnI8v+UYCoVCodDixYsdLHxMNBqNxWKxWCz+hWVZ8a/jX4zzVIiORbS56Mz1hnNDbYk2F6X3tIiGi9J7WvT+YQF1FD/HZVnWzTfffEavxB2DSy655M477xS9BIQ89NBDf/3rX0UvkZeX9+STT4pewhVtbW2bN2/evXv36f+zcDi8bNmy0tJSM61GQ7S53nDY4oba0ttcFKfFFs3Nh0Mp3RvXz372s7ffflv0EklJSc8//7xTH5wHY7788ssbbrhB+hPVqqqqVq1aJXoJw3p7ezds2LBz587Rf0t5eXl1dXVubq5cq9EQba43HLa4obb0NhfFabFFc/PhUE3xexValvXxxx+3t7eLXmJ4eHj69OlFRUWiV4Hjtm/f3tTUJH2Vr33ta8XFxdJXMaa1tbWurm7Pnj1n9F19fX1vvPHGjBkzXHyBpWhzveGwxQ21pbe5KE6LLZqbD4d2ujeu4eHhP/7xj9JX6e/vv+qqq6SvAmc9+eST+/btk77K9ddff84550hfxYxt27atW7duDJ9SYlnW0NBQY2NjdnZ2YWGh48VGJNpcbzhscUNt6W0uitNii+bmw+EBujeuzMzMF198UfqFkZ9//vmcOXNycnJErwIH7dy586WXXpK+SiAQuPnmmxMSFL/9zDGtra3r1q0bHh4ec0IsFtuxY0dRUZHhl0aINtcbDlvcUFt6m4vitNiiucduKIzxu11gXFJSUs4//3wDF9qyZYuBq8ApL7zwgoGrFBUVJScnG7iQtN7e3vr6+vH8UREXjUbXr18v/WY2xxNtrjcctrihtvQ2F8VpsUVzj91QmKR747Isy8x7vHR1dUn/whic0tbW1tnZaeBCnnl/oYaGhgMHnPlw7f379zc0NDgSNRqizfWGwxY31Jbe5qI4LbZobnnrhsIk9RvXV7/6VTMX2rhxo+r3dZwkotHob3/7WzPXMnb2RLW3t+/atcvBwJaWlra2NgcDT0W0ud5w2OKG2tLbXBSnxRbNj/HGDYVh6jeuOXPmpKWlGbjQ7t27X3/9dQMXwni89tprH3zwgYELpaenz5o1y8CFpG3cuNHxTDOvwhVtrjcctrihtvQ2F8VpsUXz43nghsIw9RtXIBAoKyszc62NGzcaePs7jNnnn3++efNmM9cqLy8PBAJmriWnu7t7xI9oHIOurq5IJOJ47PFEm+sNdzzWG7ihtvQ2F8VpsUXzE2i/oTBP/cZlWVZVVZWZCx04cIDX105kTz/99ODgoJlrGTt1opqbm9UlS+c3NzfrDRdK1o4bajhf9VHktBjOV91c71hgnhc2rsrKSjMvLLQsq7Gx8bXXXjNzLZyRV1999e233zZzrbS0tPLycjPXEiX3FiMdHR1CyXGizfWGCyVrxw21pbe5KE6LLZqfTPUNhXle+CihpKSkysrKP//5z2Yu95vf/KaoqKioqMjM5TAau3fvfu6554xd7uKLL05KSjJ2OTk9PT1CydKviBBtHo1GlYYLJWun97QIJcfpffiL4rTY0ntauKGYILzwHJdlWV//+teNXWtoaKi+vn5gYMDYFXF6/f399fX1R48eNXZFk+dNVH9/v1Cy9G88ijbXGy6UrB031Jbe5qI4LbZofjLVNxTmeWTjmjdv3rnnnmvscnv37r333nud+vgFjMfg4OBPf/rTzz77zNgVc3Jy5s6da+xyoo4cOSKUfPjwYaHkONHmesOFkrXjhtrS21wUp8UWzU+m+obCPI9sXD6f78orrzR5xX/84x8PPvig3IMNo3HkyJH77rvv73//u8mLfvOb3/T5fCavKEfutZHJyclCyXGizfWGCyVrxw21pbe5KE6LLZqfTPUNhXke2bgsy7ryyisN/2pNe3t7fX09S5dbjhw5Ul9fb/i3S5OTkz3zkkLLsjIzM4WSs7KyhJLjRJvrDRdK1o4baktvc1GcFls0P5nqGwrzvLNxZWRkXH755YYv2tzcXFtb+8UXXxi+Lvbv37927Vrzb596xRVXnHXWWYYvKqegoEAoORQKCSXHiTbXGy6UrB031Jbe5qI4LbZofjLVNxTmeWfjsixr8eLFfr/p/6Pdu3fffffde/fuNXzdyWzv3r2rVq0y/96pfr//2muvNXxRUbNnzxZKLi4uFkqOE22uN1woWTtuqC29zUVxWmzR/GSqbyjM89TGlZOTs2DBAvPX7enpufPOO9977z3zl56EWltbf/zjH7vyxqmLFi3Kyckxf1058+fPV5csnT9//ny94ULJ2nFDDeerPoqcFsP5qpvrHQvM89TGZVnWkiVLXHlXg3379v3kJz/ZsGHD8PCw+atPEsPDw1u3bl27dq3c+7Geht/v/+53v2v+uqLy8/PD4bDjseFwOC8vz/HY44k21xvueKw3cENt6W0uitNii+Yn0H5DYZ7XNq6CgoJLL73UlUvHYrFXX311zZo1fG6dhJ6enrvvvnvr1q2xWMyVApdddll+fr4rlxa1YsUKxzOXLl3qeObJRJvrDYctbqgtvc1FcVps0fx4HrihMMxrG5dlWd/73vcSEhLcuvrf/va3W2+99fnnnz906JBbHTxmcHDw2Wefve2227q6utzqkJiYuGTJEreuLmru3Lnl5eUOBlZUVMybN8/BwFMRba43HLa4obb0NhfFabFF82O8cUNhmAc3rpycnG9/+9suFhgeHn7xxRdvueWW7du38yLD8Th69Oi2bdtuueWWl19+2d1JXnvttdOnT3exgKjq6ur09HRHooLBYHV1tSNRoyHaXG84bHFDbeltLorTYovmlrduKEwK1NXVud3BeeFw+A9/+IO7zzIdPHjw3XfffeONN/x+/3nnnefi024aDQ0Nbd++/aGHHvrTn/7k+rOFWVlZq1atSkxMdLeGnGAwWFhY+Oabb47zFZt+v3/16tWzZs1yqtiIRJvrDYctbqgtvc1FcVps0dxjNxQmeXPjSkxMDAaD7777rttFrMHBwZ07d/7+97/v7+/PyMjgI+1G9OGHH7700kuPPvroW2+9NTg46HYdy7KsH/7wh0VFRW63kJWTk5Odnd3S0jLmPzACgUBNTU1VVZWzxUYk2lxvOGxxQ23pbS6K02KL5h67oTDGmxuXZVnnn39+R0fHBPmYrMOHD3d1db3++uuNjY0HDhxISUlclYb2AAAM9klEQVTJyspy5T0VJ6ZoNPrhhx9u3779iSeeeOGFF7q6ug4fPux2qf9SVlZ2ww03TIabVVhYWFJSsmPHjjEMPxgM1tbWLly4UKLYiESb6w2HLW6oLb3NRXFabNHcfDg8wOfWO78Z8Mknn9x6660T5+/ux0tPTy8uLi4tLS0oKMjNzZ02bdpk+Dv9MbFY7LPPPvv444/37NnT3t7e0dGxf/9+t0vZSElJeeyxxzz8G1wn6+vra2hoaGlpGf23VFRUVFdXu/5JZaLN9YbDFjfUlt7mojgttmhuPhyqeXnjsizr5ZdffvbZZ91uMbLk5OTc3NyzzjprypQpKSkpKSkpqampbpdy0sGDBw8dOnTo0KEDBw588cUXvb29R44ccbvUyG666aarr77a7RYuaG9v37Rp04hvDhkOh5cvX15SUmKm1WiINtcbDlvcUFt6m4vitNiiuflwKOXxjSsWi917771tbW1uF4E+ZWVldXV1k+q5xxNEIpGmpqbOzs5IJNLf3z84OJiWlpaZmRkKhYqLiysrK0OhkNsd7Yk21xsOW9xQW3qbi+K02KK5+XCo4/E30PP5fLfffvttt932xRdfuN0FmmRkZKxcuXIyr1uWZYVCoVAotHjxYreLnDHR5nrDu7u7m5ubOzs7e3p6BgYGDh48mJqampGRUVBQMGfOnMrKyvF8xrfe8Gg0GovFYrFY/AvLsuJfx78Y5z9K6r2homPhtJgPF6W3uegjVO+DSJTe5uPk8ee44pqamh544IHJ8H8KR/h8vrVr1zr7mYaAi9ra2jZv3rx79+7T/2fhcHjZsmWlpaWEjz9clN6xEG4+XJTe5qI4Lbb0NnfEpNi4LMvasmXL7373O7dbQIelS5def/31brcAHNDb27thw4adO3eO/lvKy8urq6tzc3MJH1u4KL1jIdx8uCi9zUVxWmzpbe6gybJxxWKx++67b8eOHW4XwUQ3f/782traSf56QnhDa2vrz3/+8zG8EWhaWtqPfvSjyspKws80XJTesRBuPlyU3uaiOC229DZ3lmc/j+sEPp+voqKiqamJX+jCacyYMePee+9NSkpyuwgwXtu2bVu3bt3YPh5jaGiosbExOzu7sLCQ8NGHi9I7FsLNh4vS21wUp8WW3uaOmywbl2VZSUlJF110UWNj4+DgoNtdMBFNnTr1/vvvz8zMdLsIMF6tra3r1q0bHh4ec0IsFtuxY0dRUdHJL+og3DZclN6xEM5RPIFbzUVxWmzpbS7B73YBo6ZNm1ZbW5uSkuJ2EUw4qamp995776T6sGN4VW9vb319/Xj+kIuLRqPr16/v6+sjfMRwUXrHQjhH0Zb55qI4Lbb0NhcyuTYuy7IKCwtra2t52RiOl5SUdM8991xwwQVuFwEc0NDQcODAAUei9u/f39DQQPiI4aL0joVw8+Gi9DYXxWmxpbe5kEm3cVmWNW/evNra2sTERLeLYEJISEhYvXo1H/oOb2hvb9+1a5eDgS0tLcc+RJ5w23BResdCuPlwUXqbi+K02NLbXM5k3LgsyyorK7vzzjsTEjz+AdAYUWJi4urVqysqKtwuAjhj48aNjmdu2bKF8NOEi9I7FsLNh4vS21wUp8WW3uZyJunGZVnWxRdfXFdXx+90TWbJycm1tbXz5893uwjgjO7u7hE/XHIMurq6IpEI4bbhjsceT+9YCDcf7njs8fQ2F8VpsaW3uahJ/SRPaWnp2rVr77vvPt69cBKaMmXK2rVrw+Gw20UAxzQ3N8slR6NRwk8OD4VCQuEWN5TwMwnXexRFm4vS+wjltJg3eZ/jiisuLq6vr+cd6iabadOmPfDAA6xb8JjOzk6h5I6ODsJtw4WS4/SOhXDz4ULJcXqbi+K02NLbXNSkfo4rbsaMGQ8//PD999///vvvu90FJsyaNeuee+7hc7fgPT09PULJkUhE7h9cVYcLJcdxQwkffbhQcpzoURRKNkDvI1QoOY7TYouNy7IsKysr64EHHvj1r3/9l7/8xe0ukHXZZZfV1NTw8QDwpP7+fqHkffv2xWIxwk8OF0qO44YSPvpwoeQ40aMolGyA3keoUHIcp8UWG9d/SUlJufPOO0tLS59++umjR4+6XQfOCwQCy5Yt+853vuN2EUDKkSNHhJIPHz4slEz4aXBDCZ8I4ZbaoyhN6Vg4La6Y7L/HdYKrrrrqwQcf5Ne6vCcnJ6e+vp51C94m9+RtcnIy4bbhQslxesdCuPlwoeQ4vc1FcVps6W0uio3rROFw+Fe/+tVVV13ldhE4ZtGiRb/4xS9mzZrldhFAltxvJ2ZlZRFuGy6UHKd3LISbDxdKjtPbXBSnxZbe5qLYuGykpaXV1NTcddddGRkZbnfBuGRlZa1evfquu+6aMmWK210AcQUFBULJoVCIcNtwoeQ4vWMh3Hy4UHKc3uaiOC229DYXxcZ1SosWLXrqqaeuvvpqn8/ndhecMZ/Pd9lllz322GMLFy50uwtgyOzZs4WSi4uLCbcNF0qO0zsWws2HCyXH6W0uitNiS29zUWxcpzNlypSbbrrp/vvvP++889zugjNwwQUXPPjgg7fffnswGHS7C2DO/Pnz5ZIJtw0XSpbOVz1zwm3DhZKl86Wbi+K0GM5XfVrYuEZWUlLyy1/+cuXKlXyC08QXDAZvuummRx55RPU/hABjk5+fL/G53uFwOC8vj3DbcMdjj6d3LISbD3c89nh6m4vitNjS21wUG9eo+Hy+yy+//KmnnlqyZAm/ETQxpaenL1269Jlnnrn66qv9fg42JqkVK1Y4nrl06VLCTxMuSu9YCDcfLkpvc1GcFlt6m8vhL6ZnIC0tbcmSJRs2bLj++uvZuyaO9PT0Y/clNTXV7TqAm+bOnVteXu5gYEVFxbx58wg/TbgovWMh3Hy4KL3NRXFabOltLoeN64zFn0t57rnnampqVD+/6QHnnHPO97///WeeeYbnHoFjqqur09PTHYkKBoPV1dWEjxguSu9YCDcfLkpvc1GcFlt6mwsJ1NXVud1BpYSEhJkzZ37rW986//zzDx069Mknn8RiMbdLTRZ+v7+iouKGG274wQ9+UFxcnJiY6HYjYAIJBoOFhYVvvvnmOH8o+f3+1atXn/BBdoTbhovSOxbCOYq2zDcXxWmxpbe5EDaucfH5fPn5+ZdeeukVV1yRnp4+MDAwMDDgdikvmzFjxjXXXLNy5cpvfOMboVCIN+4HbOXk5GRnZ7e0tIz5j7pAIFBTU1NVVUX4KMNF6R0L4RzFE7jVXBSnxZbe5hJ8PDPjrJ6enrfeeuudd9756KOPmK0jfD7f+eeff9FFF1VVVeXn57tdB1Cjo6PjoYceGsM/AwWDwVWrVp3+RfOEm6d3LISbDxelt7koTostvc2dxcYlZd++fTt37ty1a1dnZ+dnn33mdh19pk2bVlxcXFZWVlZWlpWV5XYdQKW+vr6GhoaWlpbRf0tFRUV1dXVOTg7hYwsXpXcshJsPF6W3uShOiy29zR3ExmXCp59+2tnZ+f777+/Zs+ejjz7ilYe2MjIyzjvvvBkzZsyaNWvOnDnTpk1zuxHgEe3t7Zs2berq6jr9fxYOh5cvX15SUkL4+MNF6R0L4ebDReltLorTYktvc0ewcbmgv7//448//uc//7l3795PP/10YGDgy/929OjRaDQ6ODjodkfnpaWl+f3+hISE4H/LyMg4++yzzznnnOnTp+fl5WVkZLjdEfCySCTS1NTU2dkZiUT6+/sHBwfT0tIyMzNDoVBxcXFlZWUoFCLc2XBResdCuPlwUXqbi+K02NLbfJzYuAAAAABACp/HBQAAAABS2LgAAAAAQAobFwAAAABIYeMCAAAAAClsXAAAAAAghY0LAAAAAKSwcQEAAACAFDYuAAAAAJDCxgUAAAAAUti4AAAAAEAKGxcAAAAASGHjAgAAAAApbFwAAAAAIIWNCwAAAACksHEBAAAAgBQ2LgAAAACQwsYFAAAAAFLYuAAAAABAChsXAAAAAEhh4wIAAAAAKWxcAAAAACCFjQsAAAAApLBxAQAAAIAUNi4AAAAAkMLGBQAAAABS2LgAAAAAQAobFwAAAABIYeMCAAAAAClsXAAAAAAghY0LAAAAAKSwcQEAAACAFDYuAAAAAJDCxgUAAAAAUti4AAAAAEAKGxcAAAAASGHjAgAAAAApbFwAAAAAIIWNCwAAAACksHEBAAAAgBQ2LgAAAACQwsYFAAAAAFLYuAAAAABAChsXAAAAAEhh4wIAAAAAKWxcAAAAACCFjQsAAAAApLBxAQAAAIAUNi4AAAAAkMLGBQAAAABS2LgAAAAAQAobFwAAAABIYeMCAAAAAClsXAAAAAAghY0LAAAAAKSwcQEAAACAFDYuAAAAAJDCxgUAAAAAUti4AAAAAEAKGxcAAAAASGHjAgAAAAApbFwAAAAAIOX/AZ2JH25SucNmAAAAAElFTkSuQmCC;" parent="OY9wK7jUDrNuS_OS_JSJ-1" vertex="1">
          <mxGeometry x="41.109999999999985" y="41" width="159" height="159" as="geometry" />
        </mxCell>
      </root>
    </mxGraphModel>
  </diagram>
</mxfile>
